<svg width="322" height="264" viewBox="0 0 322 264" fill="none" xmlns="http://www.w3.org/2000/svg">
<g clip-path="url(#clip0_1_1422)" filter="url(#filter0_d_1_1422)">
<g clip-path="url(#clip1_1_1422)">
<path d="M16.0005 17L379 17L379 152.828C379 188.821 349.822 218 313.828 218L16.0005 218L16.0005 17Z" fill="white"/>
<rect x="-28.3599" y="27.722" width="195.13" height="43.3346" transform="rotate(-17.8705 -28.3599 27.722)" fill="#ECF4FF"/>
</g>
<path d="M1 17.2913C1 8.29287 8.29467 0.998199 17.2931 0.998199L29.5129 0.998199C38.5114 0.998199 45.806 8.29287 45.806 17.2913L45.806 45.8042L1 45.8042L1 17.2913Z" fill="#005EF6"/>
<path d="M21.8076 35.5206L12.0131 35.5206L12.0131 25.7162L15.9407 17.8609L20.8232 17.8609L16.9153 25.7162L21.8076 25.7162L21.8076 35.5206Z" fill="white"/>
<path d="M30.3003 35.163L22.0197 35.163L22.0197 25.4599L25.3403 17.6857L29.4681 17.6857L26.1642 25.4599L30.3003 25.4599L30.3003 35.163Z" fill="white"/>
</g>
<rect x="128.171" y="259" width="60.2845" height="4.88793" rx="2.44397" fill="#414244"/>
<rect x="208.007" y="259" width="60.2845" height="4.88793" rx="2.44397" fill="#D2D4D3"/>
<path d="M44.7693 65.0849C44.7693 64.512 44.5801 64.0781 44.2017 63.783C43.8233 63.4845 43.3113 63.3352 42.6656 63.3352C42.1934 63.3352 41.7682 63.4116 41.3898 63.5643C41.0114 63.7171 40.7024 63.9271 40.4629 64.1944C40.2233 64.4617 40.0758 64.7655 40.0202 65.1057C39.9751 65.3903 40.0046 65.6351 40.1088 65.8399C40.2129 66.0413 40.3605 66.2096 40.5514 66.345C40.7458 66.4769 40.9541 66.5863 41.1763 66.6731C41.3984 66.7564 41.6033 66.8241 41.7907 66.8762L42.8322 67.1678C43.0926 67.2407 43.3824 67.3414 43.7018 67.4698C44.0212 67.5982 44.3197 67.7736 44.5975 67.9957C44.8752 68.2144 45.087 68.4956 45.2328 68.8393C45.382 69.183 45.415 69.6048 45.3317 70.1047C45.2345 70.681 44.9967 71.2017 44.6183 71.6669C44.2434 72.1321 43.7469 72.5018 43.129 72.7761C42.5145 73.0503 41.7977 73.1874 40.9784 73.1874C40.2146 73.1874 39.5724 73.0642 39.0517 72.8177C38.5344 72.5712 38.1526 72.2276 37.9061 71.7867C37.6631 71.3458 37.5693 70.8337 37.6249 70.2505L38.9579 70.2505C38.9232 70.6532 39.0031 70.9865 39.1975 71.2503C39.3919 71.5107 39.6627 71.7051 40.0098 71.8335C40.357 71.9585 40.7423 72.021 41.1659 72.021C41.6588 72.021 42.1136 71.9411 42.5302 71.7815C42.9502 71.6183 43.2974 71.3926 43.5716 71.1045C43.8494 70.8129 44.0195 70.4727 44.0819 70.0839C44.1444 69.7298 44.0958 69.4416 43.9361 69.2195C43.7765 68.9973 43.5456 68.8168 43.2436 68.6779C42.9415 68.539 42.61 68.4175 42.249 68.3134L40.9992 67.9385C40.2077 67.6989 39.6054 67.357 39.1923 66.9126C38.7826 66.4683 38.6351 65.8868 38.7497 65.1682C38.8538 64.5711 39.1055 64.0503 39.5047 63.606C39.9039 63.1581 40.3986 62.811 40.9888 62.5645C41.579 62.3146 42.2143 62.1896 42.8947 62.1896C43.582 62.1896 44.1705 62.3146 44.66 62.5645C45.1494 62.811 45.514 63.1529 45.7535 63.5904C45.993 64.0243 46.0816 64.5225 46.0191 65.0849L44.7693 65.0849ZM49.966 73.1666C49.1988 73.1666 48.5652 72.9965 48.0653 72.6563C47.5654 72.3126 47.2165 71.8335 47.0187 71.2191C46.8208 70.6011 46.7895 69.8825 46.9249 69.0632C47.0603 68.244 47.3294 67.5219 47.7321 66.897C48.1348 66.2686 48.6364 65.7792 49.237 65.4285C49.8375 65.0744 50.4971 64.8974 51.2157 64.8974C51.6323 64.8974 52.0333 64.9668 52.4186 65.1057C52.804 65.2445 53.1372 65.4702 53.4184 65.7826C53.6996 66.0916 53.8958 66.5012 54.0069 67.0116C54.118 67.5219 54.111 68.1502 53.986 68.8966L53.9027 69.4173L47.7373 69.4173L47.9039 68.355L52.8196 68.355C52.8994 67.9037 52.8786 67.501 52.7571 67.1469C52.6391 66.7929 52.4325 66.5134 52.1374 66.3086C51.8458 66.1038 51.4761 66.0013 51.0283 66.0013C50.5666 66.0013 50.1361 66.1263 49.7369 66.3763C49.3376 66.6227 49.0044 66.9352 48.7371 67.3136C48.4698 67.6885 48.3031 68.0704 48.2372 68.4592L48.0914 69.3757C47.9872 70.0387 48.0028 70.5664 48.1382 70.9587C48.2771 71.351 48.5184 71.6339 48.862 71.8075C49.2057 71.9776 49.6362 72.0627 50.1535 72.0627C50.4833 72.0627 50.787 72.0175 51.0647 71.9273C51.3425 71.8335 51.5907 71.6947 51.8094 71.5107C52.0281 71.3232 52.2121 71.0906 52.3614 70.8129L53.4861 71.1462C53.2952 71.5489 53.0262 71.903 52.679 72.2085C52.3353 72.5105 51.9326 72.7465 51.4709 72.9167C51.0127 73.0833 50.511 73.1666 49.966 73.1666ZM57.0412 68.1884L56.2497 73L55.0208 73L56.3538 65.0015L57.5411 65.0015L57.3328 66.2513L57.437 66.2513C57.6869 65.8451 58.0254 65.5188 58.4524 65.2723C58.8794 65.0224 59.3949 64.8974 59.999 64.8974C60.5336 64.8974 60.9849 65.0085 61.3529 65.2307C61.7243 65.4494 61.9864 65.7826 62.1392 66.2305C62.2954 66.6748 62.318 67.2372 62.2069 67.9176L61.3529 73L60.1239 73L60.9571 68.0009C61.0613 67.3761 60.9797 66.8866 60.7124 66.5325C60.4485 66.1784 60.0302 66.0013 59.4574 66.0013C59.0616 66.0013 58.6954 66.0864 58.3587 66.2565C58.0254 66.4266 57.7425 66.6748 57.5099 67.0011C57.2807 67.3275 57.1245 67.7232 57.0412 68.1884ZM66.4324 73.1666C65.7624 73.1666 65.2 72.9982 64.7452 72.6615C64.2904 72.3213 63.9693 71.8422 63.7819 71.2243C63.5979 70.6029 63.5753 69.8686 63.7142 69.0216C63.8565 68.1815 64.1221 67.4524 64.5109 66.8345C64.9032 66.2166 65.384 65.7392 65.9533 65.4025C66.5226 65.0658 67.144 64.8974 67.8175 64.8974C68.3383 64.8974 68.7357 64.9842 69.01 65.1578C69.2877 65.3279 69.4891 65.5223 69.614 65.741C69.739 65.9562 69.8345 66.1333 69.9004 66.2721L70.0046 66.2721L70.6607 62.3354L71.8896 62.3354L70.1192 73L68.9319 73L69.1402 71.771L68.9944 71.771C68.8798 71.9168 68.7201 72.1008 68.5153 72.323C68.3105 72.5417 68.0397 72.7379 67.703 72.9114C67.3697 73.0816 66.9462 73.1666 66.4324 73.1666ZM66.7344 72.0627C67.2274 72.0627 67.6682 71.9342 68.0571 71.6773C68.4493 71.4169 68.7757 71.0576 69.036 70.5994C69.2964 70.1377 69.4769 69.6048 69.5776 69.0008C69.6783 68.4036 69.6748 67.8812 69.5672 67.4334C69.4596 66.9821 69.253 66.6314 68.9475 66.3815C68.642 66.1281 68.2376 66.0013 67.7342 66.0013C67.2169 66.0013 66.7674 66.135 66.3855 66.4023C66.0036 66.6661 65.6929 67.0254 65.4534 67.4802C65.2139 67.9315 65.0472 68.4384 64.9535 69.0008C64.8598 69.5701 64.858 70.0873 64.9483 70.5525C65.0386 71.0142 65.2295 71.3822 65.5211 71.6565C65.8162 71.9273 66.2206 72.0627 66.7344 72.0627ZM72.3542 73L73.6873 65.0015L74.9162 65.0015L73.5831 73L72.3542 73ZM74.6766 63.6476C74.4371 63.6476 74.2305 63.5661 74.057 63.4029C73.8869 63.2397 73.8018 63.0436 73.8018 62.8145C73.8018 62.5853 73.8869 62.3892 74.057 62.226C74.2305 62.0629 74.4371 61.9813 74.6766 61.9813C74.9162 61.9813 75.121 62.0629 75.2911 62.226C75.4647 62.3892 75.5515 62.5853 75.5515 62.8145C75.5515 63.0436 75.4647 63.2397 75.2911 63.4029C75.121 63.5661 74.9162 63.6476 74.6766 63.6476ZM77.6784 68.1884L76.8869 73L75.658 73L76.9911 65.0015L78.1783 65.0015L77.97 66.2513L78.0742 66.2513C78.3241 65.8451 78.6626 65.5188 79.0896 65.2723C79.5166 65.0224 80.0321 64.8974 80.6362 64.8974C81.1708 64.8974 81.6221 65.0085 81.9901 65.2307C82.3615 65.4494 82.6236 65.7826 82.7764 66.2305C82.9326 66.6748 82.9552 67.2372 82.8441 67.9176L81.9901 73L80.7612 73L81.5943 68.0009C81.6985 67.3761 81.6169 66.8866 81.3496 66.5325C81.0858 66.1784 80.6674 66.0013 80.0946 66.0013C79.6989 66.0013 79.3326 66.0864 78.9959 66.2565C78.6626 66.4266 78.3797 66.6748 78.1471 67.0011C77.918 67.3275 77.7618 67.7232 77.6784 68.1884ZM86.7884 76.166C86.1913 76.166 85.6914 76.0896 85.2887 75.9369C84.886 75.7876 84.5632 75.5897 84.3201 75.3433C84.0771 75.1003 83.8931 74.8399 83.7682 74.5622L84.8721 73.8748C84.9554 74.0206 85.0631 74.1872 85.195 74.3747C85.3269 74.5656 85.5265 74.7305 85.7938 74.8694C86.0646 75.0117 86.4447 75.0829 86.9342 75.0829C87.5765 75.0829 88.1388 74.9267 88.6214 74.6142C89.1039 74.3018 89.4025 73.8123 89.517 73.1458L89.767 71.5211L89.6628 71.5211C89.5518 71.6669 89.3973 71.8474 89.1994 72.0627C89.0015 72.2744 88.7359 72.4636 88.4027 72.6303C88.0694 72.7934 87.6424 72.875 87.1217 72.875C86.4725 72.875 85.9171 72.7222 85.4553 72.4168C84.9936 72.1113 84.6621 71.6669 84.4607 71.0837C84.2629 70.5005 84.2334 69.7923 84.3722 68.9591C84.5076 68.1398 84.768 67.4264 85.1533 66.8189C85.5421 66.2079 86.0212 65.7358 86.5905 65.4025C87.1599 65.0658 87.7813 64.8974 88.4548 64.8974C88.9755 64.8974 89.3747 64.9842 89.6524 65.1578C89.9336 65.3279 90.1384 65.5223 90.2669 65.741C90.3953 65.9562 90.4925 66.1333 90.5585 66.2721L90.6835 66.2721L90.8918 65.0015L92.079 65.0015L90.7251 73.2291C90.6106 73.9165 90.3624 74.4754 89.9805 74.9058C89.5986 75.3398 89.13 75.6574 88.5745 75.8588C88.0191 76.0636 87.4237 76.166 86.7884 76.166ZM87.4341 71.771C87.9236 71.771 88.3593 71.6582 88.7412 71.4326C89.1265 71.2069 89.4459 70.8823 89.6993 70.4588C89.9527 70.0353 90.128 69.5284 90.2252 68.9383C90.3224 68.362 90.3155 67.8534 90.2044 67.4125C90.0933 66.9716 89.8833 66.6262 89.5743 66.3763C89.2688 66.1263 88.8679 66.0013 88.3714 66.0013C87.8472 66.0013 87.3942 66.1333 87.0123 66.3971C86.6339 66.6609 86.3267 67.015 86.0906 67.4594C85.8546 67.9037 85.6914 68.3967 85.6011 68.9383C85.5109 69.4937 85.5144 69.9849 85.6116 70.4119C85.7088 70.8355 85.9066 71.1687 86.2052 71.4117C86.5072 71.6513 86.9169 71.771 87.4341 71.771ZM96.7678 73L98.1009 65.0015L99.2881 65.0015L99.0798 66.2513L99.184 66.2513C99.4235 65.8243 99.7481 65.4928 100.158 65.2567C100.571 65.0172 101.038 64.8974 101.559 64.8974C102.079 64.8974 102.498 65.0172 102.813 65.2567C103.129 65.4928 103.35 65.8243 103.475 66.2513L103.558 66.2513C103.829 65.8347 104.19 65.5049 104.641 65.2619C105.096 65.0189 105.61 64.8974 106.183 64.8974C106.891 64.8974 107.436 65.1213 107.818 65.5691C108.203 66.017 108.318 66.7095 108.161 67.6469L107.266 73L106.037 73L106.932 67.6469C107.026 67.0532 106.932 66.6314 106.651 66.3815C106.374 66.1281 106.016 66.0013 105.579 66.0013C105.016 66.0013 104.553 66.1697 104.188 66.5064C103.824 66.8432 103.6 67.2719 103.516 67.7927L102.642 73L101.392 73L102.308 67.5219C102.381 67.0636 102.294 66.6956 102.048 66.4179C101.802 66.1402 101.444 66.0013 100.975 66.0013C100.656 66.0013 100.343 66.0881 100.038 66.2617C99.7325 66.4318 99.4704 66.6679 99.2517 66.9699C99.033 67.2685 98.8924 67.6121 98.8299 68.0009L97.9967 73L96.7678 73ZM112.638 73.1666C111.902 73.1666 111.286 72.9913 110.79 72.6407C110.293 72.29 109.943 71.7988 109.738 71.167C109.536 70.5352 109.503 69.7992 109.639 68.9591C109.771 68.1398 110.033 67.4264 110.425 66.8189C110.821 66.2079 111.312 65.7358 111.899 65.4025C112.489 65.0658 113.138 64.8974 113.846 64.8974C114.582 64.8974 115.197 65.0744 115.69 65.4285C116.186 65.7792 116.537 66.2721 116.742 66.9074C116.946 67.5392 116.981 68.2787 116.846 69.1257C116.714 69.9381 116.448 70.648 116.049 71.2555C115.653 71.8596 115.162 72.33 114.575 72.6667C113.992 73 113.346 73.1666 112.638 73.1666ZM112.659 72.0627C113.221 72.0627 113.709 71.9186 114.122 71.6304C114.539 71.3423 114.876 70.9622 115.132 70.49C115.393 70.0179 115.568 69.5076 115.658 68.9591C115.742 68.4384 115.738 67.9541 115.648 67.5063C115.558 67.055 115.365 66.6922 115.07 66.4179C114.775 66.1402 114.36 66.0013 113.825 66.0013C113.263 66.0013 112.772 66.1471 112.352 66.4388C111.935 66.7304 111.598 67.114 111.342 67.5896C111.085 68.0652 110.913 68.5772 110.826 69.1257C110.743 69.6465 110.744 70.1307 110.831 70.5786C110.921 71.0229 111.114 71.3822 111.409 71.6565C111.708 71.9273 112.124 72.0627 112.659 72.0627ZM119.931 68.1884L119.139 73L117.91 73L119.243 65.0015L120.431 65.0015L120.222 66.2513L120.327 66.2513C120.576 65.8451 120.915 65.5188 121.342 65.2723C121.769 65.0224 122.284 64.8974 122.889 64.8974C123.423 64.8974 123.874 65.0085 124.242 65.2307C124.614 65.4494 124.876 65.7826 125.029 66.2305C125.185 66.6748 125.208 67.2372 125.096 67.9176L124.242 73L123.014 73L123.847 68.0009C123.951 67.3761 123.869 66.8866 123.602 66.5325C123.338 66.1784 122.92 66.0013 122.347 66.0013C121.951 66.0013 121.585 66.0864 121.248 66.2565C120.915 66.4266 120.632 66.6748 120.399 67.0011C120.17 67.3275 120.014 67.7232 119.931 68.1884ZM129.645 73.1666C128.878 73.1666 128.244 72.9965 127.744 72.6563C127.244 72.3126 126.895 71.8335 126.697 71.2191C126.5 70.6011 126.468 69.8825 126.604 69.0632C126.739 68.244 127.008 67.5219 127.411 66.897C127.814 66.2686 128.315 65.7792 128.916 65.4285C129.516 65.0744 130.176 64.8974 130.895 64.8974C131.311 64.8974 131.712 64.9668 132.097 65.1057C132.483 65.2445 132.816 65.4702 133.097 65.7826C133.378 66.0916 133.575 66.5012 133.686 67.0116C133.797 67.5219 133.79 68.1502 133.665 68.8966L133.582 69.4173L127.416 69.4173L127.583 68.355L132.498 68.355C132.578 67.9037 132.557 67.501 132.436 67.1469C132.318 66.7929 132.111 66.5134 131.816 66.3086C131.525 66.1038 131.155 66.0013 130.707 66.0013C130.245 66.0013 129.815 66.1263 129.416 66.3763C129.016 66.6227 128.683 66.9352 128.416 67.3136C128.149 67.6885 127.982 68.0704 127.916 68.4592L127.77 69.3757C127.666 70.0387 127.682 70.5664 127.817 70.9587C127.956 71.351 128.197 71.6339 128.541 71.8075C128.885 71.9776 129.315 72.0627 129.832 72.0627C130.162 72.0627 130.466 72.0175 130.744 71.9273C131.021 71.8335 131.269 71.6947 131.488 71.5107C131.707 71.3232 131.891 71.0906 132.04 70.8129L133.165 71.1462C132.974 71.5489 132.705 71.903 132.358 72.2085C132.014 72.5105 131.611 72.7465 131.15 72.9167C130.691 73.0833 130.19 73.1666 129.645 73.1666ZM134.758 75.9994C134.55 75.9994 134.366 75.982 134.206 75.9473C134.05 75.9161 133.942 75.8848 133.883 75.8536L134.383 74.7705C134.668 74.8468 134.921 74.8694 135.144 74.8382C135.369 74.8104 135.583 74.701 135.784 74.5101C135.989 74.3226 136.202 74.0275 136.425 73.6248L136.768 73L135.164 65.0015L136.445 65.0015L137.591 71.3961L137.674 71.3961L140.944 65.0015L142.33 65.0015L137.424 74.156C137.195 74.583 136.944 74.9319 136.669 75.2027C136.395 75.4734 136.098 75.6731 135.779 75.8015C135.459 75.9334 135.119 75.9994 134.758 75.9994ZM146.391 73L147.724 65.0015L148.953 65.0015L147.62 73L146.391 73ZM148.713 63.6476C148.474 63.6476 148.267 63.5661 148.094 63.4029C147.924 63.2397 147.839 63.0436 147.839 62.8145C147.839 62.5853 147.924 62.3892 148.094 62.226C148.267 62.0629 148.474 61.9813 148.713 61.9813C148.953 61.9813 149.158 62.0629 149.328 62.226C149.501 62.3892 149.588 62.5853 149.588 62.8145C149.588 63.0436 149.501 63.2397 149.328 63.4029C149.158 63.5661 148.953 63.6476 148.713 63.6476ZM156.402 66.7929L155.235 67.1053C155.194 66.9178 155.121 66.7373 155.017 66.5637C154.916 66.3867 154.76 66.2426 154.548 66.1315C154.34 66.017 154.055 65.9597 153.694 65.9597C153.204 65.9597 152.779 66.0725 152.418 66.2982C152.057 66.5203 151.851 66.8033 151.798 67.1469C151.746 67.449 151.816 67.6902 152.007 67.8708C152.198 68.0513 152.517 68.1988 152.965 68.3134L154.11 68.605C154.798 68.782 155.287 69.0476 155.579 69.4017C155.874 69.7523 155.975 70.2088 155.881 70.7712C155.805 71.2295 155.605 71.6391 155.282 72.0002C154.959 72.3612 154.546 72.6459 154.043 72.8542C153.539 73.0625 152.979 73.1666 152.361 73.1666C151.538 73.1666 150.889 72.9896 150.413 72.6355C149.938 72.2779 149.684 71.7606 149.653 71.0837L150.882 70.7921C150.913 71.2191 151.066 71.5419 151.34 71.7606C151.618 71.9759 152.007 72.0835 152.507 72.0835C153.079 72.0835 153.557 71.962 153.939 71.719C154.321 71.4725 154.537 71.1774 154.59 70.8337C154.642 70.5525 154.586 70.3182 154.423 70.1307C154.263 69.9433 153.986 69.8027 153.59 69.7089L152.319 69.3965C151.611 69.2195 151.115 68.9487 150.83 68.5842C150.549 68.2197 150.455 67.7614 150.549 67.2094C150.625 66.7581 150.819 66.3589 151.132 66.0118C151.448 65.6646 151.844 65.3921 152.319 65.1942C152.798 64.9963 153.319 64.8974 153.881 64.8974C154.673 64.8974 155.265 65.071 155.657 65.4181C156.049 65.7618 156.298 66.22 156.402 66.7929ZM169.002 65.0015L164.711 73L163.461 73L161.836 65.0015L163.117 65.0015L164.263 71.3753L164.346 71.3753L167.617 65.0015L169.002 65.0015ZM172.161 73.1666C171.394 73.1666 170.76 72.9965 170.26 72.6563C169.76 72.3126 169.412 71.8335 169.214 71.2191C169.016 70.6011 168.985 69.8825 169.12 69.0632C169.255 68.244 169.524 67.5219 169.927 66.897C170.33 66.2686 170.831 65.7792 171.432 65.4285C172.033 65.0744 172.692 64.8974 173.411 64.8974C173.827 64.8974 174.228 64.9668 174.614 65.1057C174.999 65.2445 175.332 65.4702 175.613 65.7826C175.895 66.0916 176.091 66.5012 176.202 67.0116C176.313 67.5219 176.306 68.1502 176.181 68.8966L176.098 69.4173L169.932 69.4173L170.099 68.355L175.015 68.355C175.094 67.9037 175.074 67.501 174.952 67.1469C174.834 66.7929 174.628 66.5134 174.332 66.3086C174.041 66.1038 173.671 66.0013 173.223 66.0013C172.762 66.0013 172.331 66.1263 171.932 66.3763C171.533 66.6227 171.199 66.9352 170.932 67.3136C170.665 67.6885 170.498 68.0704 170.432 68.4592L170.286 69.3757C170.182 70.0387 170.198 70.5664 170.333 70.9587C170.472 71.351 170.713 71.6339 171.057 71.8075C171.401 71.9776 171.831 72.0627 172.348 72.0627C172.678 72.0627 172.982 72.0175 173.26 71.9273C173.537 71.8335 173.786 71.6947 174.004 71.5107C174.223 71.3232 174.407 71.0906 174.556 70.8129L175.681 71.1462C175.49 71.5489 175.221 71.903 174.874 72.2085C174.53 72.5105 174.128 72.7465 173.666 72.9167C173.208 73.0833 172.706 73.1666 172.161 73.1666ZM177.216 73L178.549 65.0015L179.736 65.0015L179.528 66.2096L179.611 66.2096C179.819 65.8139 180.137 65.4928 180.564 65.2463C180.991 64.9998 181.444 64.8766 181.923 64.8766C182.017 64.8766 182.13 64.8783 182.262 64.8818C182.394 64.8818 182.496 64.887 182.569 64.8974L182.361 66.1471C182.319 66.1367 182.225 66.1211 182.079 66.1003C181.934 66.076 181.777 66.0638 181.611 66.0638C181.222 66.0638 180.863 66.1454 180.533 66.3086C180.203 66.4683 179.927 66.6904 179.705 66.9751C179.483 67.2563 179.34 67.5774 179.278 67.9385L178.445 73L177.216 73ZM183.07 75.9994C182.862 75.9994 182.678 75.982 182.518 75.9473C182.362 75.9161 182.254 75.8848 182.195 75.8536L182.695 74.7705C182.98 74.8468 183.233 74.8694 183.455 74.8382C183.681 74.8104 183.894 74.701 184.096 74.5101C184.301 74.3226 184.514 74.0275 184.736 73.6248L185.08 73L183.476 65.0015L184.757 65.0015L185.903 71.3961L185.986 71.3961L189.256 65.0015L190.641 65.0015L185.736 74.156C185.507 74.583 185.255 74.9319 184.981 75.2027C184.707 75.4734 184.41 75.6731 184.091 75.8015C183.771 75.9334 183.431 75.9994 183.07 75.9994ZM201.41 66.7929L200.243 67.1053C200.201 66.9178 200.129 66.7373 200.024 66.5637C199.924 66.3867 199.768 66.2426 199.556 66.1315C199.347 66.017 199.063 65.9597 198.702 65.9597C198.212 65.9597 197.787 66.0725 197.426 66.2982C197.065 66.5203 196.858 66.8033 196.806 67.1469C196.754 67.449 196.824 67.6902 197.015 67.8708C197.206 68.0513 197.525 68.1988 197.973 68.3134L199.118 68.605C199.806 68.782 200.295 69.0476 200.587 69.4017C200.882 69.7523 200.983 70.2088 200.889 70.7712C200.812 71.2295 200.613 71.6391 200.29 72.0002C199.967 72.3612 199.554 72.6459 199.051 72.8542C198.547 73.0625 197.987 73.1666 197.369 73.1666C196.546 73.1666 195.897 72.9896 195.421 72.6355C194.946 72.2779 194.692 71.7606 194.661 71.0837L195.89 70.7921C195.921 71.2191 196.074 71.5419 196.348 71.7606C196.626 71.9759 197.015 72.0835 197.515 72.0835C198.087 72.0835 198.565 71.962 198.947 71.719C199.328 71.4725 199.545 71.1774 199.597 70.8337C199.65 70.5525 199.594 70.3182 199.431 70.1307C199.271 69.9433 198.993 69.8027 198.598 69.7089L197.327 69.3965C196.619 69.2195 196.122 68.9487 195.838 68.5842C195.557 68.2197 195.463 67.7614 195.557 67.2094C195.633 66.7581 195.827 66.3589 196.14 66.0118C196.456 65.6646 196.851 65.3921 197.327 65.1942C197.806 64.9963 198.327 64.8974 198.889 64.8974C199.681 64.8974 200.273 65.071 200.665 65.4181C201.057 65.7618 201.305 66.22 201.41 66.7929ZM206.999 65.0015L206.833 66.043L202.688 66.043L202.854 65.0015L206.999 65.0015ZM204.375 63.0852L205.604 63.0852L204.333 70.7088C204.278 71.0559 204.286 71.3163 204.359 71.4898C204.436 71.66 204.55 71.7745 204.703 71.8335C204.859 71.8891 205.028 71.9168 205.208 71.9168C205.343 71.9168 205.455 71.9099 205.541 71.896C205.628 71.8787 205.698 71.8648 205.75 71.8544L205.833 72.9583C205.739 72.9896 205.613 73.0208 205.453 73.052C205.297 73.0868 205.104 73.1041 204.875 73.1041C204.528 73.1041 204.201 73.0295 203.896 72.8802C203.59 72.7309 203.356 72.5035 203.193 72.198C203.03 71.8925 202.986 71.5072 203.063 71.042L204.375 63.0852ZM207.339 73L208.672 65.0015L209.859 65.0015L209.651 66.2096L209.734 66.2096C209.943 65.8139 210.26 65.4928 210.687 65.2463C211.114 64.9998 211.567 64.8766 212.046 64.8766C212.14 64.8766 212.253 64.8783 212.385 64.8818C212.517 64.8818 212.619 64.887 212.692 64.8974L212.484 66.1471C212.442 66.1367 212.348 66.1211 212.203 66.1003C212.057 66.076 211.901 66.0638 211.734 66.0638C211.345 66.0638 210.986 66.1454 210.656 66.3086C210.326 66.4683 210.05 66.6904 209.828 66.9751C209.606 67.2563 209.464 67.5774 209.401 67.9385L208.568 73L207.339 73ZM214.98 73.1874C214.474 73.1874 214.029 73.092 213.647 72.901C213.266 72.7066 212.983 72.4272 212.799 72.0627C212.615 71.6947 212.564 71.2503 212.648 70.7296C212.727 70.2713 212.882 69.8999 213.111 69.6152C213.34 69.3271 213.618 69.1014 213.944 68.9383C214.274 68.7716 214.628 68.6484 215.007 68.5685C215.388 68.4852 215.769 68.421 216.147 68.3759C216.64 68.3134 217.041 68.2648 217.35 68.2301C217.659 68.1954 217.891 68.1381 218.048 68.0582C218.204 67.9784 218.299 67.8413 218.334 67.6469L218.334 67.6052C218.417 67.0949 218.35 66.6974 218.131 66.4127C217.912 66.1246 217.522 65.9805 216.959 65.9805C216.376 65.9805 215.888 66.109 215.496 66.3659C215.104 66.6227 214.814 66.897 214.626 67.1886L213.543 66.772C213.828 66.286 214.168 65.9076 214.564 65.6368C214.96 65.3626 215.375 65.1716 215.808 65.064C216.242 64.9529 216.661 64.8974 217.063 64.8974C217.32 64.8974 217.61 64.9286 217.933 64.9911C218.256 65.0501 218.558 65.1734 218.839 65.3608C219.124 65.5483 219.337 65.8312 219.48 66.2096C219.625 66.588 219.646 67.0949 219.542 67.7302L218.667 73L217.438 73L217.626 71.9168L217.563 71.9168C217.452 72.0904 217.282 72.2762 217.053 72.474C216.827 72.6719 216.541 72.8403 216.194 72.9791C215.85 73.118 215.446 73.1874 214.98 73.1874ZM215.335 72.0835C215.821 72.0835 216.246 71.988 216.61 71.7971C216.978 71.6061 217.273 71.3597 217.496 71.0576C217.721 70.7556 217.862 70.438 217.917 70.1047L218.105 68.9799C218.042 69.0424 217.919 69.0997 217.735 69.1518C217.551 69.2004 217.343 69.2438 217.11 69.2819C216.881 69.3167 216.657 69.3479 216.439 69.3757C216.223 69.4 216.05 69.4208 215.918 69.4382C215.591 69.4798 215.281 69.5475 214.986 69.6413C214.694 69.7315 214.448 69.8686 214.246 70.0526C214.048 70.2332 213.925 70.4796 213.877 70.7921C213.804 71.2191 213.906 71.5419 214.184 71.7606C214.462 71.9759 214.845 72.0835 215.335 72.0835ZM220.734 73L222.067 65.0015L223.296 65.0015L221.963 73L220.734 73ZM223.057 63.6476C222.817 63.6476 222.611 63.5661 222.437 63.4029C222.267 63.2397 222.182 63.0436 222.182 62.8145C222.182 62.5853 222.267 62.3892 222.437 62.226C222.611 62.0629 222.817 61.9813 223.057 61.9813C223.296 61.9813 223.501 62.0629 223.671 62.226C223.845 62.3892 223.932 62.5853 223.932 62.8145C223.932 63.0436 223.845 63.2397 223.671 63.4029C223.501 63.5661 223.296 63.6476 223.057 63.6476ZM226.767 76.166C226.17 76.166 225.67 76.0896 225.267 75.9369C224.864 75.7876 224.542 75.5897 224.299 75.3433C224.056 75.1003 223.872 74.8399 223.747 74.5622L224.851 73.8748C224.934 74.0206 225.041 74.1872 225.173 74.3747C225.305 74.5656 225.505 74.7305 225.772 74.8694C226.043 75.0117 226.423 75.0829 226.913 75.0829C227.555 75.0829 228.117 74.9267 228.6 74.6142C229.082 74.3018 229.381 73.8123 229.495 73.1458L229.745 71.5211L229.641 71.5211C229.53 71.6669 229.376 71.8474 229.178 72.0627C228.98 72.2744 228.714 72.4636 228.381 72.6303C228.048 72.7934 227.621 72.875 227.1 72.875C226.451 72.875 225.895 72.7222 225.434 72.4168C224.972 72.1113 224.64 71.6669 224.439 71.0837C224.241 70.5005 224.212 69.7923 224.351 68.9591C224.486 68.1398 224.746 67.4264 225.132 66.8189C225.521 66.2079 226 65.7358 226.569 65.4025C227.138 65.0658 227.76 64.8974 228.433 64.8974C228.954 64.8974 229.353 64.9842 229.631 65.1578C229.912 65.3279 230.117 65.5223 230.245 65.741C230.374 65.9562 230.471 66.1333 230.537 66.2721L230.662 66.2721L230.87 65.0015L232.057 65.0015L230.704 73.2291C230.589 73.9165 230.341 74.4754 229.959 74.9058C229.577 75.3398 229.108 75.6574 228.553 75.8588C227.997 76.0636 227.402 76.166 226.767 76.166ZM227.413 71.771C227.902 71.771 228.338 71.6582 228.72 71.4326C229.105 71.2069 229.424 70.8823 229.678 70.4588C229.931 70.0353 230.106 69.5284 230.204 68.9383C230.301 68.362 230.294 67.8534 230.183 67.4125C230.072 66.9716 229.862 66.6262 229.553 66.3763C229.247 66.1263 228.846 66.0013 228.35 66.0013C227.826 66.0013 227.373 66.1333 226.991 66.3971C226.612 66.6609 226.305 67.015 226.069 67.4594C225.833 67.9037 225.67 68.3967 225.58 68.9383C225.489 69.4937 225.493 69.9849 225.59 70.4119C225.687 70.8355 225.885 71.1687 226.184 71.4117C226.486 71.6513 226.895 71.771 227.413 71.771ZM234.818 68.1884L234.027 73L232.798 73L234.131 65.0015L235.318 65.0015L235.11 66.2513L235.214 66.2513C235.464 65.8451 235.803 65.5188 236.23 65.2723C236.657 65.0224 237.172 64.8974 237.776 64.8974C238.311 64.8974 238.762 65.0085 239.13 65.2307C239.501 65.4494 239.764 65.7826 239.916 66.2305C240.073 66.6748 240.095 67.2372 239.984 67.9176L239.13 73L237.901 73L238.734 68.0009C238.838 67.3761 238.757 66.8866 238.49 66.5325C238.226 66.1784 237.807 66.0013 237.235 66.0013C236.839 66.0013 236.473 66.0864 236.136 66.2565C235.803 66.4266 235.52 66.6748 235.287 67.0011C235.058 67.3275 234.902 67.7232 234.818 68.1884ZM246.011 65.0015L245.845 66.043L241.7 66.043L241.866 65.0015L246.011 65.0015ZM243.387 63.0852L244.616 63.0852L243.345 70.7088C243.29 71.0559 243.298 71.3163 243.371 71.4898C243.448 71.66 243.562 71.7745 243.715 71.8335C243.871 71.8891 244.039 71.9168 244.22 71.9168C244.355 71.9168 244.466 71.9099 244.553 71.896C244.64 71.8787 244.709 71.8648 244.762 71.8544L244.845 72.9583C244.751 72.9896 244.624 73.0208 244.465 73.052C244.309 73.0868 244.116 73.1041 243.887 73.1041C243.54 73.1041 243.213 73.0295 242.908 72.8802C242.602 72.7309 242.368 72.5035 242.205 72.198C242.042 71.8925 241.998 71.5072 242.075 71.042L243.387 63.0852ZM255.194 65.0015L255.027 66.043L250.716 66.043L250.882 65.0015L255.194 65.0015ZM250.841 73L252.361 63.8976C252.431 63.4393 252.597 63.0575 252.861 62.752C253.128 62.4465 253.446 62.2174 253.814 62.0646C254.185 61.9119 254.562 61.8355 254.944 61.8355C255.246 61.8355 255.487 61.8598 255.668 61.9084C255.852 61.957 255.985 62.0021 256.069 62.0438L255.548 63.1061C255.486 63.0852 255.402 63.0592 255.298 63.028C255.197 62.9967 255.059 62.9811 254.882 62.9811C254.475 62.9811 254.166 63.0835 253.955 63.2883C253.743 63.4932 253.601 63.7934 253.528 64.1892L252.07 73L250.841 73ZM258.379 73.1666C257.643 73.1666 257.027 72.9913 256.531 72.6407C256.034 72.29 255.684 71.7988 255.479 71.167C255.277 70.5352 255.245 69.7992 255.38 68.9591C255.512 68.1398 255.774 67.4264 256.166 66.8189C256.562 66.2079 257.053 65.7358 257.64 65.4025C258.23 65.0658 258.879 64.8974 259.587 64.8974C260.323 64.8974 260.938 65.0744 261.431 65.4285C261.927 65.7792 262.278 66.2721 262.483 66.9074C262.687 67.5392 262.722 68.2787 262.587 69.1257C262.455 69.9381 262.189 70.648 261.79 71.2555C261.394 71.8596 260.903 72.33 260.316 72.6667C259.733 73 259.088 73.1666 258.379 73.1666ZM258.4 72.0627C258.963 72.0627 259.45 71.9186 259.863 71.6304C260.28 71.3423 260.617 70.9622 260.874 70.49C261.134 70.0179 261.309 69.5076 261.4 68.9591C261.483 68.4384 261.479 67.9541 261.389 67.5063C261.299 67.055 261.106 66.6922 260.811 66.4179C260.516 66.1402 260.101 66.0013 259.567 66.0013C259.004 66.0013 258.513 66.1471 258.093 66.4388C257.676 66.7304 257.34 67.114 257.083 67.5896C256.826 68.0652 256.654 68.5772 256.567 69.1257C256.484 69.6465 256.486 70.1307 256.572 70.5786C256.663 71.0229 256.855 71.3822 257.15 71.6565C257.449 71.9273 257.866 72.0627 258.4 72.0627ZM263.651 73L264.985 65.0015L266.172 65.0015L265.964 66.2096L266.047 66.2096C266.255 65.8139 266.573 65.4928 267 65.2463C267.427 64.9998 267.88 64.8766 268.359 64.8766C268.453 64.8766 268.565 64.8783 268.697 64.8818C268.829 64.8818 268.932 64.887 269.005 64.8974L268.796 66.1471C268.755 66.1367 268.661 66.1211 268.515 66.1003C268.369 66.076 268.213 66.0638 268.046 66.0638C267.658 66.0638 267.298 66.1454 266.969 66.3086C266.639 66.4683 266.363 66.6904 266.141 66.9751C265.918 67.2563 265.776 67.5774 265.714 67.9385L264.88 73L263.651 73ZM270.901 73L269.797 65.0015L271.089 65.0015L271.797 71.1253L271.88 71.1253L274.609 65.0015L275.921 65.0015L276.588 71.1045L276.671 71.1045L279.42 65.0015L280.712 65.0015L276.942 73L275.734 73L275.005 66.8553L274.88 66.8553L272.109 73L270.901 73ZM283.16 73.1874C282.653 73.1874 282.209 73.092 281.827 72.901C281.445 72.7066 281.162 72.4272 280.978 72.0627C280.794 71.6947 280.744 71.2503 280.827 70.7296C280.907 70.2713 281.062 69.8999 281.291 69.6152C281.52 69.3271 281.798 69.1014 282.124 68.9383C282.454 68.7716 282.808 68.6484 283.186 68.5685C283.568 68.4852 283.948 68.421 284.327 68.3759C284.82 68.3134 285.221 68.2648 285.53 68.2301C285.839 68.1954 286.071 68.1381 286.227 68.0582C286.384 67.9784 286.479 67.8413 286.514 67.6469L286.514 67.6052C286.597 67.0949 286.529 66.6974 286.311 66.4127C286.092 66.1246 285.701 65.9805 285.139 65.9805C284.556 65.9805 284.068 66.109 283.676 66.3659C283.284 66.6227 282.994 66.897 282.806 67.1886L281.723 66.772C282.008 66.286 282.348 65.9076 282.744 65.6368C283.139 65.3626 283.554 65.1716 283.988 65.064C284.422 64.9529 284.84 64.8974 285.243 64.8974C285.5 64.8974 285.79 64.9286 286.113 64.9911C286.436 65.0501 286.738 65.1734 287.019 65.3608C287.304 65.5483 287.517 65.8312 287.659 66.2096C287.805 66.588 287.826 67.0949 287.722 67.7302L286.847 73L285.618 73L285.806 71.9168L285.743 71.9168C285.632 72.0904 285.462 72.2762 285.233 72.474C285.007 72.6719 284.721 72.8403 284.374 72.9791C284.03 73.118 283.625 73.1874 283.16 73.1874ZM283.514 72.0835C284 72.0835 284.426 71.988 284.79 71.7971C285.158 71.6061 285.453 71.3597 285.675 71.0576C285.901 70.7556 286.042 70.438 286.097 70.1047L286.285 68.9799C286.222 69.0424 286.099 69.0997 285.915 69.1518C285.731 69.2004 285.523 69.2438 285.29 69.2819C285.061 69.3167 284.837 69.3479 284.618 69.3757C284.403 69.4 284.229 69.4208 284.098 69.4382C283.771 69.4798 283.461 69.5475 283.165 69.6413C282.874 69.7315 282.627 69.8686 282.426 70.0526C282.228 70.2332 282.105 70.4796 282.056 70.7921C281.983 71.2191 282.086 71.5419 282.364 71.7606C282.641 71.9759 283.025 72.0835 283.514 72.0835ZM288.914 73L290.247 65.0015L291.434 65.0015L291.226 66.2096L291.309 66.2096C291.518 65.8139 291.835 65.4928 292.262 65.2463C292.689 64.9998 293.142 64.8766 293.622 64.8766C293.715 64.8766 293.828 64.8783 293.96 64.8818C294.092 64.8818 294.194 64.887 294.267 64.8974L294.059 66.1471C294.017 66.1367 293.924 66.1211 293.778 66.1003C293.632 66.076 293.476 66.0638 293.309 66.0638C292.92 66.0638 292.561 66.1454 292.231 66.3086C291.901 66.4683 291.625 66.6904 291.403 66.9751C291.181 67.2563 291.039 67.5774 290.976 67.9385L290.143 73L288.914 73ZM296.989 73.1666C296.319 73.1666 295.757 72.9982 295.302 72.6615C294.847 72.3213 294.526 71.8422 294.339 71.2243C294.155 70.6029 294.132 69.8686 294.271 69.0216C294.413 68.1815 294.679 67.4524 295.068 66.8345C295.46 66.2166 295.941 65.7392 296.51 65.4025C297.079 65.0658 297.701 64.8974 298.374 64.8974C298.895 64.8974 299.292 64.9842 299.567 65.1578C299.844 65.3279 300.046 65.5223 300.171 65.741C300.296 65.9562 300.391 66.1333 300.457 66.2721L300.561 66.2721L301.217 62.3354L302.446 62.3354L300.676 73L299.489 73L299.697 71.771L299.551 71.771C299.437 71.9168 299.277 72.1008 299.072 72.323C298.867 72.5417 298.596 72.7379 298.26 72.9114C297.926 73.0816 297.503 73.1666 296.989 73.1666ZM297.291 72.0627C297.784 72.0627 298.225 71.9342 298.614 71.6773C299.006 71.4169 299.332 71.0576 299.593 70.5994C299.853 70.1377 300.034 69.6048 300.134 69.0008C300.235 68.4036 300.232 67.8812 300.124 67.4334C300.016 66.9821 299.81 66.6314 299.504 66.3815C299.199 66.1281 298.794 66.0013 298.291 66.0013C297.774 66.0013 297.324 66.135 296.942 66.4023C296.56 66.6661 296.25 67.0254 296.01 67.4802C295.771 67.9315 295.604 68.4384 295.51 69.0008C295.417 69.5701 295.415 70.0873 295.505 70.5525C295.595 71.0142 295.786 71.3822 296.078 71.6565C296.373 71.9273 296.777 72.0627 297.291 72.0627ZM303.952 73.0833C303.689 73.0833 303.468 72.993 303.291 72.8125C303.114 72.6285 303.022 72.4063 303.015 72.146C303.012 71.8856 303.104 71.6686 303.291 71.4951C303.479 71.318 303.699 71.2295 303.952 71.2295C304.209 71.2295 304.431 71.3197 304.619 71.5003C304.806 71.6808 304.897 71.896 304.89 72.146C304.886 72.3195 304.841 72.4775 304.754 72.6198C304.671 72.7622 304.558 72.875 304.416 72.9583C304.277 73.0416 304.123 73.0833 303.952 73.0833ZM40.6868 85.3354L38.9163 96L37.6249 96L39.3954 85.3354L40.6868 85.3354ZM46.9234 96L45.8194 88.0015L47.1109 88.0015L47.8191 94.1253L47.9024 94.1253L50.631 88.0015L51.9432 88.0015L52.6098 94.1045L52.6931 94.1045L55.4426 88.0015L56.734 88.0015L52.9639 96L51.7558 96L51.0268 89.8553L50.9018 89.8553L48.1315 96L46.9234 96ZM59.879 96.1666C59.143 96.1666 58.5268 95.9913 58.0304 95.6407C57.5339 95.29 57.1833 94.7988 56.9785 94.167C56.7772 93.5352 56.7442 92.7992 56.8796 91.9591C57.0115 91.1398 57.2736 90.4264 57.6659 89.8189C58.0616 89.2079 58.5528 88.7358 59.1395 88.4025C59.7297 88.0658 60.3789 87.8974 61.0871 87.8974C61.823 87.8974 62.4375 88.0744 62.9305 88.4285C63.4269 88.7792 63.7775 89.2721 63.9823 89.9074C64.1872 90.5392 64.2219 91.2787 64.0865 92.1257C63.9546 92.9381 63.689 93.648 63.2898 94.2555C62.894 94.8596 62.4028 95.33 61.8161 95.6667C61.2329 96 60.5872 96.1666 59.879 96.1666ZM59.8998 95.0627C60.4622 95.0627 60.9499 94.9186 61.3631 94.6304C61.7796 94.3423 62.1164 93.9622 62.3733 93.49C62.6336 93.0179 62.809 92.5076 62.8992 91.9591C62.9825 91.4384 62.9791 90.9541 62.8888 90.5063C62.7985 90.055 62.6059 89.6922 62.3108 89.4179C62.0157 89.1402 61.6009 89.0013 61.0662 89.0013C60.5039 89.0013 60.0126 89.1471 59.5926 89.4388C59.176 89.7304 58.8392 90.114 58.5824 90.5896C58.3255 91.0652 58.1536 91.5772 58.0668 92.1257C57.9835 92.6465 57.9852 93.1307 58.072 93.5786C58.1623 94.0229 58.355 94.3822 58.65 94.6565C58.9486 94.9273 59.3652 95.0627 59.8998 95.0627ZM70.7334 92.7298L71.5249 88.0015L72.7538 88.0015L71.4208 96L70.1918 96L70.421 94.6461L70.3376 94.6461C70.0877 95.0522 69.7388 95.3977 69.291 95.6823C68.8431 95.9635 68.3172 96.1041 67.7132 96.1041C67.2133 96.1041 66.7863 95.9948 66.4322 95.7761C66.0815 95.5539 65.8316 95.2206 65.6823 94.7763C65.5365 94.3284 65.5191 93.7643 65.6302 93.0839L66.4842 88.0015L67.7132 88.0015L66.88 93.0006C66.7863 93.5838 66.8748 94.049 67.1456 94.3961C67.4163 94.7433 67.8069 94.9168 68.3172 94.9168C68.6227 94.9168 68.9456 94.8387 69.2858 94.6825C69.6294 94.5263 69.9349 94.2868 70.2023 93.9639C70.473 93.6411 70.6501 93.2297 70.7334 92.7298ZM76.4951 85.3354L74.7246 96L73.4957 96L75.2661 85.3354L76.4951 85.3354ZM79.8093 96.1666C79.1393 96.1666 78.5769 95.9982 78.1221 95.6615C77.6674 95.3213 77.3463 94.8422 77.1588 94.2243C76.9748 93.6029 76.9522 92.8686 77.0911 92.0216C77.2334 91.1815 77.499 90.4524 77.8878 89.8345C78.2801 89.2166 78.7609 88.7392 79.3302 88.4025C79.8996 88.0658 80.521 87.8974 81.1945 87.8974C81.7152 87.8974 82.1127 87.9842 82.3869 88.1578C82.6647 88.3279 82.866 88.5223 82.991 88.741C83.116 88.9562 83.2114 89.1333 83.2774 89.2721L83.3815 89.2721L84.0376 85.3354L85.2666 85.3354L83.4961 96L82.3088 96L82.5171 94.771L82.3713 94.771C82.2567 94.9168 82.0971 95.1008 81.8922 95.323C81.6874 95.5417 81.4166 95.7379 81.0799 95.9114C80.7466 96.0816 80.3231 96.1666 79.8093 96.1666ZM80.1113 95.0627C80.6043 95.0627 81.0452 94.9342 81.434 94.6773C81.8263 94.4169 82.1526 94.0576 82.413 93.5994C82.6733 93.1377 82.8539 92.6048 82.9545 92.0008C83.0552 91.4036 83.0517 90.8812 82.9441 90.4334C82.8365 89.9821 82.6299 89.6314 82.3244 89.3815C82.0189 89.1281 81.6145 89.0013 81.1111 89.0013C80.5939 89.0013 80.1443 89.135 79.7624 89.4023C79.3806 89.6661 79.0699 90.0254 78.8303 90.4802C78.5908 90.9315 78.4242 91.4384 78.3304 92.0008C78.2367 92.5701 78.235 93.0873 78.3252 93.5525C78.4155 94.0142 78.6064 94.3822 78.898 94.6565C79.1931 94.9273 79.5975 95.0627 80.1113 95.0627ZM91.6998 91.1884L90.9083 96L89.6793 96L91.4498 85.3354L92.6787 85.3354L92.033 89.2513L92.1372 89.2513C92.3871 88.8347 92.7204 88.5049 93.137 88.2619C93.557 88.0189 94.0847 87.8974 94.72 87.8974C95.2616 87.8974 95.7181 88.0067 96.0895 88.2255C96.4645 88.4407 96.7283 88.7722 96.8811 89.22C97.0373 89.6644 97.0598 90.2303 96.9487 90.9176L96.0947 96L94.8658 96L95.699 91.0009C95.8031 90.3657 95.7181 89.8744 95.4438 89.5273C95.1731 89.1767 94.7513 89.0013 94.1785 89.0013C93.7758 89.0013 93.4008 89.0864 93.0537 89.2565C92.71 89.4266 92.4184 89.6748 92.1788 90.0011C91.9428 90.3275 91.7831 90.7232 91.6998 91.1884ZM98.167 96L99.5001 88.0015L100.729 88.0015L99.396 96L98.167 96ZM100.489 86.6476C100.25 86.6476 100.043 86.5661 99.8698 86.4029C99.6997 86.2397 99.6147 86.0436 99.6147 85.8145C99.6147 85.5853 99.6997 85.3892 99.8698 85.226C100.043 85.0629 100.25 84.9813 100.489 84.9813C100.729 84.9813 100.934 85.0629 101.104 85.226C101.278 85.3892 101.364 85.5853 101.364 85.8145C101.364 86.0436 101.278 86.2397 101.104 86.4029C100.934 86.5661 100.729 86.6476 100.489 86.6476ZM104.199 99.166C103.602 99.166 103.102 99.0896 102.7 98.9369C102.297 98.7876 101.974 98.5897 101.731 98.3433C101.488 98.1003 101.304 97.8399 101.179 97.5622L102.283 96.8748C102.367 97.0206 102.474 97.1872 102.606 97.3747C102.738 97.5656 102.938 97.7305 103.205 97.8694C103.476 98.0117 103.856 98.0829 104.345 98.0829C104.988 98.0829 105.55 97.9267 106.032 97.6142C106.515 97.3018 106.814 96.8123 106.928 96.1458L107.178 94.5211L107.074 94.5211C106.963 94.6669 106.808 94.8474 106.61 95.0627C106.413 95.2744 106.147 95.4636 105.814 95.6303C105.48 95.7934 105.053 95.875 104.533 95.875C103.884 95.875 103.328 95.7222 102.866 95.4168C102.405 95.1113 102.073 94.6669 101.872 94.0837C101.674 93.5005 101.644 92.7923 101.783 91.9591C101.919 91.1398 102.179 90.4264 102.564 89.8189C102.953 89.2079 103.432 88.7358 104.002 88.4025C104.571 88.0658 105.192 87.8974 105.866 87.8974C106.387 87.8974 106.786 87.9842 107.064 88.1578C107.345 88.3279 107.55 88.5223 107.678 88.741C107.806 88.9562 107.904 89.1333 107.97 89.2721L108.095 89.2721L108.303 88.0015L109.49 88.0015L108.136 96.2291C108.022 96.9165 107.773 97.4754 107.392 97.9058C107.01 98.3398 106.541 98.6574 105.986 98.8588C105.43 99.0636 104.835 99.166 104.199 99.166ZM104.845 94.771C105.335 94.771 105.77 94.6582 106.152 94.4326C106.538 94.2069 106.857 93.8823 107.11 93.4588C107.364 93.0353 107.539 92.5284 107.636 91.9383C107.734 91.362 107.727 90.8534 107.615 90.4125C107.504 89.9716 107.294 89.6262 106.985 89.3763C106.68 89.1263 106.279 89.0013 105.783 89.0013C105.258 89.0013 104.805 89.1333 104.423 89.3971C104.045 89.6609 103.738 90.015 103.502 90.4594C103.266 90.9037 103.102 91.3967 103.012 91.9383C102.922 92.4937 102.925 92.9849 103.023 93.4119C103.12 93.8355 103.318 94.1687 103.616 94.4117C103.918 94.6513 104.328 94.771 104.845 94.771ZM112.251 91.1884L111.46 96L110.231 96L112.001 85.3354L113.23 85.3354L112.584 89.2513L112.688 89.2513C112.938 88.8347 113.272 88.5049 113.688 88.2619C114.108 88.0189 114.636 87.8974 115.271 87.8974C115.813 87.8974 116.269 88.0067 116.641 88.2255C117.016 88.4407 117.28 88.7722 117.432 89.22C117.589 89.6644 117.611 90.2303 117.5 90.9176L116.646 96L115.417 96L116.25 91.0009C116.354 90.3657 116.269 89.8744 115.995 89.5273C115.724 89.1767 115.303 89.0013 114.73 89.0013C114.327 89.0013 113.952 89.0864 113.605 89.2565C113.261 89.4266 112.97 89.6748 112.73 90.0011C112.494 90.3275 112.334 90.7232 112.251 91.1884ZM121.718 85.3354L119.947 96L118.718 96L120.489 85.3354L121.718 85.3354ZM122.324 98.9994C122.116 98.9994 121.932 98.982 121.772 98.9473C121.616 98.9161 121.508 98.8848 121.449 98.8536L121.949 97.7705C122.234 97.8468 122.487 97.8694 122.71 97.8382C122.935 97.8104 123.149 97.701 123.35 97.5101C123.555 97.3226 123.768 97.0275 123.991 96.6248L124.334 96L122.73 88.0015L124.011 88.0015L125.157 94.3961L125.24 94.3961L128.51 88.0015L129.896 88.0015L124.99 97.156C124.761 97.583 124.51 97.9319 124.235 98.2027C123.961 98.4734 123.664 98.6731 123.345 98.8015C123.025 98.9334 122.685 98.9994 122.324 98.9994ZM133.957 96L135.29 88.0015L136.477 88.0015L136.269 89.2096L136.352 89.2096C136.561 88.8139 136.878 88.4928 137.305 88.2463C137.732 87.9998 138.185 87.8766 138.664 87.8766C138.758 87.8766 138.871 87.8783 139.003 87.8818C139.135 87.8818 139.237 87.887 139.31 87.8974L139.102 89.1471C139.06 89.1367 138.966 89.1211 138.821 89.1003C138.675 89.076 138.518 89.0638 138.352 89.0638C137.963 89.0638 137.604 89.1454 137.274 89.3086C136.944 89.4683 136.668 89.6904 136.446 89.9751C136.224 90.2563 136.081 90.5774 136.019 90.9385L135.186 96L133.957 96ZM142.355 96.1666C141.588 96.1666 140.954 95.9965 140.454 95.6563C139.954 95.3126 139.605 94.8335 139.407 94.2191C139.21 93.6011 139.178 92.8825 139.314 92.0632C139.449 91.244 139.718 90.5219 140.121 89.897C140.524 89.2686 141.025 88.7792 141.626 88.4285C142.226 88.0744 142.886 87.8974 143.605 87.8974C144.021 87.8974 144.422 87.9668 144.807 88.1057C145.193 88.2445 145.526 88.4702 145.807 88.7826C146.088 89.0916 146.285 89.5012 146.396 90.0116C146.507 90.5219 146.5 91.1502 146.375 91.8966L146.291 92.4173L140.126 92.4173L140.293 91.355L145.208 91.355C145.288 90.9037 145.267 90.501 145.146 90.1469C145.028 89.7929 144.821 89.5134 144.526 89.3086C144.235 89.1038 143.865 89.0013 143.417 89.0013C142.955 89.0013 142.525 89.1263 142.126 89.3763C141.726 89.6227 141.393 89.9352 141.126 90.3136C140.859 90.6885 140.692 91.0704 140.626 91.4592L140.48 92.3757C140.376 93.0387 140.392 93.5664 140.527 93.9587C140.666 94.351 140.907 94.6339 141.251 94.8075C141.594 94.9776 142.025 95.0627 142.542 95.0627C142.872 95.0627 143.176 95.0175 143.454 94.9273C143.731 94.8335 143.979 94.6947 144.198 94.5107C144.417 94.3232 144.601 94.0906 144.75 93.8129L145.875 94.1462C145.684 94.5489 145.415 94.903 145.068 95.2085C144.724 95.5105 144.321 95.7465 143.86 95.9167C143.401 96.0833 142.9 96.1666 142.355 96.1666ZM150.638 96.1666C149.885 96.1666 149.267 95.9896 148.784 95.6355C148.305 95.2814 147.972 94.7936 147.784 94.1722C147.597 93.5508 147.569 92.8409 147.701 92.0424C147.833 91.2301 148.1 90.5132 148.503 89.8918C148.906 89.2669 149.407 88.7792 150.008 88.4285C150.609 88.0744 151.27 87.8974 151.992 87.8974C152.554 87.8974 153.044 88.0015 153.46 88.2098C153.877 88.4181 154.198 88.7097 154.424 89.0847C154.649 89.4596 154.755 89.897 154.741 90.3969L153.513 90.3969C153.478 90.0324 153.322 89.7095 153.044 89.4283C152.77 89.1437 152.363 89.0013 151.825 89.0013C151.346 89.0013 150.905 89.1263 150.503 89.3763C150.1 89.6227 149.762 89.9716 149.487 90.4229C149.213 90.8708 149.027 91.3967 148.93 92.0008C148.826 92.6187 148.835 93.1568 148.956 93.615C149.078 94.0733 149.298 94.4291 149.617 94.6825C149.937 94.9359 150.34 95.0627 150.826 95.0627C151.145 95.0627 151.443 95.0071 151.721 94.896C151.999 94.7849 152.245 94.6252 152.461 94.4169C152.676 94.2087 152.846 93.9587 152.971 93.6671L154.2 93.6671C154.047 94.1392 153.802 94.5645 153.466 94.9429C153.129 95.3178 152.721 95.6164 152.242 95.8385C151.763 96.0572 151.228 96.1666 150.638 96.1666ZM158.726 96.1666C157.99 96.1666 157.374 95.9913 156.878 95.6407C156.381 95.29 156.03 94.7988 155.826 94.167C155.624 93.5352 155.591 92.7992 155.727 91.9591C155.859 91.1398 156.121 90.4264 156.513 89.8189C156.909 89.2079 157.4 88.7358 157.987 88.4025C158.577 88.0658 159.226 87.8974 159.934 87.8974C160.67 87.8974 161.285 88.0744 161.778 88.4285C162.274 88.7792 162.625 89.2721 162.829 89.9074C163.034 90.5392 163.069 91.2787 162.934 92.1257C162.802 92.9381 162.536 93.648 162.137 94.2555C161.741 94.8596 161.25 95.33 160.663 95.6667C160.08 96 159.434 96.1666 158.726 96.1666ZM158.747 95.0627C159.309 95.0627 159.797 94.9186 160.21 94.6304C160.627 94.3423 160.964 93.9622 161.22 93.49C161.481 93.0179 161.656 92.5076 161.746 91.9591C161.83 91.4384 161.826 90.9541 161.736 90.5063C161.646 90.055 161.453 89.6922 161.158 89.4179C160.863 89.1402 160.448 89.0013 159.913 89.0013C159.351 89.0013 158.86 89.1471 158.44 89.4388C158.023 89.7304 157.686 90.114 157.429 90.5896C157.173 91.0652 157.001 91.5772 156.914 92.1257C156.831 92.6465 156.832 93.1307 156.919 93.5786C157.009 94.0229 157.202 94.3822 157.497 94.6565C157.796 94.9273 158.212 95.0627 158.747 95.0627ZM163.998 96L165.331 88.0015L166.519 88.0015L166.31 89.2513L166.414 89.2513C166.654 88.8243 166.979 88.4928 167.388 88.2567C167.801 88.0172 168.268 87.8974 168.789 87.8974C169.31 87.8974 169.728 88.0172 170.044 88.2567C170.36 88.4928 170.58 88.8243 170.705 89.2513L170.789 89.2513C171.059 88.8347 171.42 88.5049 171.872 88.2619C172.327 88.0189 172.84 87.8974 173.413 87.8974C174.121 87.8974 174.666 88.1213 175.048 88.5691C175.434 89.017 175.548 89.7095 175.392 90.6469L174.496 96L173.267 96L174.163 90.6469C174.257 90.0532 174.163 89.6314 173.882 89.3815C173.604 89.1281 173.246 89.0013 172.809 89.0013C172.247 89.0013 171.783 89.1697 171.419 89.5064C171.054 89.8432 170.83 90.2719 170.747 90.7927L169.872 96L168.622 96L169.539 90.5219C169.612 90.0636 169.525 89.6956 169.279 89.4179C169.032 89.1402 168.674 89.0013 168.206 89.0013C167.886 89.0013 167.574 89.0881 167.268 89.2617C166.963 89.4318 166.701 89.6679 166.482 89.9699C166.263 90.2685 166.123 90.6121 166.06 91.0009L165.227 96L163.998 96ZM176.567 96L177.9 88.0015L179.088 88.0015L178.879 89.2513L178.983 89.2513C179.223 88.8243 179.548 88.4928 179.957 88.2567C180.37 88.0172 180.837 87.8974 181.358 87.8974C181.879 87.8974 182.297 88.0172 182.613 88.2567C182.929 88.4928 183.149 88.8243 183.274 89.2513L183.358 89.2513C183.628 88.8347 183.989 88.5049 184.441 88.2619C184.895 88.0189 185.409 87.8974 185.982 87.8974C186.69 87.8974 187.235 88.1213 187.617 88.5691C188.002 89.017 188.117 89.7095 187.961 90.6469L187.065 96L185.836 96L186.732 90.6469C186.826 90.0532 186.732 89.6314 186.451 89.3815C186.173 89.1281 185.815 89.0013 185.378 89.0013C184.816 89.0013 184.352 89.1697 183.988 89.5064C183.623 89.8432 183.399 90.2719 183.316 90.7927L182.441 96L181.191 96L182.108 90.5219C182.181 90.0636 182.094 89.6956 181.847 89.4179C181.601 89.1402 181.243 89.0013 180.775 89.0013C180.455 89.0013 180.143 89.0881 179.837 89.2617C179.532 89.4318 179.27 89.6679 179.051 89.9699C178.832 90.2685 178.692 90.6121 178.629 91.0009L177.796 96L176.567 96ZM192.469 96.1666C191.702 96.1666 191.068 95.9965 190.568 95.6563C190.068 95.3126 189.719 94.8335 189.522 94.2191C189.324 93.6011 189.292 92.8825 189.428 92.0632C189.563 91.244 189.832 90.5219 190.235 89.897C190.638 89.2686 191.139 88.7792 191.74 88.4285C192.34 88.0744 193 87.8974 193.719 87.8974C194.135 87.8974 194.536 87.9668 194.921 88.1057C195.307 88.2445 195.64 88.4702 195.921 88.7826C196.202 89.0916 196.399 89.5012 196.51 90.0116C196.621 90.5219 196.614 91.1502 196.489 91.8966L196.406 92.4173L190.24 92.4173L190.407 91.355L195.322 91.355C195.402 90.9037 195.381 90.501 195.26 90.1469C195.142 89.7929 194.935 89.5134 194.64 89.3086C194.349 89.1038 193.979 89.0013 193.531 89.0013C193.069 89.0013 192.639 89.1263 192.24 89.3763C191.84 89.6227 191.507 89.9352 191.24 90.3136C190.973 90.6885 190.806 91.0704 190.74 91.4592L190.594 92.3757C190.49 93.0387 190.506 93.5664 190.641 93.9587C190.78 94.351 191.021 94.6339 191.365 94.8075C191.709 94.9776 192.139 95.0627 192.656 95.0627C192.986 95.0627 193.29 95.0175 193.568 94.9273C193.845 94.8335 194.094 94.6947 194.312 94.5107C194.531 94.3232 194.715 94.0906 194.864 93.8129L195.989 94.1462C195.798 94.5489 195.529 94.903 195.182 95.2085C194.838 95.5105 194.435 95.7465 193.974 95.9167C193.516 96.0833 193.014 96.1666 192.469 96.1666ZM199.544 91.1884L198.753 96L197.524 96L198.857 88.0015L200.044 88.0015L199.836 89.2513L199.94 89.2513C200.19 88.8451 200.528 88.5188 200.955 88.2723C201.382 88.0224 201.898 87.8974 202.502 87.8974C203.036 87.8974 203.488 88.0085 203.856 88.2307C204.227 88.4494 204.489 88.7826 204.642 89.2305C204.798 89.6748 204.821 90.2372 204.71 90.9176L203.856 96L202.627 96L203.46 91.0009C203.564 90.3761 203.483 89.8866 203.215 89.5325C202.951 89.1784 202.533 89.0013 201.96 89.0013C201.565 89.0013 201.198 89.0864 200.862 89.2565C200.528 89.4266 200.245 89.6748 200.013 90.0011C199.784 90.3275 199.627 90.7232 199.544 91.1884ZM208.935 96.1666C208.265 96.1666 207.703 95.9982 207.248 95.6615C206.793 95.3213 206.472 94.8422 206.285 94.2243C206.101 93.6029 206.078 92.8686 206.217 92.0216C206.359 91.1815 206.625 90.4524 207.014 89.8345C207.406 89.2166 207.887 88.7392 208.456 88.4025C209.025 88.0658 209.647 87.8974 210.32 87.8974C210.841 87.8974 211.239 87.9842 211.513 88.1578C211.791 88.3279 211.992 88.5223 212.117 88.741C212.242 88.9562 212.337 89.1333 212.403 89.2721L212.507 89.2721L213.164 85.3354L214.392 85.3354L212.622 96L211.435 96L211.643 94.771L211.497 94.771C211.383 94.9168 211.223 95.1008 211.018 95.323C210.813 95.5417 210.543 95.7379 210.206 95.9114C209.873 96.0816 209.449 96.1666 208.935 96.1666ZM209.237 95.0627C209.73 95.0627 210.171 94.9342 210.56 94.6773C210.952 94.4169 211.279 94.0576 211.539 93.5994C211.799 93.1377 211.98 92.6048 212.08 92.0008C212.181 91.4036 212.178 90.8812 212.07 90.4334C211.962 89.9821 211.756 89.6314 211.45 89.3815C211.145 89.1281 210.74 89.0013 210.237 89.0013C209.72 89.0013 209.27 89.135 208.888 89.4023C208.506 89.6661 208.196 90.0254 207.956 90.4802C207.717 90.9315 207.55 91.4384 207.456 92.0008C207.363 92.5701 207.361 93.0873 207.451 93.5525C207.541 94.0142 207.732 94.3822 208.024 94.6565C208.319 94.9273 208.723 95.0627 209.237 95.0627ZM218.19 96.1666C217.423 96.1666 216.789 95.9965 216.289 95.6563C215.789 95.3126 215.44 94.8335 215.242 94.2191C215.044 93.6011 215.013 92.8825 215.149 92.0632C215.284 91.244 215.553 90.5219 215.956 89.897C216.358 89.2686 216.86 88.7792 217.461 88.4285C218.061 88.0744 218.721 87.8974 219.439 87.8974C219.856 87.8974 220.257 87.9668 220.642 88.1057C221.028 88.2445 221.361 88.4702 221.642 88.7826C221.923 89.0916 222.119 89.5012 222.231 90.0116C222.342 90.5219 222.335 91.1502 222.21 91.8966L222.126 92.4173L215.961 92.4173L216.128 91.355L221.043 91.355C221.123 90.9037 221.102 90.501 220.981 90.1469C220.863 89.7929 220.656 89.5134 220.361 89.3086C220.07 89.1038 219.7 89.0013 219.252 89.0013C218.79 89.0013 218.36 89.1263 217.961 89.3763C217.561 89.6227 217.228 89.9352 216.961 90.3136C216.693 90.6885 216.527 91.0704 216.461 91.4592L216.315 92.3757C216.211 93.0387 216.227 93.5664 216.362 93.9587C216.501 94.351 216.742 94.6339 217.086 94.8075C217.429 94.9776 217.86 95.0627 218.377 95.0627C218.707 95.0627 219.011 95.0175 219.288 94.9273C219.566 94.8335 219.814 94.6947 220.033 94.5107C220.252 94.3232 220.436 94.0906 220.585 93.8129L221.71 94.1462C221.519 94.5489 221.25 94.903 220.903 95.2085C220.559 95.5105 220.156 95.7465 219.695 95.9167C219.236 96.0833 218.735 96.1666 218.19 96.1666ZM226.254 96.1666C225.584 96.1666 225.022 95.9982 224.567 95.6615C224.112 95.3213 223.791 94.8422 223.604 94.2243C223.42 93.6029 223.397 92.8686 223.536 92.0216C223.678 91.1815 223.944 90.4524 224.333 89.8345C224.725 89.2166 225.206 88.7392 225.775 88.4025C226.345 88.0658 226.966 87.8974 227.639 87.8974C228.16 87.8974 228.558 87.9842 228.832 88.1578C229.11 88.3279 229.311 88.5223 229.436 88.741C229.561 88.9562 229.656 89.1333 229.722 89.2721L229.827 89.2721L230.483 85.3354L231.712 85.3354L229.941 96L228.754 96L228.962 94.771L228.816 94.771C228.702 94.9168 228.542 95.1008 228.337 95.323C228.132 95.5417 227.862 95.7379 227.525 95.9114C227.192 96.0816 226.768 96.1666 226.254 96.1666ZM226.556 95.0627C227.049 95.0627 227.49 94.9342 227.879 94.6773C228.271 94.4169 228.598 94.0576 228.858 93.5994C229.118 93.1377 229.299 92.6048 229.4 92.0008C229.5 91.4036 229.497 90.8812 229.389 90.4334C229.282 89.9821 229.075 89.6314 228.769 89.3815C228.464 89.1281 228.06 89.0013 227.556 89.0013C227.039 89.0013 226.589 89.135 226.207 89.4023C225.826 89.6661 225.515 90.0254 225.275 90.4802C225.036 90.9315 224.869 91.4384 224.775 92.0008C224.682 92.5701 224.68 93.0873 224.77 93.5525C224.861 94.0142 225.051 94.3822 225.343 94.6565C225.638 94.9273 226.043 95.0627 226.556 95.0627ZM37.6249 164L39.3954 153.335L45.7899 153.335L45.6025 154.481L40.4993 154.481L39.8953 158.084L44.5194 158.084L44.3319 159.23L39.7078 159.23L38.9163 164L37.6249 164ZM55.9284 158.751C55.7409 159.862 55.3816 160.822 54.8505 161.631C54.3193 162.436 53.6701 163.057 52.9029 163.495C52.1357 163.929 51.3043 164.146 50.4086 164.146C49.4852 164.146 48.6989 163.92 48.0497 163.469C47.404 163.014 46.9423 162.372 46.6646 161.542C46.3903 160.709 46.3469 159.723 46.5344 158.584C46.7218 157.473 47.0811 156.515 47.6123 155.71C48.1434 154.901 48.7943 154.28 49.565 153.846C50.3357 153.408 51.1724 153.19 52.075 153.19C52.9914 153.19 53.7708 153.417 54.413 153.872C55.0587 154.323 55.5187 154.965 55.793 155.798C56.0707 156.628 56.1158 157.612 55.9284 158.751ZM54.6994 158.584C54.8522 157.675 54.8296 156.909 54.6317 156.288C54.4339 155.667 54.1058 155.196 53.6476 154.877C53.1893 154.557 52.6443 154.398 52.0125 154.398C51.3529 154.398 50.728 154.566 50.1378 154.903C49.5477 155.236 49.0426 155.727 48.6225 156.376C48.2024 157.022 47.916 157.814 47.7633 158.751C47.6105 159.661 47.6331 160.426 47.831 161.047C48.0289 161.669 48.3569 162.139 48.8152 162.459C49.2734 162.778 49.8185 162.938 50.4503 162.938C51.1099 162.938 51.7347 162.771 52.3249 162.438C52.9151 162.101 53.4202 161.61 53.8402 160.964C54.2603 160.315 54.5467 159.522 54.6994 158.584ZM65.8181 153.335L67.1095 153.335L65.9431 160.397C65.8216 161.126 65.5421 161.776 65.1047 162.349C64.6673 162.919 64.1101 163.368 63.4332 163.698C62.7562 164.024 61.9994 164.187 61.1628 164.187C60.3262 164.187 59.6249 164.024 59.059 163.698C58.4932 163.368 58.087 162.919 57.8405 162.349C57.5941 161.776 57.5316 161.126 57.6531 160.397L58.8195 153.335L60.1109 153.335L58.9549 160.292C58.8716 160.813 58.9115 161.277 59.0747 161.683C59.2378 162.085 59.5121 162.403 59.8974 162.636C60.2862 162.865 60.7775 162.979 61.3711 162.979C61.9647 162.979 62.4941 162.865 62.9593 162.636C63.4245 162.403 63.8029 162.085 64.0945 161.683C64.3896 161.277 64.5788 160.813 64.6621 160.292L65.8181 153.335ZM77.9692 153.335L76.1987 164L74.9489 164L70.5331 155.627L70.429 155.627L69.0334 164L67.742 164L69.5125 153.335L70.7623 153.335L75.1989 161.73L75.303 161.73L76.6986 153.335L77.9692 153.335ZM81.9395 164L78.6069 164L80.3773 153.335L83.7725 153.335C84.807 153.335 85.6593 153.552 86.3293 153.986C87.0028 154.42 87.4714 155.04 87.7353 155.845C88.0026 156.651 88.0425 157.612 87.855 158.73C87.6745 159.827 87.3239 160.77 86.8032 161.558C86.2859 162.342 85.6159 162.946 84.7931 163.37C83.9739 163.79 83.0227 164 81.9395 164ZM80.0909 162.854L81.9812 162.854C82.863 162.854 83.6232 162.681 84.262 162.334C84.9042 161.986 85.4215 161.492 85.8138 160.85C86.2095 160.207 86.4803 159.445 86.6261 158.564C86.7719 157.716 86.758 156.989 86.5845 156.382C86.4144 155.771 86.0794 155.302 85.5794 154.976C85.083 154.646 84.4182 154.481 83.585 154.481L81.4761 154.481L80.0909 162.854ZM88.9705 164L90.741 153.335L97.1772 153.335L96.9898 154.481L91.8449 154.481L91.2409 158.084L96.0524 158.084L95.865 159.23L91.0534 159.23L90.4494 162.854L95.6775 162.854L95.49 164L88.9705 164ZM97.5584 164L99.3289 153.335L102.932 153.335C103.766 153.335 104.425 153.476 104.911 153.757C105.401 154.038 105.732 154.425 105.906 154.918C106.083 155.411 106.119 155.974 106.015 156.606C105.911 157.23 105.689 157.786 105.349 158.272C105.012 158.758 104.554 159.14 103.974 159.418C103.398 159.695 102.696 159.834 101.87 159.834L98.954 159.834L99.1623 158.668L102.037 158.668C102.606 158.668 103.078 158.584 103.453 158.418C103.828 158.251 104.12 158.013 104.328 157.704C104.536 157.395 104.675 157.029 104.745 156.606C104.814 156.175 104.795 155.802 104.687 155.486C104.583 155.167 104.37 154.92 104.047 154.747C103.727 154.57 103.28 154.481 102.703 154.481L100.433 154.481L98.8499 164L97.5584 164ZM103.37 159.209L105.203 164L103.703 164L101.912 159.209L103.37 159.209ZM108.678 162.542L108.491 163.104C108.366 163.5 108.206 163.924 108.012 164.375C107.817 164.826 107.625 165.251 107.434 165.651C107.243 166.05 107.088 166.368 106.97 166.604L106.033 166.604C106.109 166.381 106.214 166.088 106.346 165.724C106.477 165.359 106.618 164.953 106.767 164.505C106.917 164.057 107.054 163.597 107.179 163.125L107.345 162.542L108.678 162.542ZM123.143 156.668C123.091 156.317 123 156.003 122.872 155.726C122.747 155.444 122.58 155.207 122.372 155.012C122.164 154.814 121.912 154.663 121.617 154.559C121.325 154.451 120.987 154.398 120.601 154.398C119.97 154.398 119.359 154.561 118.768 154.887C118.182 155.213 117.673 155.694 117.243 156.33C116.816 156.965 116.526 157.744 116.373 158.668C116.22 159.591 116.236 160.37 116.42 161.006C116.607 161.641 116.929 162.122 117.383 162.448C117.842 162.775 118.4 162.938 119.06 162.938C119.671 162.938 120.24 162.807 120.768 162.547C121.296 162.283 121.738 161.912 122.096 161.433C122.454 160.95 122.684 160.383 122.789 159.73L123.163 159.813L119.956 159.813L120.164 158.668L124.226 158.668L124.017 159.813C123.879 160.695 123.57 161.461 123.091 162.11C122.611 162.759 122.014 163.261 121.299 163.615C120.584 163.969 119.803 164.146 118.956 164.146C118.012 164.146 117.22 163.924 116.581 163.479C115.943 163.035 115.493 162.403 115.233 161.584C114.972 160.764 114.936 159.792 115.123 158.668C115.259 157.824 115.495 157.066 115.832 156.392C116.172 155.715 116.588 155.139 117.081 154.663C117.578 154.188 118.131 153.823 118.742 153.57C119.357 153.316 120.004 153.19 120.685 153.19C121.247 153.19 121.757 153.275 122.216 153.445C122.677 153.611 123.075 153.849 123.408 154.158C123.741 154.464 124 154.83 124.184 155.257C124.368 155.68 124.465 156.151 124.476 156.668L123.143 156.668ZM128.199 153.335L126.428 164L125.199 164L126.97 153.335L128.199 153.335ZM131.805 164.167C131.069 164.167 130.452 163.991 129.956 163.641C129.46 163.29 129.109 162.799 128.904 162.167C128.703 161.535 128.67 160.799 128.805 159.959C128.937 159.14 129.199 158.426 129.591 157.819C129.987 157.208 130.478 156.736 131.065 156.402C131.655 156.066 132.304 155.897 133.013 155.897C133.749 155.897 134.363 156.074 134.856 156.429C135.352 156.779 135.703 157.272 135.908 157.907C136.113 158.539 136.147 159.279 136.012 160.126C135.88 160.938 135.615 161.648 135.215 162.256C134.82 162.86 134.328 163.33 133.742 163.667C133.158 164 132.513 164.167 131.805 164.167ZM131.825 163.063C132.388 163.063 132.876 162.919 133.289 162.63C133.705 162.342 134.042 161.962 134.299 161.49C134.559 161.018 134.735 160.508 134.825 159.959C134.908 159.438 134.905 158.954 134.814 158.506C134.724 158.055 134.531 157.692 134.236 157.418C133.941 157.14 133.526 157.001 132.992 157.001C132.429 157.001 131.938 157.147 131.518 157.439C131.102 157.73 130.765 158.114 130.508 158.59C130.251 159.065 130.079 159.577 129.992 160.126C129.909 160.646 129.911 161.131 129.998 161.579C130.088 162.023 130.281 162.382 130.576 162.656C130.874 162.927 131.291 163.063 131.825 163.063ZM140.378 164.167C139.642 164.167 139.026 163.991 138.53 163.641C138.033 163.29 137.683 162.799 137.478 162.167C137.276 161.535 137.243 160.799 137.379 159.959C137.511 159.14 137.773 158.426 138.165 157.819C138.561 157.208 139.052 156.736 139.639 156.402C140.229 156.066 140.878 155.897 141.586 155.897C142.322 155.897 142.937 156.074 143.43 156.429C143.926 156.779 144.277 157.272 144.482 157.907C144.686 158.539 144.721 159.279 144.586 160.126C144.454 160.938 144.188 161.648 143.789 162.256C143.393 162.86 142.902 163.33 142.315 163.667C141.732 164 141.086 164.167 140.378 164.167ZM140.399 163.063C140.961 163.063 141.449 162.919 141.862 162.63C142.279 162.342 142.616 161.962 142.872 161.49C143.133 161.018 143.308 160.508 143.398 159.959C143.482 159.438 143.478 158.954 143.388 158.506C143.298 158.055 143.105 157.692 142.81 157.418C142.515 157.14 142.1 157.001 141.565 157.001C141.003 157.001 140.512 157.147 140.092 157.439C139.675 157.73 139.338 158.114 139.082 158.59C138.825 159.065 138.653 159.577 138.566 160.126C138.483 160.646 138.484 161.131 138.571 161.579C138.661 162.023 138.854 162.382 139.149 162.656C139.448 162.927 139.864 163.063 140.399 163.063ZM153.237 156.002L148.947 164L147.697 164L146.072 156.002L147.353 156.002L148.499 162.375L148.582 162.375L151.852 156.002L153.237 156.002ZM156.365 164.167C155.63 164.167 155.013 163.991 154.517 163.641C154.02 163.29 153.67 162.799 153.465 162.167C153.264 161.535 153.231 160.799 153.366 159.959C153.498 159.14 153.76 158.426 154.152 157.819C154.548 157.208 155.039 156.736 155.626 156.402C156.216 156.066 156.865 155.897 157.574 155.897C158.31 155.897 158.924 156.074 159.417 156.429C159.913 156.779 160.264 157.272 160.469 157.907C160.674 158.539 160.708 159.279 160.573 160.126C160.441 160.938 160.175 161.648 159.776 162.256C159.381 162.86 158.889 163.33 158.303 163.667C157.719 164 157.074 164.167 156.365 164.167ZM156.386 163.063C156.949 163.063 157.436 162.919 157.85 162.63C158.266 162.342 158.603 161.962 158.86 161.49C159.12 161.018 159.295 160.508 159.386 159.959C159.469 159.438 159.466 158.954 159.375 158.506C159.285 158.055 159.092 157.692 158.797 157.418C158.502 157.14 158.087 157.001 157.553 157.001C156.99 157.001 156.499 157.147 156.079 157.439C155.662 157.73 155.326 158.114 155.069 158.59C154.812 159.065 154.64 159.577 154.553 160.126C154.47 160.646 154.472 161.131 154.559 161.579C154.649 162.023 154.841 162.382 155.137 162.656C155.435 162.927 155.852 163.063 156.386 163.063ZM172.293 157.793L171.126 158.105C171.085 157.918 171.012 157.737 170.908 157.564C170.807 157.387 170.651 157.243 170.439 157.132C170.231 157.017 169.946 156.96 169.585 156.96C169.096 156.96 168.67 157.073 168.309 157.298C167.948 157.52 167.742 157.803 167.69 158.147C167.638 158.449 167.707 158.69 167.898 158.871C168.089 159.051 168.408 159.199 168.856 159.313L170.002 159.605C170.689 159.782 171.179 160.048 171.47 160.402C171.765 160.752 171.866 161.209 171.772 161.771C171.696 162.229 171.496 162.639 171.173 163C170.85 163.361 170.437 163.646 169.934 163.854C169.431 164.062 168.87 164.167 168.252 164.167C167.429 164.167 166.78 163.99 166.304 163.635C165.829 163.278 165.575 162.761 165.544 162.084L166.773 161.792C166.804 162.219 166.957 162.542 167.231 162.761C167.509 162.976 167.898 163.083 168.398 163.083C168.971 163.083 169.448 162.962 169.83 162.719C170.212 162.472 170.429 162.177 170.481 161.834C170.533 161.553 170.477 161.318 170.314 161.131C170.154 160.943 169.877 160.803 169.481 160.709L168.21 160.397C167.502 160.219 167.006 159.949 166.721 159.584C166.44 159.22 166.346 158.761 166.44 158.209C166.516 157.758 166.711 157.359 167.023 157.012C167.339 156.665 167.735 156.392 168.21 156.194C168.689 155.996 169.21 155.897 169.773 155.897C170.564 155.897 171.156 156.071 171.548 156.418C171.941 156.762 172.189 157.22 172.293 157.793ZM177.883 156.002L177.716 157.043L173.571 157.043L173.738 156.002L177.883 156.002ZM175.258 154.085L176.487 154.085L175.217 161.709C175.161 162.056 175.17 162.316 175.243 162.49C175.319 162.66 175.434 162.775 175.586 162.834C175.743 162.889 175.911 162.917 176.091 162.917C176.227 162.917 176.338 162.91 176.425 162.896C176.511 162.879 176.581 162.865 176.633 162.854L176.716 163.958C176.623 163.99 176.496 164.021 176.336 164.052C176.18 164.087 175.987 164.104 175.758 164.104C175.411 164.104 175.085 164.029 174.779 163.88C174.474 163.731 174.239 163.504 174.076 163.198C173.913 162.893 173.87 162.507 173.946 162.042L175.258 154.085ZM181.438 164.167C180.702 164.167 180.086 163.991 179.589 163.641C179.093 163.29 178.742 162.799 178.537 162.167C178.336 161.535 178.303 160.799 178.438 159.959C178.57 159.14 178.832 158.426 179.225 157.819C179.62 157.208 180.112 156.736 180.698 156.402C181.289 156.066 181.938 155.897 182.646 155.897C183.382 155.897 183.996 156.074 184.489 156.429C184.986 156.779 185.336 157.272 185.541 157.907C185.746 158.539 185.781 159.279 185.645 160.126C185.513 160.938 185.248 161.648 184.849 162.256C184.453 162.86 183.962 163.33 183.375 163.667C182.792 164 182.146 164.167 181.438 164.167ZM181.459 163.063C182.021 163.063 182.509 162.919 182.922 162.63C183.338 162.342 183.675 161.962 183.932 161.49C184.192 161.018 184.368 160.508 184.458 159.959C184.541 159.438 184.538 158.954 184.448 158.506C184.357 158.055 184.165 157.692 183.87 157.418C183.575 157.14 183.16 157.001 182.625 157.001C182.063 157.001 181.571 157.147 181.151 157.439C180.735 157.73 180.398 158.114 180.141 158.59C179.884 159.065 179.712 159.577 179.626 160.126C179.542 160.646 179.544 161.131 179.631 161.579C179.721 162.023 179.914 162.382 180.209 162.656C180.507 162.927 180.924 163.063 181.459 163.063ZM186.71 164L188.043 156.002L189.23 156.002L189.022 157.21L189.105 157.21C189.314 156.814 189.631 156.493 190.058 156.246C190.485 156 190.938 155.877 191.417 155.877C191.511 155.877 191.624 155.878 191.756 155.882C191.888 155.882 191.99 155.887 192.063 155.897L191.855 157.147C191.813 157.137 191.719 157.121 191.574 157.1C191.428 157.076 191.272 157.064 191.105 157.064C190.716 157.064 190.357 157.145 190.027 157.309C189.697 157.468 189.421 157.69 189.199 157.975C188.977 158.256 188.835 158.577 188.772 158.938L187.939 164L186.71 164ZM195.108 164.167C194.341 164.167 193.707 163.996 193.207 163.656C192.707 163.313 192.358 162.834 192.161 162.219C191.963 161.601 191.931 160.883 192.067 160.063C192.202 159.244 192.471 158.522 192.874 157.897C193.277 157.269 193.778 156.779 194.379 156.429C194.979 156.074 195.639 155.897 196.358 155.897C196.774 155.897 197.175 155.967 197.561 156.106C197.946 156.245 198.279 156.47 198.56 156.783C198.842 157.092 199.038 157.501 199.149 158.012C199.26 158.522 199.253 159.15 199.128 159.897L199.045 160.417L192.879 160.417L193.046 159.355L197.961 159.355C198.041 158.904 198.021 158.501 197.899 158.147C197.781 157.793 197.574 157.513 197.279 157.309C196.988 157.104 196.618 157.001 196.17 157.001C195.708 157.001 195.278 157.126 194.879 157.376C194.48 157.623 194.146 157.935 193.879 158.314C193.612 158.689 193.445 159.07 193.379 159.459L193.233 160.376C193.129 161.039 193.145 161.566 193.28 161.959C193.419 162.351 193.66 162.634 194.004 162.807C194.348 162.978 194.778 163.063 195.295 163.063C195.625 163.063 195.929 163.018 196.207 162.927C196.484 162.834 196.733 162.695 196.951 162.511C197.17 162.323 197.354 162.091 197.503 161.813L198.628 162.146C198.437 162.549 198.168 162.903 197.821 163.208C197.477 163.51 197.075 163.747 196.613 163.917C196.155 164.083 195.653 164.167 195.108 164.167ZM206.87 157.793L205.703 158.105C205.662 157.918 205.589 157.737 205.485 157.564C205.384 157.387 205.228 157.243 205.016 157.132C204.808 157.017 204.523 156.96 204.162 156.96C203.672 156.96 203.247 157.073 202.886 157.298C202.525 157.52 202.318 157.803 202.266 158.147C202.214 158.449 202.284 158.69 202.475 158.871C202.666 159.051 202.985 159.199 203.433 159.313L204.578 159.605C205.266 159.782 205.755 160.048 206.047 160.402C206.342 160.752 206.443 161.209 206.349 161.771C206.273 162.229 206.073 162.639 205.75 163C205.427 163.361 205.014 163.646 204.511 163.854C204.007 164.062 203.447 164.167 202.829 164.167C202.006 164.167 201.357 163.99 200.881 163.635C200.406 163.278 200.152 162.761 200.121 162.084L201.35 161.792C201.381 162.219 201.534 162.542 201.808 162.761C202.086 162.976 202.475 163.083 202.975 163.083C203.547 163.083 204.025 162.962 204.407 162.719C204.788 162.472 205.005 162.177 205.058 161.834C205.11 161.553 205.054 161.318 204.891 161.131C204.731 160.943 204.453 160.803 204.058 160.709L202.787 160.397C202.079 160.219 201.583 159.949 201.298 159.584C201.017 159.22 200.923 158.761 201.017 158.209C201.093 157.758 201.287 157.359 201.6 157.012C201.916 156.665 202.312 156.392 202.787 156.194C203.266 155.996 203.787 155.897 204.349 155.897C205.141 155.897 205.733 156.071 206.125 156.418C206.517 156.762 206.766 157.22 206.87 157.793Z" fill="#83879B"/>
<path d="M47.4979 135.751C47.3105 136.862 46.9512 137.822 46.42 138.631C45.8889 139.436 45.2397 140.057 44.4725 140.495C43.7053 140.929 42.8738 141.146 41.9782 141.146C41.0548 141.146 40.2685 140.92 39.6193 140.469C38.9736 140.014 38.5119 139.372 38.2341 138.542C37.9599 137.709 37.9165 136.723 38.104 135.584C38.2914 134.473 38.6507 133.515 39.1819 132.71C39.713 131.901 40.3639 131.28 41.1346 130.846C41.9053 130.408 42.7419 130.19 43.6445 130.19C44.561 130.19 45.3404 130.417 45.9826 130.872C46.6283 131.323 47.0883 131.965 47.3626 132.798C47.6403 133.628 47.6854 134.612 47.4979 135.751ZM46.269 135.584C46.4218 134.675 46.3992 133.909 46.2013 133.288C46.0034 132.667 45.6754 132.196 45.2171 131.877C44.7589 131.557 44.2139 131.398 43.582 131.398C42.9225 131.398 42.2976 131.566 41.7074 131.903C41.1172 132.236 40.6121 132.727 40.1921 133.376C39.772 134.022 39.4856 134.814 39.3329 135.751C39.1801 136.661 39.2027 137.426 39.4006 138.047C39.5984 138.669 39.9265 139.139 40.3848 139.459C40.843 139.778 41.388 139.938 42.0199 139.938C42.6794 139.938 43.3043 139.771 43.8945 139.438C44.4846 139.101 44.9898 138.61 45.4098 137.964C45.8299 137.315 46.1163 136.522 46.269 135.584ZM55.3349 134.793L54.1685 135.105C54.1269 134.918 54.054 134.737 53.9498 134.564C53.8491 134.387 53.6929 134.243 53.4811 134.132C53.2729 134.017 52.9882 133.96 52.6271 133.96C52.1377 133.96 51.7124 134.073 51.3514 134.298C50.9903 134.52 50.7838 134.803 50.7317 135.147C50.6796 135.449 50.749 135.69 50.94 135.871C51.1309 136.051 51.4503 136.199 51.8981 136.313L53.0437 136.605C53.7311 136.782 54.2206 137.048 54.5122 137.402C54.8073 137.752 54.9079 138.209 54.8142 138.771C54.7378 139.229 54.5382 139.639 54.2154 140C53.8925 140.361 53.4794 140.646 52.976 140.854C52.4727 141.062 51.912 141.167 51.2941 141.167C50.4713 141.167 49.8221 140.99 49.3465 140.635C48.8709 140.278 48.6175 139.761 48.5863 139.084L49.8152 138.792C49.8464 139.219 49.9992 139.542 50.2734 139.761C50.5512 139.976 50.94 140.083 51.4399 140.083C52.0127 140.083 52.49 139.962 52.8719 139.719C53.2538 139.472 53.4707 139.177 53.5228 138.834C53.5749 138.553 53.5193 138.318 53.3562 138.131C53.1965 137.943 52.9188 137.803 52.523 137.709L51.2524 137.397C50.5442 137.219 50.0478 136.949 49.7631 136.584C49.4819 136.22 49.3882 135.761 49.4819 135.209C49.5583 134.758 49.7527 134.359 50.0651 134.012C50.3811 133.665 50.7768 133.392 51.2524 133.194C51.7315 132.996 52.2522 132.897 52.8146 132.897C53.6061 132.897 54.198 133.071 54.5903 133.418C54.9826 133.762 55.2308 134.22 55.3349 134.793ZM59.5177 141.167C58.7644 141.167 58.1465 140.99 57.6639 140.635C57.1848 140.281 56.8516 139.794 56.6641 139.172C56.4767 138.551 56.4489 137.841 56.5808 137.042C56.7127 136.23 56.98 135.513 57.3827 134.892C57.7854 134.267 58.2871 133.779 58.8876 133.429C59.4882 133.074 60.1495 132.897 60.8716 132.897C61.434 132.897 61.9235 133.002 62.3401 133.21C62.7567 133.418 63.0778 133.71 63.3034 134.085C63.5291 134.46 63.635 134.897 63.6211 135.397L62.3922 135.397C62.3574 135.032 62.2012 134.71 61.9235 134.428C61.6493 134.144 61.2431 134.001 60.705 134.001C60.2259 134.001 59.785 134.126 59.3823 134.376C58.9796 134.623 58.6412 134.972 58.3669 135.423C58.0927 135.871 57.9069 136.397 57.8097 137.001C57.7056 137.619 57.7143 138.157 57.8358 138.615C57.9573 139.073 58.1777 139.429 58.4971 139.683C58.8165 139.936 59.2192 140.063 59.7052 140.063C60.0246 140.063 60.3231 140.007 60.6008 139.896C60.8786 139.785 61.125 139.625 61.3403 139.417C61.5555 139.209 61.7256 138.959 61.8506 138.667L63.0795 138.667C62.9268 139.139 62.682 139.564 62.3453 139.943C62.0086 140.318 61.6006 140.616 61.1216 140.839C60.6425 141.057 60.1079 141.167 59.5177 141.167ZM66.8132 141.187C66.3063 141.187 65.862 141.092 65.4801 140.901C65.0982 140.707 64.8153 140.427 64.6313 140.063C64.4473 139.695 64.397 139.25 64.4803 138.73C64.5601 138.271 64.7146 137.9 64.9437 137.615C65.1729 137.327 65.4506 137.101 65.7769 136.938C66.1067 136.772 66.4608 136.648 66.8392 136.569C67.2211 136.485 67.6012 136.421 67.9796 136.376C68.4726 136.313 68.8735 136.265 69.1825 136.23C69.4915 136.195 69.7241 136.138 69.8803 136.058C70.0365 135.978 70.132 135.841 70.1667 135.647L70.1667 135.605C70.25 135.095 70.1823 134.697 69.9636 134.413C69.7449 134.125 69.3543 133.981 68.7919 133.981C68.2087 133.981 67.721 134.109 67.3287 134.366C66.9364 134.623 66.6465 134.897 66.4591 135.189L65.376 134.772C65.6606 134.286 66.0008 133.908 66.3966 133.637C66.7923 133.363 67.2072 133.172 67.6411 133.064C68.0751 132.953 68.4934 132.897 68.8961 132.897C69.153 132.897 69.4429 132.929 69.7657 132.991C70.0886 133.05 70.3906 133.173 70.6718 133.361C70.9565 133.548 71.17 133.831 71.3123 134.21C71.4581 134.588 71.4789 135.095 71.3748 135.73L70.4999 141L69.271 141L69.4585 139.917L69.396 139.917C69.2849 140.09 69.1148 140.276 68.8857 140.474C68.66 140.672 68.3736 140.84 68.0265 140.979C67.6828 141.118 67.2784 141.187 66.8132 141.187ZM67.1673 140.083C67.6533 140.083 68.0785 139.988 68.4431 139.797C68.811 139.606 69.1061 139.36 69.3283 139.058C69.554 138.756 69.6945 138.438 69.7501 138.105L69.9376 136.98C69.8751 137.042 69.7518 137.1 69.5678 137.152C69.3838 137.2 69.1756 137.244 68.943 137.282C68.7138 137.317 68.4899 137.348 68.2712 137.376C68.056 137.4 67.8824 137.421 67.7505 137.438C67.4242 137.48 67.1135 137.548 66.8184 137.641C66.5268 137.732 66.2803 137.869 66.0789 138.053C65.8811 138.233 65.7578 138.48 65.7092 138.792C65.6363 139.219 65.7387 139.542 66.0164 139.761C66.2942 139.976 66.6778 140.083 67.1673 140.083ZM72.743 141L74.0761 133.002L75.2633 133.002L75.055 134.21L75.1384 134.21C75.3467 133.814 75.6643 133.493 76.0913 133.246C76.5183 133 76.9713 132.877 77.4504 132.877C77.5441 132.877 77.657 132.878 77.7889 132.882C77.9208 132.882 78.0232 132.887 78.0961 132.897L77.8878 134.147C77.8462 134.137 77.7524 134.121 77.6066 134.1C77.4608 134.076 77.3046 134.064 77.138 134.064C76.7492 134.064 76.3899 134.145 76.0601 134.309C75.7303 134.468 75.4543 134.69 75.2321 134.975C75.0099 135.256 74.8676 135.577 74.8051 135.938L73.9719 141L72.743 141ZM82.5184 141L84.2889 130.335L87.8924 130.335C88.7255 130.335 89.3834 130.485 89.8659 130.783C90.352 131.082 90.68 131.486 90.8501 131.997C91.0237 132.507 91.0584 133.078 90.9543 133.71C90.8501 134.335 90.6262 134.904 90.2825 135.418C89.9423 135.932 89.4806 136.341 88.8974 136.647C88.3176 136.952 87.6146 137.105 86.7884 137.105L84.2056 137.105L84.3931 135.959L86.9342 135.959C87.5036 135.959 87.9792 135.86 88.361 135.662C88.7429 135.465 89.0415 135.196 89.2567 134.855C89.4719 134.515 89.6143 134.133 89.6837 133.71C89.7531 133.279 89.7358 132.897 89.6316 132.564C89.5309 132.227 89.3209 131.964 89.0015 131.773C88.6856 131.578 88.2395 131.481 87.6632 131.481L85.3929 131.481L83.8098 141L82.5184 141ZM91.6455 141L92.9786 133.002L94.2075 133.002L92.8745 141L91.6455 141ZM93.968 131.648C93.7285 131.648 93.5219 131.566 93.3483 131.403C93.1782 131.24 93.0932 131.044 93.0932 130.814C93.0932 130.585 93.1782 130.389 93.3483 130.226C93.5219 130.063 93.7285 129.981 93.968 129.981C94.2075 129.981 94.4124 130.063 94.5825 130.226C94.756 130.389 94.8428 130.585 94.8428 130.814C94.8428 131.044 94.756 131.24 94.5825 131.403C94.4124 131.566 94.2075 131.648 93.968 131.648ZM98.458 141.167C97.6908 141.167 97.0572 140.996 96.5573 140.656C96.0574 140.313 95.7085 139.834 95.5107 139.219C95.3128 138.601 95.2815 137.883 95.4169 137.063C95.5523 136.244 95.8214 135.522 96.2241 134.897C96.6268 134.269 97.1284 133.779 97.729 133.429C98.3296 133.074 98.9892 132.897 99.7078 132.897C100.124 132.897 100.525 132.967 100.911 133.106C101.296 133.245 101.629 133.47 101.91 133.783C102.192 134.092 102.388 134.501 102.499 135.012C102.61 135.522 102.603 136.15 102.478 136.897L102.395 137.417L96.2293 137.417L96.3959 136.355L101.312 136.355C101.391 135.904 101.371 135.501 101.249 135.147C101.131 134.793 100.925 134.513 100.629 134.309C100.338 134.104 99.9681 134.001 99.5203 134.001C99.0586 134.001 98.6281 134.126 98.2289 134.376C97.8297 134.623 97.4964 134.935 97.2291 135.314C96.9618 135.689 96.7951 136.07 96.7292 136.459L96.5834 137.376C96.4792 138.039 96.4949 138.566 96.6302 138.959C96.7691 139.351 97.0104 139.634 97.3541 139.807C97.6977 139.978 98.1282 140.063 98.6455 140.063C98.9753 140.063 99.279 140.018 99.5568 139.927C99.8345 139.834 100.083 139.695 100.301 139.511C100.52 139.323 100.704 139.091 100.853 138.813L101.978 139.146C101.787 139.549 101.518 139.903 101.171 140.208C100.827 140.51 100.425 140.747 99.9629 140.917C99.5047 141.083 99.003 141.167 98.458 141.167ZM103.689 141L105.022 133.002L106.209 133.002L106.001 134.21L106.084 134.21C106.292 133.814 106.61 133.493 107.037 133.246C107.464 133 107.917 132.877 108.396 132.877C108.49 132.877 108.603 132.878 108.735 132.882C108.867 132.882 108.969 132.887 109.042 132.897L108.834 134.147C108.792 134.137 108.698 134.121 108.552 134.1C108.407 134.076 108.25 134.064 108.084 134.064C107.695 134.064 107.336 134.145 107.006 134.309C106.676 134.468 106.4 134.69 106.178 134.975C105.956 135.256 105.813 135.577 105.751 135.938L104.918 141L103.689 141ZM109.173 141L110.506 133.002L111.694 133.002L111.485 134.21L111.569 134.21C111.777 133.814 112.095 133.493 112.522 133.246C112.949 133 113.402 132.877 113.881 132.877C113.974 132.877 114.087 132.878 114.219 132.882C114.351 132.882 114.454 132.887 114.526 132.897L114.318 134.147C114.277 134.137 114.183 134.121 114.037 134.1C113.891 134.076 113.735 134.064 113.568 134.064C113.18 134.064 112.82 134.145 112.49 134.309C112.161 134.468 111.885 134.69 111.662 134.975C111.44 135.256 111.298 135.577 111.235 135.938L110.402 141L109.173 141ZM117.747 141.167C116.98 141.167 116.346 140.996 115.847 140.656C115.347 140.313 114.998 139.834 114.8 139.219C114.602 138.601 114.571 137.883 114.706 137.063C114.842 136.244 115.111 135.522 115.513 134.897C115.916 134.269 116.418 133.779 117.018 133.429C117.619 133.074 118.278 132.897 118.997 132.897C119.414 132.897 119.815 132.967 120.2 133.106C120.585 133.245 120.918 133.47 121.2 133.783C121.481 134.092 121.677 134.501 121.788 135.012C121.899 135.522 121.892 136.15 121.767 136.897L121.684 137.417L115.518 137.417L115.685 136.355L120.601 136.355C120.681 135.904 120.66 135.501 120.538 135.147C120.42 134.793 120.214 134.513 119.919 134.309C119.627 134.104 119.257 134.001 118.809 134.001C118.348 134.001 117.917 134.126 117.518 134.376C117.119 134.623 116.786 134.935 116.518 135.314C116.251 135.689 116.084 136.07 116.018 136.459L115.873 137.376C115.768 138.039 115.784 138.566 115.919 138.959C116.058 139.351 116.3 139.634 116.643 139.807C116.987 139.978 117.417 140.063 117.935 140.063C118.264 140.063 118.568 140.018 118.846 139.927C119.124 139.834 119.372 139.695 119.591 139.511C119.809 139.323 119.993 139.091 120.143 138.813L121.267 139.146C121.076 139.549 120.807 139.903 120.46 140.208C120.117 140.51 119.714 140.747 119.252 140.917C118.794 141.083 118.292 141.167 117.747 141.167Z" fill="black"/>
<defs>
<filter id="filter0_d_1_1422" x="0.185345" y="0.185345" width="321.202" height="239.47" filterUnits="userSpaceOnUse" color-interpolation-filters="sRGB">
<feFlood flood-opacity="0" result="BackgroundImageFix"/>
<feColorMatrix in="SourceAlpha" type="matrix" values="0 0 0 0 0 0 0 0 0 0 0 0 0 0 0 0 0 0 127 0" result="hardAlpha"/>
<feOffset/>
<feGaussianBlur stdDeviation="0.407328"/>
<feComposite in2="hardAlpha" operator="out"/>
<feColorMatrix type="matrix" values="0 0 0 0 0 0 0 0 0 0 0 0 0 0 0 0 0 0 0.25 0"/>
<feBlend mode="normal" in2="BackgroundImageFix" result="effect1_dropShadow_1_1422"/>
<feBlend mode="normal" in="SourceGraphic" in2="effect1_dropShadow_1_1422" result="shape"/>
</filter>
<clipPath id="clip0_1_1422">
<rect width="319.572" height="237.841" fill="white" transform="translate(1 1)"/>
</clipPath>
<clipPath id="clip1_1_1422">
<rect width="362.522" height="224.03" fill="white" transform="translate(16.478 17.2917)"/>
</clipPath>
</defs>
</svg>
