<svg width="20" height="20" viewBox="0 0 20 20" fill="none" xmlns="http://www.w3.org/2000/svg">
<path d="M16.6921 6.68669L11.6895 2.30336C11.231 1.8934 10.6373 1.66675 10.022 1.66675C9.40676 1.66675 8.81308 1.8934 8.35449 2.30336L3.35191 6.68669C3.08708 6.92342 2.87575 7.21382 2.73198 7.53856C2.58822 7.8633 2.51532 8.21493 2.51815 8.57003V15.8534C2.51815 16.5164 2.78167 17.1523 3.25076 17.6211C3.71984 18.09 4.35605 18.3534 5.01944 18.3534H15.0246C15.688 18.3534 16.3242 18.09 16.7933 17.6211C17.2624 17.1523 17.5259 16.5164 17.5259 15.8534V8.56169C17.5275 8.20799 17.4541 7.85798 17.3103 7.53476C17.1666 7.21154 16.9559 6.92249 16.6921 6.68669ZM11.6895 16.6867H8.35449V12.52C8.35449 12.299 8.44233 12.0871 8.59869 11.9308C8.75506 11.7745 8.96713 11.6867 9.18825 11.6867H10.8558C11.0769 11.6867 11.289 11.7745 11.4453 11.9308C11.6017 12.0871 11.6895 12.299 11.6895 12.52V16.6867ZM15.8584 15.8534C15.8584 16.0744 15.7705 16.2863 15.6142 16.4426C15.4578 16.5989 15.2457 16.6867 15.0246 16.6867H13.3571V12.52C13.3571 11.857 13.0935 11.2211 12.6245 10.7523C12.1554 10.2834 11.5192 10.02 10.8558 10.02H9.18825C8.52487 10.02 7.88866 10.2834 7.41957 10.7523C6.95049 11.2211 6.68696 11.857 6.68696 12.52V16.6867H5.01944C4.79831 16.6867 4.58624 16.5989 4.42988 16.4426C4.27352 16.2863 4.18567 16.0744 4.18567 15.8534V8.56169C4.18582 8.44337 4.21118 8.32644 4.26006 8.21867C4.30894 8.11091 4.38022 8.01478 4.46915 7.93669L9.47173 3.56169C9.62389 3.42809 9.81949 3.35441 10.022 3.35441C10.2245 3.35441 10.4201 3.42809 10.5723 3.56169L15.5749 7.93669C15.6638 8.01478 15.7351 8.11091 15.784 8.21867C15.8329 8.32644 15.8582 8.44337 15.8584 8.56169V15.8534Z" fill="#83879B"/>
</svg>
