<svg width="41" height="20" viewBox="0 0 41 20" fill="none" xmlns="http://www.w3.org/2000/svg">
<g clip-path="url(#clip0_1_3704)">
<path d="M12.5363 3.81592L11.4287 4.92354C11.3157 5.03646 11.1331 5.03646 11.0202 4.92354L8.35329 2.2566C8.24036 2.14368 8.24036 1.96108 8.35329 1.84815L9.46091 0.740535C9.9102 0.291241 10.6406 0.291241 11.0923 0.740535L12.5363 2.18452C12.988 2.63382 12.988 3.36422 12.5363 3.81592ZM7.40184 2.7996L1.0925 9.10894L0.583138 12.0282C0.513461 12.4222 0.857039 12.7634 1.25107 12.6961L4.17028 12.1843L10.4796 5.87499C10.5926 5.76206 10.5926 5.57946 10.4796 5.46654L7.81269 2.7996C7.69737 2.68668 7.51476 2.68668 7.40184 2.7996ZM3.55521 8.56835C3.42306 8.4362 3.42306 8.22477 3.55521 8.09263L7.25528 4.39255C7.38742 4.26041 7.59886 4.26041 7.731 4.39255C7.86315 4.5247 7.86315 4.73613 7.731 4.86828L4.03093 8.56835C3.89879 8.70049 3.68735 8.70049 3.55521 8.56835ZM2.68785 10.589H3.84112V11.4611L2.29142 11.7326L1.5442 10.9854L1.81569 9.4357H2.68785V10.589Z" fill="#0177FD"/>
</g>
<path d="M17.9858 13.6638V4.71725H23.3852V5.6783H19.0692V8.70127H23.1057V9.66232H19.0692V12.7028H23.4551V13.6638H17.9858ZM27.7318 13.8036C27.1727 13.8036 26.679 13.6624 26.2509 13.3799C25.8228 13.0945 25.4879 12.6926 25.2462 12.1742C25.0045 11.6529 24.8836 11.0369 24.8836 10.3263C24.8836 9.62155 25.0045 9.00997 25.2462 8.49158C25.4879 7.97319 25.8243 7.57275 26.2553 7.29026C26.6863 7.00777 27.1843 6.86652 27.7493 6.86652C28.1862 6.86652 28.5313 6.93933 28.7846 7.08494C29.0409 7.22765 29.236 7.39073 29.37 7.57421C29.5069 7.75477 29.6132 7.9033 29.6889 8.01979H29.7763V4.71725H30.8072V13.6638H29.8112V12.6329H29.6889C29.6132 12.7552 29.5054 12.9095 29.3656 13.0959C29.2258 13.2794 29.0264 13.4439 28.7672 13.5896C28.508 13.7323 28.1629 13.8036 27.7318 13.8036ZM27.8716 12.8775C28.2852 12.8775 28.6346 12.7697 28.9201 12.5542C29.2055 12.3358 29.4224 12.0344 29.571 11.65C29.7195 11.2626 29.7937 10.8156 29.7937 10.3089C29.7937 9.80794 29.7209 9.36964 29.5753 8.99395C29.4297 8.61535 29.2142 8.32121 28.9288 8.11153C28.6434 7.89893 28.291 7.79263 27.8716 7.79263C27.4348 7.79263 27.0707 7.90475 26.7795 8.129C26.4912 8.35034 26.2742 8.65176 26.1286 9.03327C25.9859 9.41187 25.9146 9.83706 25.9146 10.3089C25.9146 10.7865 25.9874 11.2204 26.133 11.6106C26.2815 11.998 26.4999 12.3067 26.7883 12.5368C27.0795 12.7639 27.4406 12.8775 27.8716 12.8775ZM32.8385 13.6638V6.95389H33.8695V13.6638H32.8385ZM33.3628 5.83557C33.1618 5.83557 32.9885 5.76713 32.8429 5.63025C32.7002 5.49337 32.6289 5.32883 32.6289 5.13662C32.6289 4.94441 32.7002 4.77986 32.8429 4.64298C32.9885 4.50611 33.1618 4.43767 33.3628 4.43767C33.5637 4.43767 33.7355 4.50611 33.8782 4.64298C34.0239 4.77986 34.0967 4.94441 34.0967 5.13662C34.0967 5.32883 34.0239 5.49337 33.8782 5.63025C33.7355 5.76713 33.5637 5.83557 33.3628 5.83557ZM38.6759 6.95389V7.82758H35.1986V6.95389H38.6759ZM36.2121 5.3463H37.243V11.7417C37.243 12.0329 37.2853 12.2514 37.3697 12.397C37.4571 12.5397 37.5677 12.6358 37.7017 12.6853C37.8386 12.7319 37.9828 12.7552 38.1342 12.7552C38.2478 12.7552 38.341 12.7494 38.4138 12.7377C38.4866 12.7231 38.5448 12.7115 38.5885 12.7028L38.7982 13.6289C38.7283 13.6551 38.6307 13.6813 38.5055 13.7075C38.3803 13.7366 38.2216 13.7512 38.0293 13.7512C37.7381 13.7512 37.4527 13.6886 37.1731 13.5633C36.8965 13.4381 36.6664 13.2474 36.4829 12.9911C36.3024 12.7348 36.2121 12.4115 36.2121 12.0213V5.3463Z" fill="#0177FD"/>
<defs>
<clipPath id="clip0_1_3704">
<rect width="12.3015" height="12.3015" fill="white" transform="translate(0.573486 0.401611)"/>
</clipPath>
</defs>
</svg>
