<svg width="120" height="121" viewBox="0 0 120 121" fill="none" xmlns="http://www.w3.org/2000/svg">
<circle opacity="0.1" cx="60" cy="60.002" r="60" fill="#FC3400"/>
<path fill-rule="evenodd" clip-rule="evenodd" d="M61.875 22.502C82.5857 22.502 99.375 39.2913 99.375 60.002C99.375 80.7126 82.5857 97.502 61.875 97.502C41.1643 97.502 24.375 80.7126 24.375 60.002C24.375 39.2913 41.1643 22.502 61.875 22.502Z" fill="white"/>
<path opacity="0.1" fill-rule="evenodd" clip-rule="evenodd" d="M85.4302 30.8223C93.9358 37.6968 99.3749 48.2145 99.3749 60.0026C99.3749 80.7133 82.5856 97.5026 61.8749 97.5026C50.0868 97.5026 39.5691 92.0634 32.6946 83.5579C39.1326 88.7614 47.3273 91.8776 56.2499 91.8776C76.9606 91.8776 93.7499 75.0883 93.7499 54.3776C93.7499 45.455 90.6337 37.2602 85.4302 30.8223V30.8223Z" fill="#FC3400"/>
<path fill-rule="evenodd" clip-rule="evenodd" d="M101.25 60.0029C101.25 38.2567 83.6212 20.6279 61.875 20.6279C40.1288 20.6279 22.5 38.2567 22.5 60.0029C22.5 81.7491 40.1288 99.3779 61.875 99.3779C83.6212 99.3779 101.25 81.7491 101.25 60.0029ZM26.25 60.0029C26.25 40.3278 42.1999 24.3779 61.875 24.3779C81.5501 24.3779 97.5 40.3278 97.5 60.0029C97.5 79.6781 81.5501 95.6279 61.875 95.6279C42.1999 95.6279 26.25 79.6781 26.25 60.0029Z" fill="#2E2C34"/>
<path opacity="0.1" fill-rule="evenodd" clip-rule="evenodd" d="M85.4302 30.8223C93.9358 37.6968 99.3749 48.2145 99.3749 60.0026C99.3749 80.7133 82.5856 97.5026 61.8749 97.5026C50.0868 97.5026 39.5691 92.0634 32.6946 83.5579C39.1326 88.7614 47.3273 91.8776 56.2499 91.8776C76.9606 91.8776 93.7499 75.0883 93.7499 54.3776C93.7499 45.455 90.6337 37.2602 85.4302 30.8223V30.8223Z" fill="#FC3400"/>
<path fill-rule="evenodd" clip-rule="evenodd" d="M61.875 20.6279C83.6212 20.6279 101.25 38.2567 101.25 60.0029C101.25 81.7491 83.6212 99.3779 61.875 99.3779C40.1288 99.3779 22.5 81.7491 22.5 60.0029C22.5 38.2567 40.1288 20.6279 61.875 20.6279ZM61.875 24.3779C42.1999 24.3779 26.25 40.3278 26.25 60.0029C26.25 79.6781 42.1999 95.6279 61.875 95.6279C81.5501 95.6279 97.5 79.6781 97.5 60.0029C97.5 40.3278 81.5501 24.3779 61.875 24.3779Z" fill="#FC3400"/>
<path d="M85 60C85 56.717 84.3534 53.4661 83.097 50.4329C81.8406 47.3998 79.9991 44.6438 77.6777 42.3223C75.3562 40.0009 72.6002 38.1594 69.5671 36.903C66.5339 35.6466 63.283 35 60 35C56.717 35 53.4661 35.6466 50.4329 36.903C47.3998 38.1594 44.6438 40.0009 42.3223 42.3223C40.0009 44.6438 38.1594 47.3998 36.903 50.4329C35.6466 53.4661 35 56.717 35 60C35 66.6304 37.6339 72.9893 42.3223 77.6777C47.0107 82.3661 53.3696 85 60 85C66.6304 85 72.9893 82.3661 77.6777 77.6777C82.3661 72.9893 85 66.6304 85 60ZM39.1667 60C39.1667 54.4747 41.3616 49.1756 45.2686 45.2686C49.1756 41.3616 54.4747 39.1667 60 39.1667C65.5253 39.1667 70.8244 41.3616 74.7314 45.2686C78.6384 49.1756 80.8333 54.4747 80.8333 60C80.8333 65.5253 78.6384 70.8244 74.7314 74.7314C70.8244 78.6384 65.5253 80.8333 60 80.8333C54.4747 80.8333 49.1756 78.6384 45.2686 74.7314C41.3616 70.8244 39.1667 65.5253 39.1667 60ZM55.8333 54.7917C55.8333 55.202 55.7525 55.6084 55.5955 55.9876C55.4384 56.3667 55.2082 56.7112 54.918 57.0014C54.6279 57.2916 54.2834 57.5217 53.9042 57.6788C53.5251 57.8358 53.1187 57.9167 52.7083 57.9167C52.298 57.9167 51.8916 57.8358 51.5124 57.6788C51.1333 57.5217 50.7888 57.2916 50.4986 57.0014C50.2084 56.7112 49.9783 56.3667 49.8212 55.9876C49.6642 55.6084 49.5833 55.202 49.5833 54.7917C49.5833 53.9629 49.9126 53.168 50.4986 52.582C51.0847 51.9959 51.8795 51.6667 52.7083 51.6667C53.5371 51.6667 54.332 51.9959 54.918 52.582C55.5041 53.168 55.8333 53.9629 55.8333 54.7917ZM70.4167 54.7917C70.4167 55.6205 70.0874 56.4153 69.5014 57.0014C68.9153 57.5874 68.1205 57.9167 67.2917 57.9167C66.4629 57.9167 65.668 57.5874 65.082 57.0014C64.4959 56.4153 64.1667 55.6205 64.1667 54.7917C64.1667 53.9629 64.4959 53.168 65.082 52.582C65.668 51.9959 66.4629 51.6667 67.2917 51.6667C68.1205 51.6667 68.9153 51.9959 69.5014 52.582C70.0874 53.168 70.4167 53.9629 70.4167 54.7917ZM52.2167 71.7583C56.0708 67.1917 63.925 67.1917 67.7833 71.7583C67.9555 71.9798 68.1706 72.1642 68.4158 72.3006C68.661 72.4369 68.9312 72.5223 69.2102 72.5516C69.4892 72.581 69.7712 72.5537 70.0394 72.4714C70.3076 72.3891 70.5564 72.2535 70.7709 72.0727C70.9854 71.8919 71.1612 71.6696 71.2877 71.4192C71.4142 71.1688 71.4888 70.8954 71.5071 70.6155C71.5254 70.3356 71.4869 70.0548 71.3941 69.7901C71.3012 69.5254 71.1558 69.2822 70.9667 69.075C65.4458 62.5333 54.55 62.5333 49.0333 69.075C48.8442 69.2822 48.6988 69.5254 48.6059 69.7901C48.5131 70.0548 48.4746 70.3356 48.4929 70.6155C48.5112 70.8954 48.5858 71.1688 48.7123 71.4192C48.8388 71.6696 49.0146 71.8919 49.2291 72.0727C49.4436 72.2535 49.6924 72.3891 49.9606 72.4714C50.2288 72.5537 50.5108 72.581 50.7898 72.5516C51.0688 72.5223 51.339 72.4369 51.5842 72.3006C51.8294 72.1642 52.0445 71.9798 52.2167 71.7583Z" fill="#FF0000"/>
</svg>
