<svg width="378" height="261" viewBox="0 0 378 261" fill="none" xmlns="http://www.w3.org/2000/svg">
<g clip-path="url(#clip0_1_4834)">
<path d="M221.385 103.773H166.4C164.926 103.771 163.514 103.185 162.472 102.143C161.43 101.101 160.843 99.6886 160.842 98.215V25.4087C160.843 23.9351 161.43 22.5224 162.472 21.4804C163.514 20.4384 164.926 19.8523 166.4 19.8506H221.385C222.858 19.8523 224.271 20.4384 225.313 21.4804C226.355 22.5224 226.941 23.9351 226.943 25.4087V98.215C226.941 99.6886 226.355 101.101 225.313 102.143C224.271 103.185 222.858 103.771 221.385 103.773Z" fill="#F0F0F7"/>
<path d="M217.52 99.1406H170.265C168.957 99.1391 167.702 98.6187 166.777 97.6935C165.852 96.7684 165.332 95.514 165.33 94.2056V29.4179C165.332 28.1095 165.852 26.8552 166.777 25.93C167.702 25.0048 168.957 24.4844 170.265 24.4829H217.52C218.828 24.4844 220.083 25.0048 221.008 25.93C221.933 26.8551 222.454 28.1095 222.455 29.4179V94.2056C222.454 95.514 221.933 96.7684 221.008 97.6935C220.083 98.6187 218.828 99.1391 217.52 99.1406Z" fill="white"/>
<path d="M212.806 36.795H174.979C174.817 36.7952 174.656 36.7634 174.506 36.7016C174.357 36.6397 174.22 36.5488 174.106 36.4342C173.991 36.3197 173.9 36.1836 173.838 36.0338C173.776 35.884 173.744 35.7235 173.744 35.5613C173.744 35.3991 173.776 35.2386 173.838 35.0888C173.9 34.939 173.991 34.8029 174.106 34.6883C174.22 34.5738 174.357 34.4829 174.506 34.421C174.656 34.3591 174.817 34.3274 174.979 34.3276H212.806C212.968 34.3274 213.129 34.3591 213.279 34.421C213.428 34.4829 213.565 34.5738 213.679 34.6883C213.794 34.8029 213.885 34.939 213.947 35.0888C214.009 35.2386 214.041 35.3991 214.041 35.5613C214.041 35.7235 214.009 35.884 213.947 36.0338C213.885 36.1836 213.794 36.3197 213.679 36.4342C213.565 36.5488 213.428 36.6397 213.279 36.7016C213.129 36.7634 212.968 36.7952 212.806 36.795Z" fill="#F0F0F7"/>
<path d="M212.806 41.6701H174.979C174.652 41.6701 174.338 41.5401 174.106 41.3087C173.875 41.0774 173.745 40.7636 173.745 40.4364C173.745 40.1092 173.875 39.7954 174.106 39.564C174.338 39.3326 174.652 39.2026 174.979 39.2026H212.806C213.133 39.2026 213.447 39.3326 213.678 39.564C213.909 39.7954 214.039 40.1092 214.039 40.4364C214.039 40.7636 213.909 41.0774 213.678 41.3087C213.447 41.5401 213.133 41.6701 212.806 41.6701Z" fill="#F0F0F7"/>
<path d="M191.376 46.5446H174.979C174.652 46.5446 174.338 46.4146 174.106 46.1832C173.875 45.9519 173.745 45.6381 173.745 45.3109C173.745 44.9837 173.875 44.6699 174.106 44.4385C174.338 44.2071 174.652 44.0771 174.979 44.0771H191.376C191.703 44.0771 192.017 44.2071 192.248 44.4385C192.48 44.6699 192.61 44.9837 192.61 45.3109C192.61 45.6381 192.48 45.9519 192.248 46.1832C192.017 46.4146 191.703 46.5446 191.376 46.5446Z" fill="#F0F0F7"/>
<path d="M212.806 56.7544H174.979C174.817 56.7547 174.656 56.7229 174.506 56.661C174.357 56.5991 174.22 56.5083 174.106 56.3937C173.991 56.2791 173.9 56.1431 173.838 55.9933C173.776 55.8435 173.744 55.6829 173.744 55.5208C173.744 55.3586 173.776 55.1981 173.838 55.0483C173.9 54.8985 173.991 54.7624 174.106 54.6478C174.22 54.5332 174.357 54.4424 174.506 54.3805C174.656 54.3186 174.817 54.2869 174.979 54.2871H212.806C212.968 54.2869 213.129 54.3186 213.279 54.3805C213.428 54.4424 213.565 54.5332 213.679 54.6478C213.794 54.7624 213.885 54.8985 213.947 55.0483C214.009 55.1981 214.041 55.3586 214.041 55.5208C214.041 55.6829 214.009 55.8435 213.947 55.9933C213.885 56.1431 213.794 56.2791 213.679 56.3937C213.565 56.5083 213.428 56.5991 213.279 56.661C213.129 56.7229 212.968 56.7547 212.806 56.7544Z" fill="#F0F0F7"/>
<path d="M212.806 61.6291H174.979C174.652 61.6291 174.338 61.4991 174.106 61.2677C173.875 61.0363 173.745 60.7225 173.745 60.3953C173.745 60.0681 173.875 59.7543 174.106 59.523C174.338 59.2916 174.652 59.1616 174.979 59.1616H212.806C213.133 59.1616 213.447 59.2916 213.678 59.523C213.909 59.7543 214.039 60.0681 214.039 60.3953C214.039 60.7225 213.909 61.0363 213.678 61.2677C213.447 61.4991 213.133 61.6291 212.806 61.6291Z" fill="#F0F0F7"/>
<path d="M191.376 66.5041H174.979C174.652 66.5036 174.339 66.3734 174.108 66.1421C173.877 65.9108 173.747 65.5972 173.747 65.2703C173.747 64.9434 173.877 64.6299 174.108 64.3986C174.339 64.1673 174.652 64.0371 174.979 64.0366H191.376C191.703 64.0366 192.017 64.1666 192.248 64.398C192.48 64.6293 192.61 64.9431 192.61 65.2703C192.61 65.5975 192.48 65.9114 192.248 66.1427C192.017 66.3741 191.703 66.5041 191.376 66.5041Z" fill="#F0F0F7"/>
<path d="M212.806 76.7134H174.979C174.817 76.7136 174.656 76.6819 174.506 76.62C174.357 76.5581 174.22 76.4673 174.106 76.3527C173.991 76.2381 173.9 76.102 173.838 75.9523C173.776 75.8025 173.744 75.6419 173.744 75.4798C173.744 75.3176 173.776 75.157 173.838 75.0072C173.9 74.8575 173.991 74.7214 174.106 74.6068C174.22 74.4922 174.357 74.4014 174.506 74.3395C174.656 74.2776 174.817 74.2459 174.979 74.2461H212.806C212.968 74.2459 213.129 74.2776 213.279 74.3395C213.428 74.4014 213.565 74.4922 213.679 74.6068C213.794 74.7214 213.885 74.8575 213.947 75.0072C214.009 75.157 214.041 75.3176 214.041 75.4798C214.041 75.6419 214.009 75.8025 213.947 75.9523C213.885 76.102 213.794 76.2381 213.679 76.3527C213.565 76.4673 213.428 76.5581 213.279 76.62C213.129 76.6819 212.968 76.7136 212.806 76.7134Z" fill="#F0F0F7"/>
<path d="M212.806 81.5885H174.979C174.652 81.5885 174.338 81.4586 174.106 81.2272C173.875 80.9958 173.745 80.682 173.745 80.3548C173.745 80.0276 173.875 79.7138 174.106 79.4824C174.338 79.2511 174.652 79.1211 174.979 79.1211H212.806C213.133 79.1211 213.447 79.2511 213.678 79.4824C213.909 79.7138 214.039 80.0276 214.039 80.3548C214.039 80.682 213.909 80.9958 213.678 81.2272C213.447 81.4586 213.133 81.5885 212.806 81.5885Z" fill="#F0F0F7"/>
<path d="M191.376 86.463H174.979C174.652 86.463 174.338 86.3331 174.106 86.1017C173.875 85.8703 173.745 85.5565 173.745 85.2293C173.745 84.9021 173.875 84.5883 174.106 84.357C174.338 84.1256 174.652 83.9956 174.979 83.9956H191.376C191.703 83.9956 192.017 84.1256 192.248 84.357C192.48 84.5883 192.61 84.9021 192.61 85.2293C192.61 85.5565 192.48 85.8703 192.248 86.1017C192.017 86.3331 191.703 86.463 191.376 86.463Z" fill="#F0F0F7"/>
<path d="M182.997 61.4467L141.9 26.2947H114.29V25.7769H142.091L183.333 61.0532L182.997 61.4467Z" fill="black"/>
<path d="M114.29 30.1788C116.578 30.1788 118.433 28.324 118.433 26.0359C118.433 23.7479 116.578 21.8931 114.29 21.8931C112.002 21.8931 110.147 23.7479 110.147 26.0359C110.147 28.324 112.002 30.1788 114.29 30.1788Z" fill="#83879B"/>
<path d="M129.061 39.9707H91.2337C91.0717 39.9707 90.9112 39.9388 90.7616 39.8768C90.6119 39.8148 90.4759 39.724 90.3613 39.6094C90.2468 39.4949 90.1559 39.3589 90.0939 39.2092C90.0319 39.0595 90 38.8991 90 38.7371C90 38.5751 90.0319 38.4147 90.0939 38.265C90.1559 38.1153 90.2468 37.9793 90.3613 37.8648C90.4759 37.7502 90.6119 37.6593 90.7616 37.5973C90.9112 37.5353 91.0717 37.5034 91.2337 37.5034H129.061C129.223 37.5034 129.383 37.5353 129.533 37.5973C129.682 37.6593 129.818 37.7502 129.933 37.8648C130.047 37.9793 130.138 38.1153 130.2 38.265C130.262 38.4147 130.294 38.5751 130.294 38.7371C130.294 38.8991 130.262 39.0595 130.2 39.2092C130.138 39.3589 130.047 39.4949 129.933 39.6094C129.818 39.724 129.682 39.8148 129.533 39.8768C129.383 39.9388 129.223 39.9707 129.061 39.9707Z" fill="#83879B"/>
<path d="M129.061 44.8454H91.2337C90.9065 44.8454 90.5927 44.7154 90.3613 44.484C90.13 44.2527 90 43.9389 90 43.6116C90 43.2844 90.13 42.9706 90.3613 42.7393C90.5927 42.5079 90.9065 42.3779 91.2337 42.3779H129.061C129.388 42.3779 129.702 42.5079 129.933 42.7393C130.164 42.9706 130.294 43.2844 130.294 43.6116C130.294 43.9389 130.164 44.2527 129.933 44.484C129.702 44.7154 129.388 44.8454 129.061 44.8454Z" fill="#83879B"/>
<path d="M107.631 49.7204H91.2337C90.9065 49.7204 90.5927 49.5904 90.3613 49.359C90.13 49.1277 90 48.8139 90 48.4866C90 48.1594 90.13 47.8456 90.3613 47.6143C90.5927 47.3829 90.9065 47.2529 91.2337 47.2529H107.631C107.958 47.2529 108.272 47.3829 108.503 47.6143C108.734 47.8456 108.864 48.1594 108.864 48.4866C108.864 48.8139 108.734 49.1277 108.503 49.359C108.272 49.5904 107.958 49.7204 107.631 49.7204Z" fill="#83879B"/>
<path d="M193.893 39.1601L235.135 3.88379H262.936V4.4016H235.326L194.229 39.5537L193.893 39.1601Z" fill="black"/>
<path d="M262.936 8.28572C265.224 8.28572 267.079 6.43089 267.079 4.14286C267.079 1.85482 265.224 0 262.936 0C260.648 0 258.793 1.85482 258.793 4.14286C258.793 6.43089 260.648 8.28572 262.936 8.28572Z" fill="#83879B"/>
<path d="M291.105 17.9327H253.278C253.116 17.9329 252.955 17.9011 252.805 17.8393C252.655 17.7774 252.519 17.6865 252.404 17.5719C252.29 17.4574 252.199 17.3213 252.137 17.1715C252.074 17.0217 252.042 16.8611 252.042 16.699C252.042 16.5368 252.074 16.3763 252.137 16.2265C252.199 16.0767 252.29 15.9406 252.404 15.826C252.519 15.7115 252.655 15.6206 252.805 15.5587C252.955 15.4968 253.116 15.4651 253.278 15.4653H291.105C291.267 15.4651 291.428 15.4968 291.577 15.5587C291.727 15.6206 291.863 15.7115 291.978 15.826C292.093 15.9406 292.184 16.0767 292.246 16.2265C292.308 16.3763 292.34 16.5368 292.34 16.699C292.34 16.8611 292.308 17.0217 292.246 17.1715C292.184 17.3213 292.093 17.4574 291.978 17.5719C291.863 17.6865 291.727 17.7774 291.577 17.8393C291.428 17.9011 291.267 17.9329 291.105 17.9327Z" fill="#83879B"/>
<path d="M291.105 22.8073H253.278C252.951 22.8073 252.637 22.6773 252.406 22.4459C252.174 22.2146 252.044 21.9008 252.044 21.5736C252.044 21.2464 252.174 20.9326 252.406 20.7012C252.637 20.4698 252.951 20.3398 253.278 20.3398H291.105C291.267 20.3398 291.427 20.3718 291.577 20.4338C291.727 20.4958 291.863 20.5866 291.977 20.7012C292.092 20.8158 292.183 20.9518 292.245 21.1014C292.307 21.2511 292.339 21.4115 292.339 21.5736C292.339 21.7356 292.307 21.896 292.245 22.0457C292.183 22.1954 292.092 22.3314 291.977 22.4459C291.863 22.5605 291.727 22.6514 291.577 22.7134C291.427 22.7754 291.267 22.8073 291.105 22.8073Z" fill="#83879B"/>
<path d="M269.675 27.6823H253.278C252.951 27.6823 252.637 27.5523 252.406 27.3209C252.174 27.0896 252.044 26.7758 252.044 26.4486C252.044 26.1214 252.174 25.8076 252.406 25.5762C252.637 25.3448 252.951 25.2148 253.278 25.2148H269.675C270.002 25.2148 270.316 25.3448 270.548 25.5762C270.779 25.8076 270.909 26.1214 270.909 26.4486C270.909 26.7758 270.779 27.0896 270.548 27.3209C270.316 27.5523 270.002 27.6823 269.675 27.6823Z" fill="#83879B"/>
<path d="M261.449 116.993C261.235 116.761 261.076 116.485 260.981 116.184C260.886 115.884 260.858 115.566 260.899 115.254C260.94 114.941 261.048 114.642 261.218 114.376C261.387 114.11 261.613 113.885 261.878 113.716L260.112 106.263L263.851 107.629L264.955 114.497C265.209 114.962 265.284 115.505 265.166 116.022C265.047 116.539 264.743 116.994 264.31 117.302C263.878 117.61 263.348 117.748 262.821 117.691C262.293 117.634 261.805 117.385 261.449 116.993Z" fill="#3083D2"/>
<path d="M252.458 85.7611L253.959 89.6192C253.959 89.6192 253.316 93.4773 254.388 94.3347C255.459 95.1921 255.031 95.192 255.031 95.8351C255.067 96.2963 255.201 96.7446 255.423 97.1508C255.644 97.557 255.949 97.912 256.317 98.1928C257.174 98.8358 261.032 111.911 261.032 111.911H264.89C264.766 110.914 264.766 109.906 264.89 108.91C265.104 107.409 264.247 103.551 263.818 102.908C263.39 102.265 263.818 101.408 263.818 100.122C263.818 98.8358 262.961 98.1928 262.961 96.0494C262.961 93.906 260.389 77.1876 260.603 75.2585C260.818 73.3295 258.46 71.6147 258.46 71.6147H256.317L252.458 85.7611Z" fill="#F0F0F7"/>
<path d="M243.381 93.9444L239.814 109.859L262.666 108.437L256.452 92.8076L243.381 93.9444Z" fill="#3083D2"/>
<path d="M293.192 153.758C292.511 156.217 291.449 158.554 290.044 160.684C286.904 165.432 282.41 169.063 277.471 171.969C277.129 172.173 276.782 172.372 276.435 172.568H272.97L272.849 172.291V172.289L272.708 171.969L272.691 171.931L272.683 171.969L272.545 172.568H270.844C270.703 172.369 270.564 172.17 270.429 171.969C270.23 171.675 270.039 171.378 269.857 171.076C269.538 170.548 269.252 170 269.002 169.435C268.972 169.372 268.947 169.309 268.922 169.247L269.035 169.123L268.564 167.065L269.51 166.909L268.474 163.711C268.511 163.593 268.554 163.475 268.599 163.356C269.181 161.885 270.273 160.785 271.568 159.862C272.902 158.908 274.454 158.143 275.881 157.348C276.55 156.973 277.209 156.578 277.851 156.16V156.158C278.671 155.627 279.467 155.059 280.239 154.454C280.252 154.446 280.265 154.437 280.277 154.427C280.287 154.419 280.297 154.411 280.307 154.402C283.766 151.699 286.693 148.378 288.94 144.607C288.94 144.607 288.94 144.606 288.941 144.606C288.941 144.606 288.941 144.606 288.941 144.606C288.942 144.606 288.942 144.605 288.942 144.605C288.942 144.605 288.942 144.604 288.942 144.604C289.018 144.483 289.088 144.362 289.158 144.239V144.237C290.078 142.654 290.87 141.001 291.526 139.293V139.29C291.576 139.164 291.622 139.038 291.669 138.913C291.735 139.023 291.798 139.134 291.858 139.245C291.858 139.245 291.859 139.245 291.859 139.245C291.859 139.245 291.86 139.245 291.86 139.245C291.86 139.246 291.86 139.246 291.861 139.246C291.861 139.247 291.861 139.247 291.861 139.247C294.301 143.613 294.533 148.871 293.192 153.758Z" fill="#F0F0F7"/>
<path d="M291.861 139.247C291.885 141.577 291.643 143.902 291.139 146.176C290.912 147.217 290.63 148.245 290.293 149.256C289.64 151.233 288.786 153.139 287.744 154.942C287.687 155.041 287.631 155.136 287.571 155.232V155.234C287.126 155.985 286.643 156.712 286.124 157.413C285.339 158.53 284.369 159.506 283.256 160.297C282.346 160.897 281.318 161.295 280.241 161.462C280.04 161.499 279.834 161.527 279.625 161.552C278.792 161.65 277.932 161.688 277.106 161.864C276.688 161.947 276.281 162.078 275.894 162.254C274.565 162.871 273.818 164.161 273.491 165.54C273.433 165.782 273.388 166.026 273.352 166.27C273.078 168.144 273.38 170.092 273.224 171.969C273.206 172.168 273.184 172.369 273.156 172.568H272.97L272.849 172.291V172.288C272.862 172.183 272.872 172.077 272.882 171.969C272.942 171.047 272.95 170.122 272.904 169.199C272.894 168.783 272.887 168.366 272.892 167.948C272.897 167.613 272.91 167.279 272.935 166.947V166.944C272.952 166.738 272.972 166.534 273 166.33C273.08 165.706 273.234 165.094 273.458 164.506C273.677 163.9 274.021 163.348 274.469 162.885C274.916 162.422 275.457 162.058 276.055 161.819C276.42 161.682 276.796 161.577 277.179 161.504C278.022 161.343 278.893 161.303 279.741 161.197C279.831 161.187 279.922 161.175 280.01 161.16C280.123 161.142 280.234 161.122 280.345 161.102C281.454 160.905 282.502 160.451 283.404 159.776C284.476 158.927 285.409 157.915 286.167 156.777C286.579 156.185 286.972 155.581 287.337 154.96C287.337 154.96 287.337 154.959 287.337 154.959C287.337 154.959 287.337 154.958 287.338 154.958C287.338 154.958 287.338 154.958 287.338 154.958C287.339 154.958 287.339 154.957 287.339 154.957C287.357 154.927 287.375 154.9 287.392 154.869L287.395 154.864C288.96 152.19 290.102 149.29 290.781 146.267C290.804 146.156 290.829 146.045 290.854 145.935C291.321 143.752 291.547 141.524 291.526 139.292V139.29C291.526 139.184 291.524 139.081 291.521 138.975C291.516 138.759 291.851 138.711 291.856 138.927C291.858 139.033 291.861 139.139 291.858 139.244C291.859 139.244 291.859 139.245 291.859 139.245C291.859 139.245 291.86 139.245 291.86 139.245C291.86 139.245 291.86 139.246 291.861 139.246C291.861 139.246 291.861 139.247 291.861 139.247Z" fill="white"/>
<path d="M287.427 155.164C288.386 155.651 289.487 155.781 290.533 155.532C291.579 155.282 292.502 154.669 293.137 153.801C293.265 153.625 292.998 153.418 292.87 153.594C292.279 154.403 291.419 154.974 290.445 155.205C289.47 155.435 288.446 155.31 287.556 154.851C287.362 154.752 287.235 155.065 287.427 155.164Z" fill="white"/>
<path d="M280.377 161.202C279.676 159.119 279.787 156.848 280.686 154.842C280.776 154.643 280.463 154.515 280.374 154.714C279.441 156.803 279.331 159.166 280.065 161.333C280.135 161.539 280.447 161.408 280.377 161.202V161.202Z" fill="white"/>
<path d="M290.952 145.966C290.541 145.855 290.165 145.644 289.857 145.351C289.548 145.059 289.317 144.694 289.185 144.29C289.117 144.083 288.806 144.215 288.873 144.421C289.021 144.866 289.277 145.269 289.617 145.592C289.957 145.916 290.371 146.152 290.823 146.279C290.865 146.294 290.911 146.293 290.952 146.276C290.993 146.259 291.026 146.227 291.044 146.187C291.061 146.145 291.06 146.099 291.043 146.057C291.026 146.016 290.993 145.983 290.952 145.966H290.952Z" fill="white"/>
<path d="M277.851 156.158V156.161C277.773 157.957 277.549 159.745 277.18 161.505V161.507C277.159 161.628 277.132 161.746 277.107 161.865C276.499 164.587 275.648 167.249 274.563 169.818C274.263 170.543 273.95 171.26 273.622 171.969C273.531 172.17 273.438 172.369 273.342 172.568H272.97L272.849 172.291V172.289L272.708 171.969L272.691 171.931L272.683 171.969L272.545 172.568H268.947L268.247 171.969L267.228 171.096L268.652 169.541L268.886 169.284L268.922 169.247L269.035 169.123L268.564 167.065L269.51 166.909L268.474 163.711L267.983 162.199L267.86 161.819L267.143 159.608L264.979 160.013L264.627 158.78C265.275 157.276 265.815 155.728 266.242 154.148C266.245 154.135 266.25 154.125 266.252 154.112C267.395 149.855 267.738 145.422 267.264 141.039V141.036C267.248 140.895 267.231 140.752 267.211 140.614V140.609C266.995 138.792 266.632 136.996 266.124 135.239C266.089 135.106 266.048 134.975 266.011 134.844C266.126 134.895 266.239 134.942 266.355 134.993L266.358 134.995H266.363C266.546 135.076 266.73 135.161 266.909 135.252C271.201 137.338 274.359 141.253 276.153 145.767C276.158 145.779 276.163 145.789 276.168 145.802C277.104 148.168 277.662 150.667 277.821 153.207C277.881 154.189 277.892 155.174 277.851 156.158Z" fill="#F0F0F7"/>
<path d="M271.322 172.568H270.924C270.798 172.364 270.662 172.165 270.527 171.969C270.31 171.664 270.087 171.367 269.857 171.076C269.659 170.824 269.46 170.575 269.261 170.326C269.055 170.067 268.851 169.808 268.652 169.541L268.886 169.284C268.924 169.335 268.962 169.385 269.002 169.435C269.646 170.283 270.343 171.098 270.939 171.969C271.073 172.165 271.201 172.364 271.322 172.568Z" fill="white"/>
<path d="M265.927 134.984C265.992 135.068 266.06 135.153 266.123 135.239C266.614 135.875 267.078 136.532 267.515 137.209C268.293 138.403 268.984 139.652 269.583 140.945C269.631 141.046 269.678 141.149 269.724 141.252C271.005 144.079 271.84 147.087 272.199 150.169C272.205 150.199 272.207 150.227 272.21 150.257C272.293 150.977 272.346 151.699 272.371 152.424C272.451 153.788 272.316 155.157 271.971 156.479C271.92 156.653 271.865 156.824 271.804 156.99C271.653 157.397 271.464 157.789 271.238 158.16C271.077 158.431 270.897 158.691 270.7 158.938C270.582 159.089 270.458 159.237 270.328 159.381C270.252 159.464 270.174 159.547 270.096 159.63C270.031 159.693 269.968 159.758 269.902 159.821C269.223 160.48 268.473 161.091 267.859 161.819L267.983 162.199C268.574 161.449 269.336 160.827 270.023 160.173C270.454 159.768 270.847 159.323 271.196 158.845C271.241 158.779 271.289 158.714 271.331 158.646C271.565 158.305 271.766 157.944 271.933 157.566C272.018 157.378 272.096 157.184 272.167 156.983C272.578 155.682 272.765 154.321 272.72 152.957C272.712 152.083 272.66 151.211 272.564 150.343C272.554 150.229 272.542 150.119 272.527 150.006C272.271 147.939 271.806 145.904 271.138 143.932C270.292 141.43 269.128 139.047 267.676 136.841C267.26 136.21 266.82 135.593 266.355 134.992C266.294 134.909 266.231 134.828 266.166 134.745C266.033 134.574 265.794 134.813 265.927 134.984Z" fill="white"/>
<path d="M272.407 150.375C273.465 150.186 274.423 149.628 275.108 148.799C275.792 147.97 276.16 146.924 276.146 145.849C276.144 145.805 276.127 145.763 276.095 145.733C276.064 145.702 276.022 145.684 275.978 145.684C275.935 145.683 275.892 145.7 275.86 145.73C275.828 145.76 275.809 145.801 275.807 145.845C275.823 146.846 275.48 147.82 274.841 148.591C274.201 149.361 273.308 149.878 272.321 150.048C272.106 150.085 272.194 150.412 272.407 150.375Z" fill="white"/>
<path d="M270.413 159.441C268.599 158.199 267.32 156.319 266.831 154.176C266.782 153.964 266.455 154.05 266.504 154.262C267.017 156.491 268.352 158.445 270.243 159.733C270.423 159.856 270.592 159.563 270.413 159.441Z" fill="white"/>
<path d="M269.683 140.909C269.289 141.067 268.861 141.125 268.439 141.077C268.016 141.029 267.613 140.877 267.264 140.635C267.085 140.51 266.916 140.803 267.093 140.927C267.48 141.193 267.926 141.36 268.393 141.414C268.859 141.468 269.332 141.407 269.769 141.236C269.812 141.223 269.848 141.195 269.87 141.157C269.893 141.118 269.899 141.073 269.89 141.029C269.878 140.986 269.85 140.949 269.811 140.927C269.772 140.904 269.726 140.898 269.683 140.909Z" fill="white"/>
<path d="M247.186 167.394H244.619L243.397 157.493L247.186 157.493L247.186 167.394Z" fill="#3083D2"/>
<path d="M248.567 172.268H246.745L246.42 170.549L245.587 172.268H240.756C240.525 172.268 240.299 172.194 240.113 172.057C239.926 171.92 239.789 171.727 239.72 171.506C239.651 171.284 239.654 171.047 239.73 170.828C239.805 170.609 239.949 170.42 240.139 170.289L243.997 167.624V165.886L248.055 166.128L248.567 172.268Z" fill="black"/>
<path d="M271.447 166.117L268.938 166.661L265.646 157.244L269.348 156.441L271.447 166.117Z" fill="#3083D2"/>
<path d="M273.83 170.588L272.05 170.974L271.368 169.362L270.919 171.219L266.197 172.243C265.971 172.293 265.735 172.268 265.524 172.173C265.312 172.079 265.137 171.919 265.022 171.718C264.908 171.516 264.861 171.284 264.889 171.054C264.916 170.824 265.016 170.609 265.175 170.44L268.38 167.018L268.011 165.319L272.028 164.695L273.83 170.588Z" fill="black"/>
<path d="M289.526 172.269C289.526 172.308 289.519 172.347 289.504 172.383C289.489 172.42 289.467 172.453 289.439 172.481C289.411 172.508 289.378 172.531 289.341 172.546C289.305 172.561 289.266 172.568 289.227 172.568H218.703C218.624 172.568 218.548 172.537 218.492 172.48C218.435 172.424 218.404 172.348 218.404 172.269C218.404 172.189 218.435 172.113 218.492 172.057C218.548 172.001 218.624 171.969 218.703 171.969H289.227C289.266 171.969 289.305 171.977 289.341 171.992C289.378 172.007 289.411 172.029 289.439 172.057C289.467 172.084 289.489 172.118 289.504 172.154C289.519 172.19 289.526 172.229 289.526 172.269Z" fill="#83879B"/>
<path d="M239.231 123.166C241.032 133.067 241.483 137.342 241.483 137.342C241.483 137.342 240.131 138.917 241.032 139.818C241.933 140.718 241.032 142.517 241.032 142.517L243.058 164.344L244.688 164.08L248.616 163.449L250.032 163.22L249.131 142.744C249.131 142.744 250.032 140.942 249.582 140.492C249.131 140.042 250.032 137.342 250.032 137.342L251.157 115.965L258.134 139.367C258.134 139.367 257.457 140.268 258.134 140.942C258.808 141.617 260.157 144.993 260.157 144.993L264.306 159.511L264.658 160.744L266.822 160.339L269.177 159.896L269.61 159.816L270.38 159.67L270.876 159.576L271.044 159.546L271.859 159.393L271.613 158.298L271.484 157.722L267.974 142.132L267.894 141.773L267.808 141.393C267.808 141.393 268.259 140.268 267.584 139.591C267.387 139.385 267.243 139.134 267.165 138.859C267.086 138.585 267.076 138.295 267.134 138.016C267.156 137.993 267.176 137.967 267.194 137.941C267.274 137.831 267.329 137.706 267.356 137.573C267.416 137.291 267.363 136.896 266.908 136.441C266.779 136.305 266.672 136.15 266.588 135.983C265.904 134.687 265.559 131.942 265.559 131.942C265.559 131.942 264.95 110.201 262.957 106.879C262.852 106.706 260.736 103.373 260.626 103.305C258.376 101.956 239.814 103.819 239.814 103.819C239.814 103.819 238.753 106.671 238.705 106.968C238.446 108.636 237.703 114.767 239.231 123.166Z" fill="black"/>
<path d="M239.336 116.965C239.55 116.733 239.709 116.457 239.804 116.156C239.9 115.856 239.928 115.538 239.887 115.226C239.846 114.913 239.737 114.614 239.567 114.348C239.398 114.082 239.173 113.857 238.907 113.688L240.673 106.235L236.935 107.601L235.83 114.469C235.576 114.934 235.501 115.477 235.619 115.994C235.738 116.511 236.043 116.966 236.475 117.274C236.907 117.582 237.437 117.72 237.964 117.663C238.492 117.606 238.98 117.358 239.336 116.965Z" fill="#3083D2"/>
<path d="M242.325 71.5871C242.325 71.5871 244.177 68.8285 247.82 65.1847C249.749 64.5417 253.092 64.9165 254.251 65.1847C259.609 72.2579 259.946 71.7879 261.341 75.7399C261.703 76.7647 261.884 77.7493 261.723 78.5531C261.08 81.7682 262.111 98.0127 262.325 98.8701C262.539 99.7274 264.04 100.799 262.539 100.799C261.039 100.799 238.319 99.9417 238.748 99.2987C239.176 98.6557 242.325 71.5871 242.325 71.5871Z" fill="#F0F0F7"/>
<path d="M244.469 71.5869H242.325C242.325 71.5869 239.968 73.3016 240.182 75.2307C240.396 77.1597 237.824 93.8782 237.824 96.0216C237.824 98.165 236.967 98.808 236.967 100.094C236.967 101.38 237.396 102.237 236.967 102.88C236.538 103.523 235.681 107.382 235.895 108.882C236.02 109.878 236.02 110.886 235.895 111.883H239.753C239.753 111.883 243.611 98.808 244.469 98.165C244.837 97.8842 245.141 97.5292 245.363 97.123C245.584 96.7168 245.718 96.2685 245.755 95.8072C245.755 95.1642 245.326 95.1642 246.398 94.3069C247.469 93.4495 246.826 89.5914 246.826 89.5914L248.327 85.7333L244.469 71.5869Z" fill="#F0F0F7"/>
<path d="M248.871 62.4414C252.299 62.4414 255.078 59.6626 255.078 56.2349C255.078 52.8071 252.299 50.0283 248.871 50.0283C245.443 50.0283 242.665 52.8071 242.665 56.2349C242.665 59.6626 245.443 62.4414 248.871 62.4414Z" fill="#3083D2"/>
<path d="M244.524 67.8657L243.942 65.3139C243.75 64.4599 243.732 63.5763 243.887 62.715C244.043 61.8538 244.369 61.0324 244.847 60.2991C245.286 59.6079 245.53 58.8111 245.555 57.9926C245.58 57.1741 245.383 56.3641 244.987 55.6476C244.311 54.4182 243.146 53.6842 241.87 53.6842H241.715V53.5292C241.715 51.3037 243.449 49.7329 245.062 49.6429C245.12 49.1798 245.448 48.7646 246.02 48.435C247.385 47.6479 250.025 47.4772 252.02 48.5263C252.056 48.1871 252.184 47.8641 252.39 47.5918C252.595 47.3194 252.871 47.1077 253.187 46.9791C253.515 46.8651 253.868 46.8449 254.206 46.9205C254.235 46.3626 254.466 45.8341 254.855 45.4331C255.405 44.8995 256.289 44.6967 257.279 44.8756C258.638 45.1223 259.978 45.9882 261.051 47.3143C262.003 48.49 262.664 49.8755 263.303 51.2153C263.931 52.5331 264.581 53.8956 265.523 55.0493C266.555 56.3132 267.834 57.1321 269.123 57.3552C270.628 57.6155 272.171 56.9962 272.878 55.8496L273.018 55.622L273.146 55.8569C273.939 57.3152 273.615 59.3192 272.374 60.6216C271.261 61.7899 269.514 62.3849 267.703 62.2121C266.169 62.0664 264.623 61.4147 263.106 60.2755C261.599 59.1441 260.667 57.8934 260.336 56.5581C260.244 56.1449 260.177 55.7263 260.137 55.3048C260.035 54.4219 259.938 53.5878 259.395 52.974C258.907 52.422 258.151 52.1829 257.481 52.0022L257.35 51.9669C257.326 52.2156 257.248 52.4561 257.121 52.6715C256.995 52.887 256.823 53.0723 256.617 53.2145C256.494 53.2887 256.359 53.3408 256.217 53.3685C256.994 56.4945 256.675 58.8879 255.267 60.4835C252.892 63.1772 248.327 62.6232 248.134 62.5985L248.005 62.5819L247.999 62.4525C247.981 62.1052 247.939 61.7596 247.872 61.4185C247.218 62.9938 245.019 67.1595 244.724 67.5797L244.524 67.8657Z" fill="black"/>
</g>
<path d="M1.65057 256H0.357955L4.09659 245.818H5.36932L9.10795 256H7.81534L4.77273 247.429H4.69318L1.65057 256ZM2.12784 252.023H7.33807V253.116H2.12784V252.023ZM13.9354 248.364V249.358H9.81889V248.364H13.9354ZM11.0518 256V247.31C11.0518 246.872 11.1546 246.508 11.3601 246.216C11.5656 245.924 11.8324 245.705 12.1605 245.56C12.4886 245.414 12.835 245.341 13.1996 245.341C13.4879 245.341 13.7232 245.364 13.9055 245.411C14.0878 245.457 14.2237 245.5 14.3132 245.54L13.9751 246.554C13.9155 246.534 13.8326 246.509 13.7266 246.479C13.6238 246.45 13.4879 246.435 13.3189 246.435C12.9311 246.435 12.651 246.532 12.4787 246.728C12.3097 246.924 12.2251 247.21 12.2251 247.588V256H11.0518ZM18.9007 248.364V249.358H14.9434V248.364H18.9007ZM16.0968 246.534H17.2701V253.812C17.2701 254.144 17.3181 254.393 17.4142 254.558C17.5137 254.721 17.6396 254.83 17.7921 254.886C17.9479 254.939 18.1119 254.966 18.2843 254.966C18.4135 254.966 18.5196 254.959 18.6025 254.946C18.6853 254.929 18.7516 254.916 18.8013 254.906L19.04 255.96C18.9604 255.99 18.8494 256.02 18.7069 256.05C18.5643 256.083 18.3837 256.099 18.165 256.099C17.8335 256.099 17.5087 256.028 17.1905 255.886C16.8757 255.743 16.6138 255.526 16.405 255.234C16.1995 254.943 16.0968 254.575 16.0968 254.131V246.534ZM23.7853 256.159C23.0495 256.159 22.4148 255.997 21.8812 255.672C21.3509 255.344 20.9416 254.886 20.6532 254.3C20.3682 253.71 20.2257 253.024 20.2257 252.241C20.2257 251.459 20.3682 250.77 20.6532 250.173C20.9416 249.573 21.3426 249.106 21.8564 248.771C22.3734 248.433 22.9766 248.264 23.666 248.264C24.0637 248.264 24.4565 248.33 24.8443 248.463C25.2321 248.596 25.5851 248.811 25.9032 249.109C26.2214 249.404 26.475 249.795 26.6639 250.283C26.8528 250.77 26.9473 251.37 26.9473 252.082V252.58H21.0609V251.565H25.7541C25.7541 251.134 25.6679 250.75 25.4956 250.412C25.3265 250.074 25.0846 249.807 24.7697 249.612C24.4582 249.416 24.0903 249.318 23.666 249.318C23.1987 249.318 22.7943 249.434 22.4529 249.666C22.1149 249.895 21.8547 250.193 21.6724 250.561C21.4901 250.929 21.399 251.323 21.399 251.744V252.42C21.399 252.997 21.4984 253.486 21.6973 253.887C21.8994 254.285 22.1795 254.588 22.5375 254.797C22.8954 255.002 23.3114 255.105 23.7853 255.105C24.0936 255.105 24.372 255.062 24.6206 254.976C24.8725 254.886 25.0895 254.754 25.2718 254.578C25.4541 254.399 25.595 254.177 25.6944 253.912L26.8279 254.23C26.7086 254.615 26.5081 254.953 26.2264 255.244C25.9447 255.533 25.5967 255.758 25.1824 255.92C24.7681 256.08 24.3024 256.159 23.7853 256.159ZM28.7321 256V248.364H29.8656V249.517H29.9451C30.0843 249.139 30.3362 248.833 30.7008 248.597C31.0654 248.362 31.4764 248.244 31.9338 248.244C32.0199 248.244 32.1277 248.246 32.2569 248.249C32.3862 248.253 32.484 248.258 32.5502 248.264V249.457C32.5105 249.447 32.4193 249.433 32.2768 249.413C32.1376 249.389 31.9901 249.378 31.8343 249.378C31.4631 249.378 31.1317 249.456 30.84 249.612C30.5517 249.764 30.323 249.976 30.1539 250.248C29.9882 250.516 29.9054 250.823 29.9054 251.168V256H28.7321ZM38.6342 258.864C38.4354 258.864 38.258 258.847 38.1023 258.814C37.9465 258.784 37.8388 258.754 37.7791 258.724L38.0774 257.69C38.3625 257.763 38.6143 257.79 38.8331 257.77C39.0518 257.75 39.2457 257.652 39.4148 257.477C39.5871 257.304 39.7446 257.024 39.8871 256.636L40.1058 256.04L37.282 248.364H38.5547L40.6626 254.449H40.7422L42.8501 248.364H44.1229L40.8814 257.114C40.7356 257.508 40.5549 257.835 40.3395 258.093C40.1241 258.355 39.8738 258.549 39.5888 258.675C39.3071 258.801 38.9889 258.864 38.6342 258.864ZM48.5004 256.159C47.811 256.159 47.2061 255.995 46.6857 255.667C46.1687 255.339 45.7643 254.88 45.4727 254.29C45.1843 253.7 45.0401 253.01 45.0401 252.222C45.0401 251.426 45.1843 250.732 45.4727 250.138C45.7643 249.545 46.1687 249.085 46.6857 248.756C47.2061 248.428 47.811 248.264 48.5004 248.264C49.1897 248.264 49.793 248.428 50.31 248.756C50.8304 249.085 51.2347 249.545 51.5231 250.138C51.8147 250.732 51.9606 251.426 51.9606 252.222C51.9606 253.01 51.8147 253.7 51.5231 254.29C51.2347 254.88 50.8304 255.339 50.31 255.667C49.793 255.995 49.1897 256.159 48.5004 256.159ZM48.5004 255.105C49.024 255.105 49.4549 254.971 49.793 254.702C50.131 254.434 50.3813 254.081 50.5437 253.643C50.7061 253.206 50.7873 252.732 50.7873 252.222C50.7873 251.711 50.7061 251.236 50.5437 250.795C50.3813 250.354 50.131 249.998 49.793 249.726C49.4549 249.454 49.024 249.318 48.5004 249.318C47.9767 249.318 47.5458 249.454 47.2077 249.726C46.8697 249.998 46.6194 250.354 46.457 250.795C46.2946 251.236 46.2134 251.711 46.2134 252.222C46.2134 252.732 46.2946 253.206 46.457 253.643C46.6194 254.081 46.8697 254.434 47.2077 254.702C47.5458 254.971 47.9767 255.105 48.5004 255.105ZM58.5641 252.878V248.364H59.7374V256H58.5641V254.707H58.4846C58.3056 255.095 58.0272 255.425 57.6493 255.697C57.2715 255.965 56.7942 256.099 56.2175 256.099C55.7402 256.099 55.316 255.995 54.9448 255.786C54.5736 255.574 54.2819 255.256 54.0698 254.832C53.8577 254.404 53.7516 253.866 53.7516 253.216V248.364H54.9249V253.136C54.9249 253.693 55.0807 254.137 55.3922 254.469C55.7071 254.8 56.1081 254.966 56.5953 254.966C56.887 254.966 57.1837 254.891 57.4853 254.742C57.7902 254.593 58.0454 254.364 58.2509 254.056C58.4597 253.748 58.5641 253.355 58.5641 252.878ZM61.8864 256V248.364H63.0199V249.517H63.0994C63.2386 249.139 63.4905 248.833 63.8551 248.597C64.2197 248.362 64.6307 248.244 65.0881 248.244C65.1742 248.244 65.282 248.246 65.4112 248.249C65.5405 248.253 65.6383 248.258 65.7045 248.264V249.457C65.6648 249.447 65.5736 249.433 65.4311 249.413C65.2919 249.389 65.1444 249.378 64.9886 249.378C64.6174 249.378 64.286 249.456 63.9943 249.612C63.706 249.764 63.4773 249.976 63.3082 250.248C63.1425 250.516 63.0597 250.823 63.0597 251.168V256H61.8864ZM74.4334 248.364V249.358H70.3169V248.364H74.4334ZM71.5499 256V247.31C71.5499 246.872 71.6526 246.508 71.8581 246.216C72.0636 245.924 72.3304 245.705 72.6586 245.56C72.9867 245.414 73.333 245.341 73.6976 245.341C73.986 245.341 74.2213 245.364 74.4036 245.411C74.5859 245.457 74.7218 245.5 74.8113 245.54L74.4732 246.554C74.4135 246.534 74.3307 246.509 74.2246 246.479C74.1219 246.45 73.986 246.435 73.8169 246.435C73.4292 246.435 73.1491 246.532 72.9767 246.728C72.8077 246.924 72.7232 247.21 72.7232 247.588V256H71.5499ZM76.0778 256V248.364H77.2511V256H76.0778ZM76.6744 247.091C76.4457 247.091 76.2485 247.013 76.0827 246.857C75.9203 246.701 75.8391 246.514 75.8391 246.295C75.8391 246.077 75.9203 245.889 76.0827 245.734C76.2485 245.578 76.4457 245.5 76.6744 245.5C76.9031 245.5 77.0986 245.578 77.261 245.734C77.4267 245.889 77.5096 246.077 77.5096 246.295C77.5096 246.514 77.4267 246.701 77.261 246.857C77.0986 247.013 76.9031 247.091 76.6744 247.091ZM79.4 256V248.364H80.5336V249.517H80.6131C80.7523 249.139 81.0042 248.833 81.3688 248.597C81.7334 248.362 82.1444 248.244 82.6017 248.244C82.6879 248.244 82.7956 248.246 82.9249 248.249C83.0542 248.253 83.1519 248.258 83.2182 248.264V249.457C83.1784 249.447 83.0873 249.433 82.9448 249.413C82.8056 249.389 82.6581 249.378 82.5023 249.378C82.1311 249.378 81.7997 249.456 81.508 249.612C81.2196 249.764 80.9909 249.976 80.8219 250.248C80.6562 250.516 80.5733 250.823 80.5733 251.168V256H79.4ZM90.0181 250.074L88.9641 250.372C88.8978 250.196 88.8001 250.026 88.6708 249.86C88.5449 249.691 88.3725 249.552 88.1538 249.442C87.935 249.333 87.6549 249.278 87.3136 249.278C86.8462 249.278 86.4568 249.386 86.1452 249.602C85.837 249.814 85.6829 250.084 85.6829 250.412C85.6829 250.704 85.7889 250.934 86.0011 251.103C86.2132 251.272 86.5446 251.413 86.9954 251.526L88.1289 251.804C88.8117 251.97 89.3204 252.223 89.6552 252.565C89.9899 252.903 90.1573 253.339 90.1573 253.872C90.1573 254.31 90.0314 254.701 89.7795 255.045C89.5309 255.39 89.1829 255.662 88.7354 255.861C88.288 256.06 87.7676 256.159 87.1744 256.159C86.3955 256.159 85.7508 255.99 85.2404 255.652C84.73 255.314 84.4068 254.82 84.271 254.17L85.3846 253.892C85.4906 254.303 85.6912 254.611 85.9862 254.817C86.2844 255.022 86.6739 255.125 87.1545 255.125C87.7013 255.125 88.1355 255.009 88.457 254.777C88.7818 254.542 88.9442 254.26 88.9442 253.932C88.9442 253.667 88.8514 253.445 88.6658 253.266C88.4802 253.083 88.1952 252.947 87.8107 252.858L86.538 252.56C85.8387 252.394 85.3249 252.137 84.9968 251.789C84.672 251.438 84.5096 250.999 84.5096 250.472C84.5096 250.041 84.6306 249.66 84.8725 249.328C85.1178 248.997 85.4509 248.737 85.8718 248.548C86.296 248.359 86.7766 248.264 87.3136 248.264C88.0692 248.264 88.6625 248.43 89.0934 248.761C89.5276 249.093 89.8358 249.53 90.0181 250.074ZM95.2445 248.364V249.358H91.2871V248.364H95.2445ZM92.4405 246.534H93.6138V253.812C93.6138 254.144 93.6619 254.393 93.758 254.558C93.8574 254.721 93.9834 254.83 94.1358 254.886C94.2916 254.939 94.4557 254.966 94.628 254.966C94.7573 254.966 94.8633 254.959 94.9462 254.946C95.0291 254.929 95.0953 254.916 95.1451 254.906L95.3837 255.96C95.3042 255.99 95.1931 256.02 95.0506 256.05C94.9081 256.083 94.7275 256.099 94.5087 256.099C94.1773 256.099 93.8525 256.028 93.5343 255.886C93.2194 255.743 92.9576 255.526 92.7488 255.234C92.5433 254.943 92.4405 254.575 92.4405 254.131V246.534ZM104.268 248.364V249.358H100.311V248.364H104.268ZM101.464 246.534H102.637V253.812C102.637 254.144 102.685 254.393 102.781 254.558C102.881 254.721 103.007 254.83 103.159 254.886C103.315 254.939 103.479 254.966 103.651 254.966C103.781 254.966 103.887 254.959 103.97 254.946C104.052 254.929 104.119 254.916 104.169 254.906L104.407 255.96C104.328 255.99 104.217 256.02 104.074 256.05C103.932 256.083 103.751 256.099 103.532 256.099C103.201 256.099 102.876 256.028 102.558 255.886C102.243 255.743 101.981 255.526 101.772 255.234C101.567 254.943 101.464 254.575 101.464 254.131V246.534ZM106.033 256V248.364H107.166V249.517H107.246C107.385 249.139 107.637 248.833 108.002 248.597C108.366 248.362 108.777 248.244 109.235 248.244C109.321 248.244 109.428 248.246 109.558 248.249C109.687 248.253 109.785 248.258 109.851 248.264V249.457C109.811 249.447 109.72 249.433 109.578 249.413C109.438 249.389 109.291 249.378 109.135 249.378C108.764 249.378 108.432 249.456 108.141 249.612C107.852 249.764 107.624 249.976 107.455 250.248C107.289 250.516 107.206 250.823 107.206 251.168V256H106.033ZM113.489 256.179C113.005 256.179 112.566 256.088 112.172 255.906C111.777 255.72 111.464 255.453 111.232 255.105C111 254.754 110.884 254.33 110.884 253.832C110.884 253.395 110.97 253.04 111.142 252.768C111.315 252.493 111.545 252.278 111.833 252.122C112.122 251.966 112.44 251.85 112.788 251.774C113.139 251.695 113.492 251.632 113.847 251.585C114.311 251.526 114.687 251.481 114.975 251.451C115.267 251.418 115.479 251.363 115.612 251.287C115.748 251.211 115.816 251.078 115.816 250.889V250.849C115.816 250.359 115.681 249.978 115.413 249.706C115.148 249.434 114.745 249.298 114.205 249.298C113.645 249.298 113.206 249.421 112.887 249.666C112.569 249.911 112.346 250.173 112.216 250.452L111.103 250.054C111.301 249.59 111.567 249.229 111.898 248.97C112.233 248.708 112.597 248.526 112.992 248.423C113.39 248.317 113.781 248.264 114.165 248.264C114.41 248.264 114.692 248.294 115.01 248.354C115.332 248.41 115.642 248.528 115.94 248.707C116.242 248.886 116.492 249.156 116.691 249.517C116.89 249.878 116.989 250.362 116.989 250.969V256H115.816V254.966H115.756C115.676 255.132 115.544 255.309 115.358 255.498C115.173 255.687 114.926 255.848 114.618 255.98C114.309 256.113 113.933 256.179 113.489 256.179ZM113.668 255.125C114.132 255.125 114.523 255.034 114.841 254.852C115.163 254.669 115.405 254.434 115.567 254.146C115.733 253.857 115.816 253.554 115.816 253.236V252.162C115.766 252.222 115.657 252.276 115.488 252.326C115.322 252.372 115.13 252.414 114.911 252.45C114.695 252.483 114.485 252.513 114.279 252.54C114.077 252.563 113.913 252.583 113.787 252.599C113.482 252.639 113.197 252.704 112.932 252.793C112.67 252.879 112.458 253.01 112.296 253.186C112.137 253.358 112.057 253.594 112.057 253.892C112.057 254.3 112.208 254.608 112.51 254.817C112.815 255.022 113.201 255.125 113.668 255.125ZM120.304 251.406V256H119.131V248.364H120.264V249.557H120.363C120.542 249.169 120.814 248.857 121.179 248.622C121.543 248.384 122.014 248.264 122.591 248.264C123.108 248.264 123.56 248.37 123.948 248.582C124.336 248.791 124.637 249.109 124.853 249.537C125.068 249.961 125.176 250.498 125.176 251.148V256H124.003V251.227C124.003 250.627 123.847 250.16 123.535 249.825C123.224 249.487 122.796 249.318 122.253 249.318C121.878 249.318 121.543 249.399 121.248 249.562C120.957 249.724 120.726 249.961 120.557 250.273C120.388 250.584 120.304 250.962 120.304 251.406ZM132.729 250.074L131.675 250.372C131.609 250.196 131.511 250.026 131.382 249.86C131.256 249.691 131.083 249.552 130.865 249.442C130.646 249.333 130.366 249.278 130.025 249.278C129.557 249.278 129.168 249.386 128.856 249.602C128.548 249.814 128.394 250.084 128.394 250.412C128.394 250.704 128.5 250.934 128.712 251.103C128.924 251.272 129.256 251.413 129.706 251.526L130.84 251.804C131.523 251.97 132.031 252.223 132.366 252.565C132.701 252.903 132.868 253.339 132.868 253.872C132.868 254.31 132.742 254.701 132.49 255.045C132.242 255.39 131.894 255.662 131.446 255.861C130.999 256.06 130.479 256.159 129.885 256.159C129.106 256.159 128.462 255.99 127.951 255.652C127.441 255.314 127.118 254.82 126.982 254.17L128.096 253.892C128.202 254.303 128.402 254.611 128.697 254.817C128.995 255.022 129.385 255.125 129.865 255.125C130.412 255.125 130.846 255.009 131.168 254.777C131.493 254.542 131.655 254.26 131.655 253.932C131.655 253.667 131.562 253.445 131.377 253.266C131.191 253.083 130.906 252.947 130.522 252.858L129.249 252.56C128.55 252.394 128.036 252.137 127.708 251.789C127.383 251.438 127.221 250.999 127.221 250.472C127.221 250.041 127.342 249.66 127.583 249.328C127.829 248.997 128.162 248.737 128.583 248.548C129.007 248.359 129.488 248.264 130.025 248.264C130.78 248.264 131.373 248.43 131.804 248.761C132.239 249.093 132.547 249.53 132.729 250.074ZM136.882 256.179C136.398 256.179 135.959 256.088 135.564 255.906C135.17 255.72 134.856 255.453 134.624 255.105C134.392 254.754 134.276 254.33 134.276 253.832C134.276 253.395 134.363 253.04 134.535 252.768C134.707 252.493 134.938 252.278 135.226 252.122C135.514 251.966 135.833 251.85 136.181 251.774C136.532 251.695 136.885 251.632 137.24 251.585C137.704 251.526 138.08 251.481 138.368 251.451C138.66 251.418 138.872 251.363 139.004 251.287C139.14 251.211 139.208 251.078 139.208 250.889V250.849C139.208 250.359 139.074 249.978 138.806 249.706C138.54 249.434 138.138 249.298 137.597 249.298C137.037 249.298 136.598 249.421 136.28 249.666C135.962 249.911 135.738 250.173 135.609 250.452L134.495 250.054C134.694 249.59 134.959 249.229 135.291 248.97C135.625 248.708 135.99 248.526 136.384 248.423C136.782 248.317 137.173 248.264 137.558 248.264C137.803 248.264 138.085 248.294 138.403 248.354C138.724 248.41 139.034 248.528 139.333 248.707C139.634 248.886 139.884 249.156 140.083 249.517C140.282 249.878 140.382 250.362 140.382 250.969V256H139.208V254.966H139.149C139.069 255.132 138.936 255.309 138.751 255.498C138.565 255.687 138.318 255.848 138.01 255.98C137.702 256.113 137.326 256.179 136.882 256.179ZM137.061 255.125C137.525 255.125 137.916 255.034 138.234 254.852C138.555 254.669 138.797 254.434 138.96 254.146C139.125 253.857 139.208 253.554 139.208 253.236V252.162C139.159 252.222 139.049 252.276 138.88 252.326C138.714 252.372 138.522 252.414 138.303 252.45C138.088 252.483 137.878 252.513 137.672 252.54C137.47 252.563 137.306 252.583 137.18 252.599C136.875 252.639 136.59 252.704 136.325 252.793C136.063 252.879 135.851 253.01 135.688 253.186C135.529 253.358 135.45 253.594 135.45 253.892C135.45 254.3 135.601 254.608 135.902 254.817C136.207 255.022 136.593 255.125 137.061 255.125ZM145.625 256.159C144.909 256.159 144.293 255.99 143.776 255.652C143.259 255.314 142.861 254.848 142.583 254.255C142.304 253.662 142.165 252.984 142.165 252.222C142.165 251.446 142.308 250.762 142.593 250.168C142.881 249.572 143.282 249.106 143.796 248.771C144.313 248.433 144.916 248.264 145.605 248.264C146.142 248.264 146.626 248.364 147.057 248.562C147.488 248.761 147.841 249.04 148.116 249.398C148.391 249.756 148.562 250.173 148.628 250.651H147.455C147.365 250.303 147.167 249.994 146.858 249.726C146.553 249.454 146.142 249.318 145.625 249.318C145.168 249.318 144.767 249.437 144.422 249.676C144.081 249.911 143.814 250.245 143.622 250.675C143.433 251.103 143.338 251.605 143.338 252.182C143.338 252.772 143.431 253.286 143.617 253.723C143.806 254.161 144.071 254.5 144.412 254.742C144.757 254.984 145.161 255.105 145.625 255.105C145.93 255.105 146.207 255.052 146.456 254.946C146.704 254.84 146.915 254.688 147.087 254.489C147.259 254.29 147.382 254.051 147.455 253.773H148.628C148.562 254.223 148.398 254.629 148.136 254.991C147.877 255.349 147.534 255.634 147.107 255.846C146.683 256.055 146.189 256.159 145.625 256.159ZM153.664 248.364V249.358H149.707V248.364H153.664ZM150.86 246.534H152.034V253.812C152.034 254.144 152.082 254.393 152.178 254.558C152.277 254.721 152.403 254.83 152.556 254.886C152.712 254.939 152.876 254.966 153.048 254.966C153.177 254.966 153.283 254.959 153.366 254.946C153.449 254.929 153.515 254.916 153.565 254.906L153.804 255.96C153.724 255.99 153.613 256.02 153.471 256.05C153.328 256.083 153.147 256.099 152.929 256.099C152.597 256.099 152.272 256.028 151.954 255.886C151.639 255.743 151.377 255.526 151.169 255.234C150.963 254.943 150.86 254.575 150.86 254.131V246.534ZM155.429 256V248.364H156.603V256H155.429ZM156.026 247.091C155.797 247.091 155.6 247.013 155.434 246.857C155.272 246.701 155.191 246.514 155.191 246.295C155.191 246.077 155.272 245.889 155.434 245.734C155.6 245.578 155.797 245.5 156.026 245.5C156.255 245.5 156.45 245.578 156.613 245.734C156.778 245.889 156.861 246.077 156.861 246.295C156.861 246.514 156.778 246.701 156.613 246.857C156.45 247.013 156.255 247.091 156.026 247.091ZM161.854 256.159C161.164 256.159 160.56 255.995 160.039 255.667C159.522 255.339 159.118 254.88 158.826 254.29C158.538 253.7 158.394 253.01 158.394 252.222C158.394 251.426 158.538 250.732 158.826 250.138C159.118 249.545 159.522 249.085 160.039 248.756C160.56 248.428 161.164 248.264 161.854 248.264C162.543 248.264 163.146 248.428 163.664 248.756C164.184 249.085 164.588 249.545 164.877 250.138C165.168 250.732 165.314 251.426 165.314 252.222C165.314 253.01 165.168 253.7 164.877 254.29C164.588 254.88 164.184 255.339 163.664 255.667C163.146 255.995 162.543 256.159 161.854 256.159ZM161.854 255.105C162.378 255.105 162.808 254.971 163.146 254.702C163.485 254.434 163.735 254.081 163.897 253.643C164.06 253.206 164.141 252.732 164.141 252.222C164.141 251.711 164.06 251.236 163.897 250.795C163.735 250.354 163.485 249.998 163.146 249.726C162.808 249.454 162.378 249.318 161.854 249.318C161.33 249.318 160.899 249.454 160.561 249.726C160.223 249.998 159.973 250.354 159.811 250.795C159.648 251.236 159.567 251.711 159.567 252.222C159.567 252.732 159.648 253.206 159.811 253.643C159.973 254.081 160.223 254.434 160.561 254.702C160.899 254.971 161.33 255.105 161.854 255.105ZM168.278 251.406V256H167.105V248.364H168.239V249.557H168.338C168.517 249.169 168.789 248.857 169.153 248.622C169.518 248.384 169.989 248.264 170.565 248.264C171.082 248.264 171.535 248.37 171.923 248.582C172.31 248.791 172.612 249.109 172.827 249.537C173.043 249.961 173.151 250.498 173.151 251.148V256H171.977V251.227C171.977 250.627 171.821 250.16 171.51 249.825C171.198 249.487 170.771 249.318 170.227 249.318C169.853 249.318 169.518 249.399 169.223 249.562C168.931 249.724 168.701 249.961 168.532 250.273C168.363 250.584 168.278 250.962 168.278 251.406ZM179.988 258.864C179.789 258.864 179.612 258.847 179.456 258.814C179.3 258.784 179.192 258.754 179.133 258.724L179.431 257.69C179.716 257.763 179.968 257.79 180.187 257.77C180.405 257.75 180.599 257.652 180.768 257.477C180.941 257.304 181.098 257.024 181.241 256.636L181.459 256.04L178.635 248.364H179.908L182.016 254.449H182.096L184.204 248.364H185.476L182.235 257.114C182.089 257.508 181.908 257.835 181.693 258.093C181.478 258.355 181.227 258.549 180.942 258.675C180.661 258.801 180.342 258.864 179.988 258.864ZM189.854 256.159C189.164 256.159 188.56 255.995 188.039 255.667C187.522 255.339 187.118 254.88 186.826 254.29C186.538 253.7 186.394 253.01 186.394 252.222C186.394 251.426 186.538 250.732 186.826 250.138C187.118 249.545 187.522 249.085 188.039 248.756C188.56 248.428 189.164 248.264 189.854 248.264C190.543 248.264 191.146 248.428 191.664 248.756C192.184 249.085 192.588 249.545 192.877 250.138C193.168 250.732 193.314 251.426 193.314 252.222C193.314 253.01 193.168 253.7 192.877 254.29C192.588 254.88 192.184 255.339 191.664 255.667C191.146 255.995 190.543 256.159 189.854 256.159ZM189.854 255.105C190.378 255.105 190.808 254.971 191.146 254.702C191.485 254.434 191.735 254.081 191.897 253.643C192.06 253.206 192.141 252.732 192.141 252.222C192.141 251.711 192.06 251.236 191.897 250.795C191.735 250.354 191.485 249.998 191.146 249.726C190.808 249.454 190.378 249.318 189.854 249.318C189.33 249.318 188.899 249.454 188.561 249.726C188.223 249.998 187.973 250.354 187.811 250.795C187.648 251.236 187.567 251.711 187.567 252.222C187.567 252.732 187.648 253.206 187.811 253.643C187.973 254.081 188.223 254.434 188.561 254.702C188.899 254.971 189.33 255.105 189.854 255.105ZM199.918 252.878V248.364H201.091V256H199.918V254.707H199.838C199.659 255.095 199.381 255.425 199.003 255.697C198.625 255.965 198.148 256.099 197.571 256.099C197.094 256.099 196.67 255.995 196.298 255.786C195.927 255.574 195.635 255.256 195.423 254.832C195.211 254.404 195.105 253.866 195.105 253.216V248.364H196.278V253.136C196.278 253.693 196.434 254.137 196.746 254.469C197.061 254.8 197.462 254.966 197.949 254.966C198.241 254.966 198.537 254.891 198.839 254.742C199.144 254.593 199.399 254.364 199.604 254.056C199.813 253.748 199.918 253.355 199.918 252.878ZM208.907 256L206.581 248.364H207.814L209.464 254.21H209.544L211.175 248.364H212.427L214.038 254.19H214.118L215.768 248.364H217.001L214.675 256H213.521L211.851 250.134H211.731L210.061 256H208.907ZM218.552 256V248.364H219.726V256H218.552ZM219.149 247.091C218.92 247.091 218.723 247.013 218.557 246.857C218.395 246.701 218.314 246.514 218.314 246.295C218.314 246.077 218.395 245.889 218.557 245.734C218.723 245.578 218.92 245.5 219.149 245.5C219.378 245.5 219.573 245.578 219.736 245.734C219.901 245.889 219.984 246.077 219.984 246.295C219.984 246.514 219.901 246.701 219.736 246.857C219.573 247.013 219.378 247.091 219.149 247.091ZM223.048 245.818V256H221.875V245.818H223.048ZM226.37 245.818V256H225.197V245.818H226.37ZM232.616 256V245.818H233.789V249.577H233.888C233.975 249.444 234.094 249.275 234.246 249.07C234.402 248.861 234.624 248.675 234.913 248.513C235.204 248.347 235.599 248.264 236.096 248.264C236.739 248.264 237.306 248.425 237.796 248.746C238.287 249.068 238.67 249.524 238.945 250.114C239.22 250.704 239.357 251.4 239.357 252.202C239.357 253.01 239.22 253.711 238.945 254.305C238.67 254.895 238.288 255.352 237.801 255.677C237.314 255.998 236.752 256.159 236.116 256.159C235.625 256.159 235.232 256.078 234.938 255.915C234.643 255.75 234.415 255.562 234.256 255.354C234.097 255.142 233.975 254.966 233.888 254.827H233.749V256H232.616ZM233.769 252.182C233.769 252.759 233.854 253.267 234.023 253.708C234.192 254.146 234.439 254.489 234.763 254.737C235.088 254.982 235.486 255.105 235.957 255.105C236.447 255.105 236.857 254.976 237.185 254.717C237.516 254.455 237.765 254.104 237.93 253.663C238.099 253.219 238.184 252.725 238.184 252.182C238.184 251.645 238.101 251.161 237.935 250.73C237.773 250.296 237.526 249.953 237.195 249.701C236.866 249.446 236.454 249.318 235.957 249.318C235.479 249.318 235.078 249.439 234.754 249.681C234.429 249.92 234.183 250.254 234.018 250.685C233.852 251.113 233.769 251.612 233.769 252.182ZM244.354 256.159C243.618 256.159 242.983 255.997 242.45 255.672C241.919 255.344 241.51 254.886 241.222 254.3C240.937 253.71 240.794 253.024 240.794 252.241C240.794 251.459 240.937 250.77 241.222 250.173C241.51 249.573 241.911 249.106 242.425 248.771C242.942 248.433 243.545 248.264 244.234 248.264C244.632 248.264 245.025 248.33 245.413 248.463C245.8 248.596 246.153 248.811 246.472 249.109C246.79 249.404 247.043 249.795 247.232 250.283C247.421 250.77 247.516 251.37 247.516 252.082V252.58H241.629V251.565H246.322C246.322 251.134 246.236 250.75 246.064 250.412C245.895 250.074 245.653 249.807 245.338 249.612C245.027 249.416 244.659 249.318 244.234 249.318C243.767 249.318 243.363 249.434 243.021 249.666C242.683 249.895 242.423 250.193 242.241 250.561C242.058 250.929 241.967 251.323 241.967 251.744V252.42C241.967 252.997 242.067 253.486 242.266 253.887C242.468 254.285 242.748 254.588 243.106 254.797C243.464 255.002 243.88 255.105 244.354 255.105C244.662 255.105 244.94 255.062 245.189 254.976C245.441 254.886 245.658 254.754 245.84 254.578C246.022 254.399 246.163 254.177 246.263 253.912L247.396 254.23C247.277 254.615 247.076 254.953 246.795 255.244C246.513 255.533 246.165 255.758 245.751 255.92C245.336 256.08 244.871 256.159 244.354 256.159ZM255.485 256.179C255.001 256.179 254.562 256.088 254.168 255.906C253.773 255.72 253.46 255.453 253.228 255.105C252.996 254.754 252.88 254.33 252.88 253.832C252.88 253.395 252.966 253.04 253.138 252.768C253.311 252.493 253.541 252.278 253.83 252.122C254.118 251.966 254.436 251.85 254.784 251.774C255.135 251.695 255.488 251.632 255.843 251.585C256.307 251.526 256.683 251.481 256.972 251.451C257.263 251.418 257.475 251.363 257.608 251.287C257.744 251.211 257.812 251.078 257.812 250.889V250.849C257.812 250.359 257.678 249.978 257.409 249.706C257.144 249.434 256.741 249.298 256.201 249.298C255.641 249.298 255.202 249.421 254.884 249.666C254.565 249.911 254.342 250.173 254.212 250.452L253.099 250.054C253.298 249.59 253.563 249.229 253.894 248.97C254.229 248.708 254.594 248.526 254.988 248.423C255.386 248.317 255.777 248.264 256.161 248.264C256.406 248.264 256.688 248.294 257.006 248.354C257.328 248.41 257.638 248.528 257.936 248.707C258.238 248.886 258.488 249.156 258.687 249.517C258.886 249.878 258.985 250.362 258.985 250.969V256H257.812V254.966H257.752C257.673 255.132 257.54 255.309 257.354 255.498C257.169 255.687 256.922 255.848 256.614 255.98C256.305 256.113 255.929 256.179 255.485 256.179ZM255.664 255.125C256.128 255.125 256.519 255.034 256.837 254.852C257.159 254.669 257.401 254.434 257.563 254.146C257.729 253.857 257.812 253.554 257.812 253.236V252.162C257.762 252.222 257.653 252.276 257.484 252.326C257.318 252.372 257.126 252.414 256.907 252.45C256.692 252.483 256.481 252.513 256.276 252.54C256.073 252.563 255.909 252.583 255.783 252.599C255.478 252.639 255.193 252.704 254.928 252.793C254.666 252.879 254.454 253.01 254.292 253.186C254.133 253.358 254.053 253.594 254.053 253.892C254.053 254.3 254.204 254.608 254.506 254.817C254.811 255.022 255.197 255.125 255.664 255.125ZM261.286 256V245.818H262.459V249.577H262.558C262.645 249.444 262.764 249.275 262.916 249.07C263.072 248.861 263.294 248.675 263.583 248.513C263.874 248.347 264.269 248.264 264.766 248.264C265.409 248.264 265.976 248.425 266.466 248.746C266.957 249.068 267.339 249.524 267.615 250.114C267.89 250.704 268.027 251.4 268.027 252.202C268.027 253.01 267.89 253.711 267.615 254.305C267.339 254.895 266.958 255.352 266.471 255.677C265.984 255.998 265.422 256.159 264.786 256.159C264.295 256.159 263.902 256.078 263.607 255.915C263.312 255.75 263.085 255.562 262.926 255.354C262.767 255.142 262.645 254.966 262.558 254.827H262.419V256H261.286ZM262.439 252.182C262.439 252.759 262.524 253.267 262.693 253.708C262.862 254.146 263.109 254.489 263.433 254.737C263.758 254.982 264.156 255.105 264.627 255.105C265.117 255.105 265.526 254.976 265.855 254.717C266.186 254.455 266.435 254.104 266.6 253.663C266.769 253.219 266.854 252.725 266.854 252.182C266.854 251.645 266.771 251.161 266.605 250.73C266.443 250.296 266.196 249.953 265.865 249.701C265.536 249.446 265.124 249.318 264.627 249.318C264.149 249.318 263.748 249.439 263.423 249.681C263.099 249.92 262.853 250.254 262.688 250.685C262.522 251.113 262.439 251.612 262.439 252.182ZM270.995 245.818V256H269.822V245.818H270.995ZM276.346 256.159C275.61 256.159 274.975 255.997 274.442 255.672C273.911 255.344 273.502 254.886 273.214 254.3C272.929 253.71 272.786 253.024 272.786 252.241C272.786 251.459 272.929 250.77 273.214 250.173C273.502 249.573 273.903 249.106 274.417 248.771C274.934 248.433 275.537 248.264 276.227 248.264C276.624 248.264 277.017 248.33 277.405 248.463C277.793 248.596 278.146 248.811 278.464 249.109C278.782 249.404 279.036 249.795 279.224 250.283C279.413 250.77 279.508 251.37 279.508 252.082V252.58H273.621V251.565H278.315C278.315 251.134 278.228 250.75 278.056 250.412C277.887 250.074 277.645 249.807 277.33 249.612C277.019 249.416 276.651 249.318 276.227 249.318C275.759 249.318 275.355 249.434 275.013 249.666C274.675 249.895 274.415 250.193 274.233 250.561C274.051 250.929 273.96 251.323 273.96 251.744V252.42C273.96 252.997 274.059 253.486 274.258 253.887C274.46 254.285 274.74 254.588 275.098 254.797C275.456 255.002 275.872 255.105 276.346 255.105C276.654 255.105 276.933 255.062 277.181 254.976C277.433 254.886 277.65 254.754 277.832 254.578C278.015 254.399 278.156 254.177 278.255 253.912L279.388 254.23C279.269 254.615 279.069 254.953 278.787 255.244C278.505 255.533 278.157 255.758 277.743 255.92C277.329 256.08 276.863 256.159 276.346 256.159ZM288.551 248.364V249.358H284.594V248.364H288.551ZM285.747 246.534H286.92V253.812C286.92 254.144 286.969 254.393 287.065 254.558C287.164 254.721 287.29 254.83 287.442 254.886C287.598 254.939 287.762 254.966 287.935 254.966C288.064 254.966 288.17 254.959 288.253 254.946C288.336 254.929 288.402 254.916 288.452 254.906L288.69 255.96C288.611 255.99 288.5 256.02 288.357 256.05C288.215 256.083 288.034 256.099 287.815 256.099C287.484 256.099 287.159 256.028 286.841 255.886C286.526 255.743 286.264 255.526 286.055 255.234C285.85 254.943 285.747 254.575 285.747 254.131V246.534ZM293.336 256.159C292.647 256.159 292.042 255.995 291.522 255.667C291.005 255.339 290.6 254.88 290.309 254.29C290.02 253.7 289.876 253.01 289.876 252.222C289.876 251.426 290.02 250.732 290.309 250.138C290.6 249.545 291.005 249.085 291.522 248.756C292.042 248.428 292.647 248.264 293.336 248.264C294.026 248.264 294.629 248.428 295.146 248.756C295.666 249.085 296.071 249.545 296.359 250.138C296.651 250.732 296.797 251.426 296.797 252.222C296.797 253.01 296.651 253.7 296.359 254.29C296.071 254.88 295.666 255.339 295.146 255.667C294.629 255.995 294.026 256.159 293.336 256.159ZM293.336 255.105C293.86 255.105 294.291 254.971 294.629 254.702C294.967 254.434 295.217 254.081 295.38 253.643C295.542 253.206 295.623 252.732 295.623 252.222C295.623 251.711 295.542 251.236 295.38 250.795C295.217 250.354 294.967 249.998 294.629 249.726C294.291 249.454 293.86 249.318 293.336 249.318C292.813 249.318 292.382 249.454 292.044 249.726C291.706 249.998 291.455 250.354 291.293 250.795C291.131 251.236 291.049 251.711 291.049 252.222C291.049 252.732 291.131 253.206 291.293 253.643C291.455 254.081 291.706 254.434 292.044 254.702C292.382 254.971 292.813 255.105 293.336 255.105ZM308.769 248.364L305.945 256H304.752L301.928 248.364H303.201L305.309 254.449H305.389L307.497 248.364H308.769ZM310.318 256V248.364H311.491V256H310.318ZM310.915 247.091C310.686 247.091 310.489 247.013 310.323 246.857C310.161 246.701 310.079 246.514 310.079 246.295C310.079 246.077 310.161 245.889 310.323 245.734C310.489 245.578 310.686 245.5 310.915 245.5C311.143 245.5 311.339 245.578 311.501 245.734C311.667 245.889 311.75 246.077 311.75 246.295C311.75 246.514 311.667 246.701 311.501 246.857C311.339 247.013 311.143 247.091 310.915 247.091ZM316.842 256.159C316.106 256.159 315.471 255.997 314.938 255.672C314.408 255.344 313.998 254.886 313.71 254.3C313.425 253.71 313.282 253.024 313.282 252.241C313.282 251.459 313.425 250.77 313.71 250.173C313.998 249.573 314.399 249.106 314.913 248.771C315.43 248.433 316.033 248.264 316.723 248.264C317.12 248.264 317.513 248.33 317.901 248.463C318.289 248.596 318.642 248.811 318.96 249.109C319.278 249.404 319.532 249.795 319.721 250.283C319.909 250.77 320.004 251.37 320.004 252.082V252.58H314.118V251.565H318.811C318.811 251.134 318.725 250.75 318.552 250.412C318.383 250.074 318.141 249.807 317.826 249.612C317.515 249.416 317.147 249.318 316.723 249.318C316.255 249.318 315.851 249.434 315.51 249.666C315.172 249.895 314.911 250.193 314.729 250.561C314.547 250.929 314.456 251.323 314.456 251.744V252.42C314.456 252.997 314.555 253.486 314.754 253.887C314.956 254.285 315.236 254.588 315.594 254.797C315.952 255.002 316.368 255.105 316.842 255.105C317.15 255.105 317.429 255.062 317.677 254.976C317.929 254.886 318.146 254.754 318.328 254.578C318.511 254.399 318.652 254.177 318.751 253.912L319.885 254.23C319.765 254.615 319.565 254.953 319.283 255.244C319.001 255.533 318.653 255.758 318.239 255.92C317.825 256.08 317.359 256.159 316.842 256.159ZM323.519 256L321.192 248.364H322.425L324.076 254.21H324.155L325.786 248.364H327.039L328.65 254.19H328.729L330.38 248.364H331.613L329.286 256H328.132L326.462 250.134H326.343L324.672 256H323.519ZM337.101 256V248.364H338.275V256H337.101ZM337.698 247.091C337.469 247.091 337.272 247.013 337.106 246.857C336.944 246.701 336.863 246.514 336.863 246.295C336.863 246.077 336.944 245.889 337.106 245.734C337.272 245.578 337.469 245.5 337.698 245.5C337.926 245.5 338.122 245.578 338.284 245.734C338.45 245.889 338.533 246.077 338.533 246.295C338.533 246.514 338.45 246.701 338.284 246.857C338.122 247.013 337.926 247.091 337.698 247.091ZM343.744 248.364V249.358H339.787V248.364H343.744ZM340.941 246.534H342.114V253.812C342.114 254.144 342.162 254.393 342.258 254.558C342.357 254.721 342.483 254.83 342.636 254.886C342.792 254.939 342.956 254.966 343.128 254.966C343.257 254.966 343.363 254.959 343.446 254.946C343.529 254.929 343.595 254.916 343.645 254.906L343.884 255.96C343.804 255.99 343.693 256.02 343.551 256.05C343.408 256.083 343.227 256.099 343.009 256.099C342.677 256.099 342.352 256.028 342.034 255.886C341.719 255.743 341.458 255.526 341.249 255.234C341.043 254.943 340.941 254.575 340.941 254.131V246.534ZM350.62 251.406V256H349.447V245.818H350.62V249.557H350.72C350.899 249.162 351.167 248.849 351.525 248.617C351.886 248.382 352.367 248.264 352.967 248.264C353.487 248.264 353.943 248.369 354.334 248.577C354.725 248.783 355.028 249.099 355.244 249.527C355.463 249.951 355.572 250.491 355.572 251.148V256H354.399V251.227C354.399 250.621 354.241 250.152 353.926 249.82C353.615 249.486 353.182 249.318 352.629 249.318C352.244 249.318 351.9 249.399 351.595 249.562C351.293 249.724 351.054 249.961 350.879 250.273C350.706 250.584 350.62 250.962 350.62 251.406ZM360.92 256.159C360.184 256.159 359.55 255.997 359.016 255.672C358.486 255.344 358.076 254.886 357.788 254.3C357.503 253.71 357.36 253.024 357.36 252.241C357.36 251.459 357.503 250.77 357.788 250.173C358.076 249.573 358.477 249.106 358.991 248.771C359.508 248.433 360.111 248.264 360.801 248.264C361.199 248.264 361.591 248.33 361.979 248.463C362.367 248.596 362.72 248.811 363.038 249.109C363.356 249.404 363.61 249.795 363.799 250.283C363.988 250.77 364.082 251.37 364.082 252.082V252.58H358.196V251.565H362.889C362.889 251.134 362.803 250.75 362.63 250.412C362.461 250.074 362.219 249.807 361.904 249.612C361.593 249.416 361.225 249.318 360.801 249.318C360.333 249.318 359.929 249.434 359.588 249.666C359.25 249.895 358.989 250.193 358.807 250.561C358.625 250.929 358.534 251.323 358.534 251.744V252.42C358.534 252.997 358.633 253.486 358.832 253.887C359.034 254.285 359.314 254.588 359.672 254.797C360.03 255.002 360.446 255.105 360.92 255.105C361.228 255.105 361.507 255.062 361.755 254.976C362.007 254.886 362.224 254.754 362.407 254.578C362.589 254.399 362.73 254.177 362.829 253.912L363.963 254.23C363.843 254.615 363.643 254.953 363.361 255.244C363.079 255.533 362.731 255.758 362.317 255.92C361.903 256.08 361.437 256.159 360.92 256.159ZM365.867 256V248.364H367V249.517H367.08C367.219 249.139 367.471 248.833 367.836 248.597C368.2 248.362 368.611 248.244 369.069 248.244C369.155 248.244 369.262 248.246 369.392 248.249C369.521 248.253 369.619 248.258 369.685 248.264V249.457C369.645 249.447 369.554 249.433 369.412 249.413C369.272 249.389 369.125 249.378 368.969 249.378C368.598 249.378 368.266 249.456 367.975 249.612C367.686 249.764 367.458 249.976 367.289 250.248C367.123 250.516 367.04 250.823 367.04 251.168V256H365.867ZM374.045 256.159C373.309 256.159 372.675 255.997 372.141 255.672C371.611 255.344 371.201 254.886 370.913 254.3C370.628 253.71 370.485 253.024 370.485 252.241C370.485 251.459 370.628 250.77 370.913 250.173C371.201 249.573 371.602 249.106 372.116 248.771C372.633 248.433 373.236 248.264 373.926 248.264C374.324 248.264 374.716 248.33 375.104 248.463C375.492 248.596 375.845 248.811 376.163 249.109C376.481 249.404 376.735 249.795 376.924 250.283C377.113 250.77 377.207 251.37 377.207 252.082V252.58H371.321V251.565H376.014C376.014 251.134 375.928 250.75 375.755 250.412C375.586 250.074 375.344 249.807 375.029 249.612C374.718 249.416 374.35 249.318 373.926 249.318C373.458 249.318 373.054 249.434 372.713 249.666C372.375 249.895 372.114 250.193 371.932 250.561C371.75 250.929 371.659 251.323 371.659 251.744V252.42C371.659 252.997 371.758 253.486 371.957 253.887C372.159 254.285 372.439 254.588 372.797 254.797C373.155 255.002 373.571 255.105 374.045 255.105C374.353 255.105 374.632 255.062 374.88 254.976C375.132 254.886 375.349 254.754 375.532 254.578C375.714 254.399 375.855 254.177 375.954 253.912L377.088 254.23C376.968 254.615 376.768 254.953 376.486 255.244C376.204 255.533 375.856 255.758 375.442 255.92C375.028 256.08 374.562 256.159 374.045 256.159Z" fill="#83879B"/>
<path d="M113.759 211.182V225H111.235L105.224 216.303H105.123V225H102.201V211.182H104.765L110.729 219.872H110.851V211.182H113.759ZM121.201 225.202C120.153 225.202 119.247 224.98 118.482 224.534C117.722 224.085 117.135 223.459 116.721 222.659C116.307 221.854 116.1 220.92 116.1 219.859C116.1 218.788 116.307 217.853 116.721 217.052C117.135 216.247 117.722 215.621 118.482 215.176C119.247 214.726 120.153 214.501 121.201 214.501C122.249 214.501 123.153 214.726 123.914 215.176C124.678 215.621 125.268 216.247 125.681 217.052C126.095 217.853 126.302 218.788 126.302 219.859C126.302 220.92 126.095 221.854 125.681 222.659C125.268 223.459 124.678 224.085 123.914 224.534C123.153 224.98 122.249 225.202 121.201 225.202ZM121.215 222.976C121.692 222.976 122.09 222.841 122.409 222.571C122.728 222.297 122.969 221.923 123.131 221.451C123.297 220.979 123.381 220.441 123.381 219.838C123.381 219.236 123.297 218.698 123.131 218.226C122.969 217.754 122.728 217.38 122.409 217.106C122.09 216.831 121.692 216.694 121.215 216.694C120.733 216.694 120.329 216.831 120 217.106C119.676 217.38 119.431 217.754 119.265 218.226C119.103 218.698 119.022 219.236 119.022 219.838C119.022 220.441 119.103 220.979 119.265 221.451C119.431 221.923 119.676 222.297 120 222.571C120.329 222.841 120.733 222.976 121.215 222.976ZM138.881 214.636V216.795H132.64V214.636H138.881ZM134.057 212.153H136.931V221.815C136.931 222.081 136.971 222.288 137.052 222.436C137.133 222.58 137.246 222.681 137.39 222.74C137.538 222.798 137.709 222.827 137.903 222.827C138.038 222.827 138.172 222.816 138.307 222.794C138.442 222.767 138.546 222.746 138.618 222.733L139.07 224.872C138.926 224.917 138.723 224.969 138.463 225.027C138.202 225.09 137.885 225.128 137.511 225.142C136.819 225.169 136.211 225.076 135.69 224.865C135.172 224.654 134.77 224.325 134.482 223.88C134.194 223.435 134.052 222.872 134.057 222.193V212.153ZM141.153 225V214.636H143.94V216.445H144.048C144.237 215.801 144.554 215.316 144.999 214.987C145.444 214.654 145.957 214.488 146.537 214.488C146.681 214.488 146.837 214.497 147.003 214.515C147.169 214.533 147.316 214.558 147.442 214.589V217.14C147.307 217.099 147.12 217.063 146.882 217.032C146.643 217 146.425 216.984 146.227 216.984C145.804 216.984 145.426 217.077 145.094 217.261C144.765 217.441 144.504 217.693 144.311 218.017C144.122 218.341 144.028 218.714 144.028 219.137V225H141.153ZM151.986 225.196C151.325 225.196 150.736 225.081 150.218 224.852C149.701 224.618 149.292 224.274 148.99 223.819C148.693 223.36 148.545 222.789 148.545 222.105C148.545 221.53 148.651 221.046 148.862 220.655C149.074 220.263 149.361 219.949 149.726 219.71C150.09 219.472 150.504 219.292 150.967 219.17C151.435 219.049 151.925 218.964 152.438 218.914C153.041 218.851 153.527 218.793 153.896 218.739C154.264 218.68 154.532 218.595 154.698 218.482C154.865 218.37 154.948 218.203 154.948 217.983V217.942C154.948 217.515 154.813 217.185 154.543 216.951C154.278 216.717 153.9 216.6 153.41 216.6C152.892 216.6 152.481 216.714 152.175 216.944C151.869 217.169 151.667 217.452 151.568 217.794L148.909 217.578C149.044 216.948 149.31 216.404 149.706 215.945C150.101 215.482 150.612 215.127 151.237 214.879C151.867 214.627 152.596 214.501 153.423 214.501C153.999 214.501 154.55 214.569 155.076 214.704C155.607 214.839 156.077 215.048 156.486 215.331C156.9 215.615 157.226 215.979 157.465 216.424C157.703 216.865 157.822 217.394 157.822 218.01V225H155.097V223.563H155.016C154.849 223.887 154.626 224.172 154.348 224.42C154.069 224.663 153.734 224.854 153.342 224.993C152.951 225.128 152.499 225.196 151.986 225.196ZM152.809 223.212C153.232 223.212 153.605 223.129 153.929 222.962C154.253 222.791 154.507 222.562 154.692 222.274C154.876 221.986 154.968 221.66 154.968 221.296V220.196C154.878 220.254 154.755 220.308 154.597 220.358C154.444 220.403 154.271 220.446 154.078 220.486C153.884 220.522 153.691 220.556 153.497 220.587C153.304 220.614 153.129 220.639 152.971 220.662C152.634 220.711 152.339 220.79 152.087 220.898C151.835 221.006 151.64 221.152 151.5 221.336C151.361 221.516 151.291 221.741 151.291 222.011C151.291 222.402 151.433 222.701 151.716 222.908C152.004 223.111 152.368 223.212 152.809 223.212ZM163.327 219.009V225H160.452V214.636H163.192V216.465H163.313C163.542 215.862 163.927 215.385 164.467 215.034C165.007 214.679 165.661 214.501 166.43 214.501C167.15 214.501 167.777 214.659 168.313 214.974C168.848 215.289 169.264 215.738 169.561 216.323C169.858 216.903 170.006 217.596 170.006 218.401V225H167.132V218.914C167.136 218.28 166.975 217.785 166.646 217.43C166.318 217.07 165.866 216.89 165.29 216.89C164.903 216.89 164.561 216.973 164.264 217.14C163.972 217.306 163.743 217.549 163.576 217.868C163.414 218.183 163.331 218.563 163.327 219.009ZM181.294 217.592L178.663 217.754C178.618 217.529 178.521 217.326 178.373 217.146C178.225 216.962 178.029 216.816 177.786 216.708C177.548 216.595 177.262 216.539 176.929 216.539C176.484 216.539 176.108 216.634 175.802 216.822C175.496 217.007 175.344 217.254 175.344 217.565C175.344 217.812 175.442 218.021 175.64 218.192C175.838 218.363 176.178 218.5 176.659 218.604L178.535 218.982C179.542 219.188 180.294 219.521 180.788 219.98C181.283 220.439 181.531 221.042 181.531 221.788C181.531 222.468 181.33 223.064 180.93 223.576C180.534 224.089 179.99 224.489 179.297 224.777C178.609 225.061 177.815 225.202 176.916 225.202C175.544 225.202 174.451 224.917 173.636 224.346C172.827 223.77 172.352 222.987 172.213 221.998L175.04 221.849C175.125 222.267 175.332 222.587 175.661 222.807C175.989 223.023 176.41 223.131 176.922 223.131C177.426 223.131 177.831 223.034 178.137 222.841C178.447 222.643 178.605 222.389 178.609 222.078C178.605 221.818 178.494 221.604 178.279 221.438C178.063 221.267 177.73 221.136 177.28 221.046L175.485 220.689C174.473 220.486 173.72 220.135 173.225 219.636C172.735 219.137 172.489 218.5 172.489 217.727C172.489 217.061 172.669 216.487 173.029 216.006C173.394 215.525 173.904 215.154 174.561 214.893C175.222 214.632 175.996 214.501 176.882 214.501C178.191 214.501 179.221 214.778 179.972 215.331C180.728 215.885 181.169 216.638 181.294 217.592ZM186.696 225.196C186.035 225.196 185.445 225.081 184.928 224.852C184.411 224.618 184.001 224.274 183.7 223.819C183.403 223.36 183.255 222.789 183.255 222.105C183.255 221.53 183.36 221.046 183.572 220.655C183.783 220.263 184.071 219.949 184.436 219.71C184.8 219.472 185.214 219.292 185.677 219.17C186.145 219.049 186.635 218.964 187.148 218.914C187.751 218.851 188.236 218.793 188.605 218.739C188.974 218.68 189.242 218.595 189.408 218.482C189.575 218.37 189.658 218.203 189.658 217.983V217.942C189.658 217.515 189.523 217.185 189.253 216.951C188.988 216.717 188.61 216.6 188.119 216.6C187.602 216.6 187.191 216.714 186.885 216.944C186.579 217.169 186.376 217.452 186.278 217.794L183.619 217.578C183.754 216.948 184.019 216.404 184.415 215.945C184.811 215.482 185.322 215.127 185.947 214.879C186.577 214.627 187.305 214.501 188.133 214.501C188.709 214.501 189.26 214.569 189.786 214.704C190.317 214.839 190.787 215.048 191.196 215.331C191.61 215.615 191.936 215.979 192.175 216.424C192.413 216.865 192.532 217.394 192.532 218.01V225H189.806V223.563H189.725C189.559 223.887 189.336 224.172 189.057 224.42C188.778 224.663 188.443 224.854 188.052 224.993C187.661 225.128 187.209 225.196 186.696 225.196ZM187.519 223.212C187.942 223.212 188.315 223.129 188.639 222.962C188.963 222.791 189.217 222.562 189.401 222.274C189.586 221.986 189.678 221.66 189.678 221.296V220.196C189.588 220.254 189.464 220.308 189.307 220.358C189.154 220.403 188.981 220.446 188.787 220.486C188.594 220.522 188.401 220.556 188.207 220.587C188.014 220.614 187.838 220.639 187.681 220.662C187.344 220.711 187.049 220.79 186.797 220.898C186.545 221.006 186.349 221.152 186.21 221.336C186.071 221.516 186.001 221.741 186.001 222.011C186.001 222.402 186.143 222.701 186.426 222.908C186.714 223.111 187.078 223.212 187.519 223.212ZM199.845 225.202C198.783 225.202 197.87 224.978 197.105 224.528C196.345 224.073 195.76 223.444 195.351 222.638C194.946 221.833 194.744 220.907 194.744 219.859C194.744 218.797 194.948 217.866 195.358 217.065C195.772 216.26 196.359 215.633 197.119 215.183C197.879 214.729 198.783 214.501 199.831 214.501C200.735 214.501 201.527 214.666 202.206 214.994C202.885 215.322 203.423 215.783 203.819 216.377C204.214 216.971 204.433 217.668 204.473 218.469H201.761C201.684 217.951 201.482 217.535 201.154 217.221C200.83 216.901 200.405 216.741 199.878 216.741C199.433 216.741 199.044 216.863 198.711 217.106C198.383 217.344 198.126 217.693 197.942 218.152C197.757 218.61 197.665 219.166 197.665 219.818C197.665 220.479 197.755 221.042 197.935 221.505C198.12 221.968 198.378 222.321 198.711 222.564C199.044 222.807 199.433 222.929 199.878 222.929C200.207 222.929 200.501 222.861 200.762 222.726C201.028 222.591 201.246 222.396 201.417 222.139C201.592 221.878 201.707 221.566 201.761 221.201H204.473C204.428 221.993 204.212 222.69 203.825 223.293C203.443 223.891 202.915 224.359 202.24 224.696C201.565 225.034 200.767 225.202 199.845 225.202ZM212.226 214.636V216.795H205.985V214.636H212.226ZM207.402 212.153H210.276V221.815C210.276 222.081 210.316 222.288 210.397 222.436C210.478 222.58 210.591 222.681 210.735 222.74C210.883 222.798 211.054 222.827 211.248 222.827C211.382 222.827 211.517 222.816 211.652 222.794C211.787 222.767 211.891 222.746 211.963 222.733L212.415 224.872C212.271 224.917 212.068 224.969 211.808 225.027C211.547 225.09 211.23 225.128 210.856 225.142C210.163 225.169 209.556 225.076 209.034 224.865C208.517 224.654 208.115 224.325 207.827 223.88C207.539 223.435 207.397 222.872 207.402 222.193V212.153ZM214.498 225V214.636H217.372V225H214.498ZM215.942 213.3C215.515 213.3 215.148 213.159 214.842 212.875C214.541 212.587 214.39 212.243 214.39 211.843C214.39 211.447 214.541 211.108 214.842 210.824C215.148 210.536 215.515 210.392 215.942 210.392C216.369 210.392 216.734 210.536 217.035 210.824C217.341 211.108 217.494 211.447 217.494 211.843C217.494 212.243 217.341 212.587 217.035 212.875C216.734 213.159 216.369 213.3 215.942 213.3ZM224.757 225.202C223.709 225.202 222.803 224.98 222.038 224.534C221.278 224.085 220.691 223.459 220.277 222.659C219.864 221.854 219.657 220.92 219.657 219.859C219.657 218.788 219.864 217.853 220.277 217.052C220.691 216.247 221.278 215.621 222.038 215.176C222.803 214.726 223.709 214.501 224.757 214.501C225.806 214.501 226.71 214.726 227.47 215.176C228.235 215.621 228.824 216.247 229.238 217.052C229.651 217.853 229.858 218.788 229.858 219.859C229.858 220.92 229.651 221.854 229.238 222.659C228.824 223.459 228.235 224.085 227.47 224.534C226.71 224.98 225.806 225.202 224.757 225.202ZM224.771 222.976C225.248 222.976 225.646 222.841 225.965 222.571C226.285 222.297 226.525 221.923 226.687 221.451C226.854 220.979 226.937 220.441 226.937 219.838C226.937 219.236 226.854 218.698 226.687 218.226C226.525 217.754 226.285 217.38 225.965 217.106C225.646 216.831 225.248 216.694 224.771 216.694C224.29 216.694 223.885 216.831 223.556 217.106C223.233 217.38 222.987 217.754 222.821 218.226C222.659 218.698 222.578 219.236 222.578 219.838C222.578 220.441 222.659 220.979 222.821 221.451C222.987 221.923 223.233 222.297 223.556 222.571C223.885 222.841 224.29 222.976 224.771 222.976ZM235.002 219.009V225H232.127V214.636H234.867V216.465H234.988C235.217 215.862 235.602 215.385 236.142 215.034C236.682 214.679 237.336 214.501 238.105 214.501C238.825 214.501 239.452 214.659 239.988 214.974C240.523 215.289 240.939 215.738 241.236 216.323C241.533 216.903 241.681 217.596 241.681 218.401V225H238.807V218.914C238.811 218.28 238.65 217.785 238.321 217.43C237.993 217.07 237.541 216.89 236.965 216.89C236.578 216.89 236.236 216.973 235.939 217.14C235.647 217.306 235.418 217.549 235.251 217.868C235.089 218.183 235.006 218.563 235.002 219.009ZM252.97 217.592L250.338 217.754C250.293 217.529 250.196 217.326 250.048 217.146C249.9 216.962 249.704 216.816 249.461 216.708C249.223 216.595 248.937 216.539 248.604 216.539C248.159 216.539 247.783 216.634 247.477 216.822C247.171 217.007 247.019 217.254 247.019 217.565C247.019 217.812 247.117 218.021 247.315 218.192C247.513 218.363 247.853 218.5 248.334 218.604L250.21 218.982C251.217 219.188 251.969 219.521 252.463 219.98C252.958 220.439 253.206 221.042 253.206 221.788C253.206 222.468 253.005 223.064 252.605 223.576C252.209 224.089 251.665 224.489 250.972 224.777C250.284 225.061 249.49 225.202 248.591 225.202C247.219 225.202 246.126 224.917 245.311 224.346C244.502 223.77 244.027 222.987 243.888 221.998L246.715 221.849C246.8 222.267 247.007 222.587 247.336 222.807C247.664 223.023 248.085 223.131 248.597 223.131C249.101 223.131 249.506 223.034 249.812 222.841C250.122 222.643 250.28 222.389 250.284 222.078C250.28 221.818 250.169 221.604 249.954 221.438C249.738 221.267 249.405 221.136 248.955 221.046L247.16 220.689C246.148 220.486 245.395 220.135 244.9 219.636C244.41 219.137 244.164 218.5 244.164 217.727C244.164 217.061 244.344 216.487 244.704 216.006C245.069 215.525 245.579 215.154 246.236 214.893C246.897 214.632 247.671 214.501 248.557 214.501C249.866 214.501 250.896 214.778 251.647 215.331C252.403 215.885 252.844 216.638 252.97 217.592ZM261.988 228.886C261.623 228.886 261.281 228.857 260.962 228.799C260.647 228.745 260.386 228.675 260.179 228.589L260.827 226.444C261.164 226.547 261.468 226.604 261.738 226.613C262.012 226.622 262.248 226.559 262.446 226.424C262.649 226.289 262.813 226.059 262.939 225.735L263.108 225.297L259.39 214.636H262.413L264.558 222.247H264.666L266.832 214.636H269.875L265.847 226.12C265.653 226.678 265.39 227.164 265.057 227.577C264.729 227.996 264.313 228.317 263.809 228.542C263.305 228.772 262.698 228.886 261.988 228.886ZM276.135 225.202C275.069 225.202 274.151 224.987 273.382 224.555C272.617 224.118 272.028 223.502 271.614 222.706C271.2 221.905 270.994 220.958 270.994 219.865C270.994 218.799 271.2 217.864 271.614 217.059C272.028 216.253 272.611 215.626 273.362 215.176C274.117 214.726 275.004 214.501 276.02 214.501C276.704 214.501 277.34 214.612 277.93 214.832C278.523 215.048 279.041 215.374 279.481 215.81C279.927 216.247 280.273 216.795 280.521 217.457C280.768 218.113 280.892 218.883 280.892 219.764V220.554H272.141V218.772H278.186C278.186 218.359 278.096 217.992 277.916 217.673C277.736 217.353 277.487 217.104 277.167 216.924C276.852 216.739 276.486 216.647 276.067 216.647C275.631 216.647 275.244 216.748 274.907 216.951C274.574 217.149 274.313 217.416 274.124 217.754C273.935 218.086 273.839 218.458 273.834 218.867V220.56C273.834 221.073 273.929 221.516 274.117 221.89C274.311 222.263 274.583 222.551 274.934 222.753C275.285 222.956 275.701 223.057 276.182 223.057C276.501 223.057 276.794 223.012 277.059 222.922C277.325 222.832 277.552 222.697 277.741 222.517C277.93 222.337 278.074 222.117 278.173 221.856L280.831 222.031C280.696 222.67 280.419 223.228 280.001 223.705C279.587 224.177 279.052 224.546 278.395 224.811C277.743 225.072 276.99 225.202 276.135 225.202ZM288.68 214.636V216.795H282.439V214.636H288.68ZM283.856 212.153H286.73V221.815C286.73 222.081 286.77 222.288 286.851 222.436C286.932 222.58 287.045 222.681 287.189 222.74C287.337 222.798 287.508 222.827 287.701 222.827C287.836 222.827 287.971 222.816 288.106 222.794C288.241 222.767 288.345 222.746 288.417 222.733L288.869 224.872C288.725 224.917 288.522 224.969 288.261 225.027C288.001 225.09 287.683 225.128 287.31 225.142C286.617 225.169 286.01 225.076 285.488 224.865C284.971 224.654 284.568 224.325 284.281 223.88C283.993 223.435 283.851 222.872 283.856 222.193V212.153Z" fill="#1F28EB"/>
<defs>
<clipPath id="clip0_1_4834">
<rect width="204.006" height="172.568" fill="white" transform="translate(90)"/>
</clipPath>
</defs>
</svg>
