<svg width="642" height="42" viewBox="0 0 642 42" fill="none" xmlns="http://www.w3.org/2000/svg">
<circle cx="44.3384" cy="10.3133" r="9.76959" fill="#0177FD"/>
<path d="M44.8836 5.53283V14.2576H43.781V6.90948L41.5581 7.71997V6.72473L44.7107 5.53283H44.8836Z" fill="white"/>
<rect x="54.1079" y="9.22778" width="256.723" height="1.62826" fill="#B1B4C3"/>
<path d="M0.954061 38.6814V29.9973H4.04946C4.72225 29.9973 5.28055 30.1132 5.72437 30.345C6.17101 30.5768 6.50458 30.8977 6.72507 31.3076C6.94556 31.7146 7.05581 32.1853 7.05581 32.7196C7.05581 33.251 6.94415 33.7189 6.72083 34.1231C6.50034 34.5245 6.16677 34.8369 5.72013 35.0602C5.27631 35.2835 4.71801 35.3952 4.04522 35.3952H1.70035V34.2673H3.92649C4.35052 34.2673 4.69539 34.2065 4.96112 34.0849C5.22967 33.9634 5.42613 33.7867 5.55051 33.5549C5.6749 33.3231 5.73709 33.0447 5.73709 32.7196C5.73709 32.3917 5.67348 32.1076 5.54627 31.8673C5.42189 31.627 5.22543 31.4433 4.95688 31.316C4.69115 31.186 4.34204 31.121 3.90953 31.121H2.2643V38.6814H0.954061ZM5.24098 34.7634L7.38655 38.6814H5.89398L3.7908 34.7634H5.24098ZM11.2738 38.8128C10.6321 38.8128 10.0795 38.6757 9.61587 38.4015C9.1551 38.1245 8.79892 37.7358 8.54733 37.2355C8.29856 36.7323 8.17418 36.1429 8.17418 35.4673C8.17418 34.8001 8.29856 34.2122 8.54733 33.7033C8.79892 33.1945 9.14944 32.7973 9.59891 32.5118C10.0512 32.2263 10.5798 32.0835 11.1848 32.0835C11.5523 32.0835 11.9084 32.1443 12.2533 32.2659C12.5982 32.3874 12.9077 32.5782 13.1819 32.8383C13.4561 33.0984 13.6724 33.4362 13.8307 33.8517C13.989 34.2644 14.0682 34.7662 14.0682 35.357V35.8065H8.89079V34.8567H12.8258C12.8258 34.5231 12.7579 34.2277 12.6222 33.9705C12.4865 33.7104 12.2957 33.5054 12.0498 33.3556C11.8067 33.2058 11.5212 33.1309 11.1933 33.1309C10.8371 33.1309 10.5261 33.2185 10.2604 33.3938C9.9975 33.5662 9.79397 33.7924 9.6498 34.0722C9.50845 34.3493 9.43778 34.6503 9.43778 34.9754V35.7174C9.43778 36.1528 9.51411 36.5231 9.66676 36.8284C9.82223 37.1337 10.0385 37.3669 10.3155 37.528C10.5926 37.6863 10.9162 37.7655 11.2865 37.7655C11.5268 37.7655 11.7459 37.7316 11.9438 37.6637C12.1417 37.5931 12.3127 37.4885 12.4569 37.35C12.601 37.2114 12.7113 37.0404 12.7876 36.8369L13.9876 37.0531C13.8915 37.4065 13.719 37.716 13.4703 37.9818C13.2243 38.2446 12.9148 38.4496 12.5417 38.5966C12.1713 38.7408 11.7487 38.8128 11.2738 38.8128ZM18.2183 38.8128C17.5879 38.8128 17.0452 38.6701 16.5901 38.3846C16.1378 38.0962 15.7901 37.6991 15.547 37.1931C15.3038 36.6871 15.1823 36.1076 15.1823 35.4545C15.1823 34.7931 15.3067 34.2093 15.5554 33.7033C15.8042 33.1945 16.1547 32.7973 16.607 32.5118C17.0593 32.2263 17.5922 32.0835 18.2056 32.0835C18.7003 32.0835 19.1413 32.1754 19.5286 32.3592C19.9158 32.5401 20.2282 32.7945 20.4657 33.1224C20.706 33.4503 20.8487 33.8334 20.8939 34.2715H19.66C19.5922 33.9662 19.4367 33.7033 19.1936 33.4828C18.9533 33.2623 18.631 33.1521 18.2268 33.1521C17.8734 33.1521 17.5639 33.2454 17.2982 33.4319C17.0353 33.6157 16.8303 33.8786 16.6833 34.2206C16.5364 34.5599 16.4629 34.9613 16.4629 35.4249C16.4629 35.8998 16.5349 36.3097 16.6791 36.6545C16.8233 36.9994 17.0268 37.2666 17.2897 37.456C17.5554 37.6454 17.8678 37.7401 18.2268 37.7401C18.4671 37.7401 18.6848 37.6962 18.8798 37.6086C19.0777 37.5181 19.2431 37.3895 19.3759 37.2227C19.5116 37.056 19.6063 36.8553 19.66 36.6206H20.8939C20.8487 37.0418 20.7116 37.4178 20.4826 37.7485C20.2537 38.0793 19.9469 38.3393 19.5625 38.5287C19.1809 38.7181 18.7328 38.8128 18.2183 38.8128ZM22.2498 38.6814V32.1683H23.5176V38.6814H22.2498ZM22.89 31.1634C22.6695 31.1634 22.4802 31.0899 22.3218 30.9429C22.1664 30.7931 22.0886 30.615 22.0886 30.4086C22.0886 30.1994 22.1664 30.0213 22.3218 29.8744C22.4802 29.7245 22.6695 29.6496 22.89 29.6496C23.1105 29.6496 23.2985 29.7245 23.454 29.8744C23.6123 30.0213 23.6915 30.1994 23.6915 30.4086C23.6915 30.615 23.6123 30.7931 23.454 30.9429C23.2985 31.0899 23.1105 31.1634 22.89 31.1634ZM25.2233 41.1238V32.1683H26.4614V33.2242H26.5674C26.6409 33.0885 26.7469 32.9316 26.8854 32.7535C27.024 32.5754 27.2162 32.4199 27.4621 32.2871C27.7081 32.1514 28.0331 32.0835 28.4374 32.0835C28.9632 32.0835 29.4324 32.2164 29.8451 32.4821C30.2579 32.7478 30.5815 33.1309 30.8162 33.6312C31.0536 34.1316 31.1724 34.7337 31.1724 35.4376C31.1724 36.1415 31.055 36.745 30.8204 37.2482C30.5858 37.7485 30.2635 38.1344 29.8536 38.4058C29.4437 38.6743 28.9759 38.8086 28.4501 38.8086C28.0543 38.8086 27.7307 38.7422 27.4791 38.6093C27.2303 38.4765 27.0353 38.321 26.8939 38.1429C26.7526 37.9648 26.6437 37.8065 26.5674 37.668H26.4911V41.1238H25.2233ZM26.4657 35.4249C26.4657 35.8828 26.5321 36.2842 26.6649 36.6291C26.7978 36.974 26.99 37.2439 27.2416 37.439C27.4932 37.6312 27.8013 37.7273 28.166 37.7273C28.5448 37.7273 28.8614 37.627 29.1158 37.4263C29.3702 37.2227 29.5625 36.9471 29.6925 36.5994C29.8254 36.2517 29.8918 35.8602 29.8918 35.4249C29.8918 34.9952 29.8268 34.6093 29.6967 34.2673C29.5695 33.9252 29.3773 33.6553 29.1201 33.4574C28.8656 33.2595 28.5476 33.1606 28.166 33.1606C27.7985 33.1606 27.4876 33.2553 27.2331 33.4447C26.9816 33.6341 26.7907 33.8984 26.6607 34.2376C26.5307 34.5768 26.4657 34.9726 26.4657 35.4249ZM32.5928 38.6814V32.1683H33.8607V38.6814H32.5928ZM33.2331 31.1634C33.0126 31.1634 32.8232 31.0899 32.6649 30.9429C32.5095 30.7931 32.4317 30.615 32.4317 30.4086C32.4317 30.1994 32.5095 30.0213 32.6649 29.8744C32.8232 29.7245 33.0126 29.6496 33.2331 29.6496C33.4536 29.6496 33.6416 29.7245 33.7971 29.8744C33.9554 30.0213 34.0345 30.1994 34.0345 30.4086C34.0345 30.615 33.9554 30.7931 33.7971 30.9429C33.6416 31.0899 33.4536 31.1634 33.2331 31.1634ZM38.3734 38.8128C37.7317 38.8128 37.179 38.6757 36.7154 38.4015C36.2547 38.1245 35.8985 37.7358 35.6469 37.2355C35.3981 36.7323 35.2738 36.1429 35.2738 35.4673C35.2738 34.8001 35.3981 34.2122 35.6469 33.7033C35.8985 33.1945 36.249 32.7973 36.6985 32.5118C37.1508 32.2263 37.6794 32.0835 38.2843 32.0835C38.6518 32.0835 39.008 32.1443 39.3529 32.2659C39.6978 32.3874 40.0073 32.5782 40.2815 32.8383C40.5557 33.0984 40.772 33.4362 40.9303 33.8517C41.0886 34.2644 41.1677 34.7662 41.1677 35.357V35.8065H35.9904V34.8567H39.9253C39.9253 34.5231 39.8575 34.2277 39.7218 33.9705C39.5861 33.7104 39.3953 33.5054 39.1494 33.3556C38.9063 33.2058 38.6207 33.1309 38.2928 33.1309C37.9366 33.1309 37.6257 33.2185 37.36 33.3938C37.0971 33.5662 36.8935 33.7924 36.7494 34.0722C36.608 34.3493 36.5374 34.6503 36.5374 34.9754V35.7174C36.5374 36.1528 36.6137 36.5231 36.7663 36.8284C36.9218 37.1337 37.1381 37.3669 37.4151 37.528C37.6921 37.6863 38.0158 37.7655 38.3861 37.7655C38.6264 37.7655 38.8455 37.7316 39.0434 37.6637C39.2412 37.5931 39.4123 37.4885 39.5564 37.35C39.7006 37.2114 39.8108 37.0404 39.8872 36.8369L41.0872 37.0531C40.9911 37.4065 40.8186 37.716 40.5699 37.9818C40.3239 38.2446 40.0144 38.4496 39.6412 38.5966C39.2709 38.7408 38.8483 38.8128 38.3734 38.8128ZM43.8423 34.8143V38.6814H42.5744V32.1683H43.7914V33.2284H43.872C44.0218 32.8835 44.2564 32.6065 44.5759 32.3973C44.8981 32.1881 45.3038 32.0835 45.7928 32.0835C46.2366 32.0835 46.6253 32.1768 46.9589 32.3634C47.2925 32.5471 47.5511 32.8213 47.7349 33.186C47.9186 33.5507 48.0105 34.0016 48.0105 34.5387V38.6814H46.7426V34.6913C46.7426 34.2192 46.6197 33.8503 46.3737 33.5846C46.1278 33.316 45.79 33.1818 45.3603 33.1818C45.0663 33.1818 44.8048 33.2454 44.5759 33.3726C44.3497 33.4998 44.1702 33.6864 44.0373 33.9323C43.9073 34.1754 43.8423 34.4694 43.8423 34.8143ZM52.7511 32.1683V33.186H49.1935V32.1683H52.7511ZM50.1476 30.6079H51.4154V36.769C51.4154 37.015 51.4522 37.2001 51.5257 37.3245C51.5992 37.4461 51.6939 37.5295 51.8098 37.5747C51.9285 37.6171 52.0571 37.6383 52.1956 37.6383C52.2974 37.6383 52.3864 37.6312 52.4628 37.6171C52.5391 37.603 52.5984 37.5916 52.6408 37.5832L52.8698 38.6305C52.7963 38.6588 52.6917 38.6871 52.556 38.7153C52.4204 38.7464 52.2507 38.7634 52.0472 38.7662C51.7136 38.7719 51.4027 38.7125 51.1143 38.5881C50.826 38.4637 50.5928 38.2715 50.4147 38.0114C50.2366 37.7514 50.1476 37.4249 50.1476 37.0319V30.6079Z" fill="#0177FD"/>
<circle cx="320.77" cy="10.3133" r="9.76959" fill="#B1B4C3"/>
<path d="M323.377 13.3517V14.2576H317.697V13.465L320.54 10.3004C320.89 9.91109 321.16 9.58133 321.35 9.31117C321.545 9.03703 321.68 8.79269 321.756 8.57815C321.835 8.35963 321.875 8.13714 321.875 7.91068C321.875 7.62462 321.815 7.36638 321.696 7.13594C321.581 6.90153 321.41 6.7148 321.184 6.57575C320.957 6.43669 320.683 6.36716 320.361 6.36716C319.976 6.36716 319.654 6.44265 319.396 6.59363C319.141 6.74063 318.951 6.94722 318.824 7.21342C318.696 7.47961 318.633 7.78553 318.633 8.13118H317.53C317.53 7.6425 317.638 7.19554 317.852 6.79029C318.067 6.38504 318.385 6.06323 318.806 5.82485C319.227 5.58249 319.745 5.46132 320.361 5.46132C320.909 5.46132 321.378 5.55866 321.768 5.75333C322.157 5.94404 322.455 6.2142 322.662 6.56383C322.872 6.90948 322.977 7.31473 322.977 7.77957C322.977 8.03384 322.934 8.29209 322.846 8.55431C322.763 8.81255 322.646 9.0708 322.495 9.32905C322.348 9.58729 322.175 9.84156 321.976 10.0919C321.782 10.3422 321.573 10.5885 321.35 10.8308L319.026 13.3517H323.377Z" fill="white"/>
<path d="M298.69 32.2786C298.645 31.8772 298.459 31.5662 298.131 31.3457C297.803 31.1224 297.39 31.0107 296.893 31.0107C296.536 31.0107 296.228 31.0673 295.968 31.1804C295.708 31.2906 295.506 31.4433 295.362 31.6383C295.22 31.8305 295.15 32.0496 295.15 32.2955C295.15 32.5019 295.198 32.68 295.294 32.8298C295.393 32.9796 295.522 33.1054 295.68 33.2072C295.841 33.3061 296.013 33.3895 296.197 33.4574C296.381 33.5224 296.558 33.5761 296.727 33.6185L297.575 33.839C297.852 33.9069 298.136 33.9987 298.428 34.1146C298.719 34.2305 298.989 34.3832 299.237 34.5726C299.486 34.762 299.687 34.9966 299.84 35.2765C299.995 35.5563 300.073 35.8913 300.073 36.2814C300.073 36.7733 299.946 37.21 299.691 37.5916C299.44 37.9733 299.073 38.2743 298.593 38.4948C298.115 38.7153 297.537 38.8256 296.859 38.8256C296.208 38.8256 295.646 38.7224 295.171 38.516C294.696 38.3097 294.324 38.0171 294.056 37.6383C293.787 37.2567 293.639 36.8044 293.611 36.2814H294.925C294.951 36.5952 295.052 36.8567 295.23 37.0659C295.411 37.2722 295.642 37.4263 295.922 37.528C296.204 37.627 296.514 37.6765 296.85 37.6765C297.22 37.6765 297.55 37.6185 297.838 37.5026C298.129 37.3839 298.358 37.2199 298.525 37.0107C298.692 36.7987 298.775 36.5514 298.775 36.2687C298.775 36.0114 298.702 35.8008 298.555 35.6369C298.411 35.4729 298.214 35.3372 297.965 35.2298C297.719 35.1224 297.441 35.0277 297.13 34.9457L296.104 34.6659C295.408 34.4765 294.857 34.198 294.45 33.8305C294.046 33.463 293.844 32.9768 293.844 32.3719C293.844 31.8715 293.98 31.4348 294.251 31.0616C294.522 30.6885 294.89 30.3987 295.353 30.1924C295.817 29.9832 296.34 29.8786 296.922 29.8786C297.51 29.8786 298.029 29.9818 298.478 30.1881C298.931 30.3945 299.287 30.6786 299.547 31.0404C299.807 31.3994 299.943 31.8122 299.954 32.2786H298.69ZM305.663 35.9803V32.1683H306.935V38.6814H305.688V37.5535H305.62C305.47 37.9012 305.23 38.1909 304.899 38.4227C304.571 38.6517 304.163 38.7662 303.674 38.7662C303.255 38.7662 302.885 38.6743 302.563 38.4906C302.243 38.304 301.992 38.0284 301.808 37.6637C301.627 37.2991 301.537 36.8482 301.537 36.3111V32.1683H302.805V36.1584C302.805 36.6023 302.928 36.9556 303.173 37.2185C303.419 37.4814 303.739 37.6128 304.132 37.6128C304.369 37.6128 304.605 37.5535 304.84 37.4348C305.077 37.316 305.274 37.1365 305.429 36.8962C305.588 36.656 305.665 36.3507 305.663 35.9803ZM308.638 38.6814V32.1683H309.855V33.2284H309.936C310.071 32.8694 310.293 32.5895 310.601 32.3888C310.909 32.1853 311.278 32.0835 311.708 32.0835C312.143 32.0835 312.508 32.1853 312.802 32.3888C313.099 32.5924 313.318 32.8722 313.459 33.2284H313.527C313.683 32.8807 313.93 32.6037 314.269 32.3973C314.608 32.1881 315.013 32.0835 315.482 32.0835C316.073 32.0835 316.555 32.2687 316.928 32.639C317.304 33.0093 317.492 33.5676 317.492 34.3139V38.6814H316.224V34.4326C316.224 33.9917 316.104 33.6722 315.864 33.4743C315.623 33.2765 315.336 33.1775 315.003 33.1775C314.59 33.1775 314.269 33.3047 314.04 33.5591C313.811 33.8107 313.697 34.1344 313.697 34.5302V38.6814H312.433V34.3521C312.433 33.9987 312.323 33.7146 312.102 33.4998C311.882 33.2849 311.595 33.1775 311.242 33.1775C311.001 33.1775 310.779 33.2411 310.576 33.3683C310.375 33.4927 310.213 33.6666 310.088 33.8899C309.967 34.1132 309.906 34.3719 309.906 34.6659V38.6814H308.638ZM319.191 38.6814V32.1683H320.408V33.2284H320.489C320.624 32.8694 320.846 32.5895 321.154 32.3888C321.462 32.1853 321.831 32.0835 322.261 32.0835C322.696 32.0835 323.061 32.1853 323.355 32.3888C323.652 32.5924 323.871 32.8722 324.012 33.2284H324.08C324.236 32.8807 324.483 32.6037 324.822 32.3973C325.161 32.1881 325.566 32.0835 326.035 32.0835C326.626 32.0835 327.108 32.2687 327.481 32.639C327.857 33.0093 328.045 33.5676 328.045 34.3139V38.6814H326.777V34.4326C326.777 33.9917 326.657 33.6722 326.417 33.4743C326.176 33.2765 325.889 33.1775 325.556 33.1775C325.143 33.1775 324.822 33.3047 324.593 33.5591C324.364 33.8107 324.25 34.1344 324.25 34.5302V38.6814H322.986V34.3521C322.986 33.9987 322.876 33.7146 322.655 33.4998C322.435 33.2849 322.148 33.1775 321.795 33.1775C321.554 33.1775 321.332 33.2411 321.129 33.3683C320.928 33.4927 320.766 33.6666 320.641 33.8899C320.52 34.1132 320.459 34.3719 320.459 34.6659V38.6814H319.191ZM331.639 38.8256C331.227 38.8256 330.854 38.7492 330.52 38.5966C330.186 38.4411 329.922 38.2164 329.727 37.9224C329.535 37.6284 329.439 37.268 329.439 36.8411C329.439 36.4736 329.509 36.1712 329.651 35.9337C329.792 35.6962 329.983 35.5083 330.223 35.3697C330.464 35.2312 330.732 35.1266 331.029 35.056C331.326 34.9853 331.628 34.9316 331.936 34.8948C332.326 34.8496 332.643 34.8129 332.886 34.7846C333.129 34.7535 333.306 34.704 333.416 34.6362C333.526 34.5683 333.582 34.4581 333.582 34.3054V34.2758C333.582 33.9054 333.477 33.6185 333.268 33.415C333.061 33.2114 332.753 33.1097 332.343 33.1097C331.916 33.1097 331.58 33.2044 331.334 33.3938C331.091 33.5804 330.923 33.7881 330.83 34.0171L329.638 33.7457C329.779 33.35 329.986 33.0305 330.257 32.7874C330.531 32.5415 330.847 32.3634 331.203 32.2531C331.559 32.1401 331.933 32.0835 332.326 32.0835C332.586 32.0835 332.862 32.1146 333.153 32.1768C333.447 32.2362 333.721 32.3464 333.976 32.5076C334.233 32.6687 334.444 32.8991 334.608 33.1987C334.772 33.4955 334.854 33.8814 334.854 34.3563V38.6814H333.615V37.7909H333.565C333.483 37.9549 333.36 38.116 333.196 38.2743C333.032 38.4326 332.821 38.5641 332.564 38.6687C332.307 38.7733 331.998 38.8256 331.639 38.8256ZM331.915 37.8079C332.266 37.8079 332.565 37.7386 332.814 37.6001C333.066 37.4616 333.256 37.2807 333.386 37.0574C333.519 36.8312 333.586 36.5895 333.586 36.3323V35.4927C333.541 35.5379 333.453 35.5803 333.323 35.6199C333.196 35.6567 333.05 35.6892 332.886 35.7174C332.722 35.7429 332.562 35.7669 332.407 35.7895C332.251 35.8093 332.121 35.8263 332.017 35.8404C331.771 35.8715 331.546 35.9238 331.343 35.9973C331.142 36.0708 330.981 36.1768 330.859 36.3153C330.741 36.451 330.681 36.6319 330.681 36.8581C330.681 37.1719 330.797 37.4093 331.029 37.5704C331.261 37.7287 331.556 37.8079 331.915 37.8079ZM336.542 38.6814V32.1683H337.768V33.203H337.836C337.954 32.8524 338.163 32.5768 338.463 32.3761C338.766 32.1726 339.108 32.0708 339.489 32.0708C339.568 32.0708 339.662 32.0736 339.769 32.0793C339.879 32.0849 339.966 32.092 340.028 32.1005V33.3132C339.977 33.2991 339.886 33.2835 339.756 33.2666C339.626 33.2468 339.496 33.2369 339.366 33.2369C339.067 33.2369 338.8 33.3005 338.565 33.4277C338.333 33.5521 338.149 33.7259 338.014 33.9493C337.878 34.1697 337.81 34.4213 337.81 34.704V38.6814H336.542ZM342.125 41.1238C341.935 41.1238 341.763 41.1082 341.607 41.0771C341.452 41.0489 341.336 41.0178 341.26 40.9839L341.565 39.945C341.797 40.0072 342.003 40.034 342.184 40.0256C342.365 40.0171 342.525 39.9492 342.663 39.822C342.804 39.6948 342.929 39.487 343.036 39.1987L343.193 38.7662L340.81 32.1683H342.167L343.816 37.2227H343.884L345.534 32.1683H346.895L344.211 39.5507C344.086 39.8899 343.928 40.1768 343.736 40.4114C343.544 40.6489 343.315 40.827 343.049 40.9457C342.783 41.0644 342.475 41.1238 342.125 41.1238Z" fill="#B1B4C3"/>
<rect x="330.913" y="9.22778" width="256.723" height="1.62826" fill="#B1B4C3"/>
<circle cx="597.948" cy="10.3133" r="9.76959" fill="#B1B4C3"/>
<path d="M596.479 9.37672H597.266C597.651 9.37672 597.969 9.31315 598.219 9.18602C598.474 9.05491 598.662 8.87811 598.785 8.65562C598.913 8.42916 598.976 8.17488 598.976 7.8928C598.976 7.55907 598.921 7.27897 598.809 7.05251C598.698 6.82605 598.531 6.65521 598.309 6.53999C598.086 6.42477 597.804 6.36716 597.462 6.36716C597.153 6.36716 596.878 6.42875 596.64 6.55191C596.406 6.6711 596.221 6.84194 596.086 7.06443C595.955 7.28692 595.889 7.54914 595.889 7.85108H594.787C594.787 7.41008 594.898 7.00881 595.12 6.64726C595.343 6.28572 595.655 5.99767 596.056 5.78313C596.461 5.56859 596.93 5.46132 597.462 5.46132C597.987 5.46132 598.446 5.55468 598.839 5.74141C599.232 5.92417 599.538 6.19831 599.757 6.56383C599.975 6.92537 600.085 7.37631 600.085 7.91664C600.085 8.13515 600.033 8.36956 599.93 8.61986C599.83 8.86619 599.673 9.09662 599.459 9.31117C599.248 9.52571 598.974 9.70251 598.636 9.84156C598.299 9.97665 597.893 10.0442 597.421 10.0442H596.479V9.37672ZM596.479 10.2826V9.62106H597.421C597.973 9.62106 598.43 9.68662 598.791 9.81773C599.153 9.94884 599.437 10.1236 599.644 10.3422C599.854 10.5607 600.001 10.801 600.085 11.0633C600.172 11.3215 600.216 11.5798 600.216 11.838C600.216 12.2433 600.146 12.6028 600.007 12.9167C599.872 13.2305 599.679 13.4967 599.429 13.7153C599.183 13.9338 598.893 14.0986 598.559 14.2099C598.225 14.3211 597.862 14.3768 597.468 14.3768C597.091 14.3768 596.735 14.3231 596.402 14.2159C596.072 14.1086 595.78 13.9536 595.526 13.751C595.271 13.5444 595.073 13.2921 594.93 12.9942C594.787 12.6922 594.715 12.3485 594.715 11.9632H595.818C595.818 12.2651 595.883 12.5293 596.014 12.7558C596.149 12.9822 596.34 13.159 596.586 13.2862C596.837 13.4093 597.131 13.4709 597.468 13.4709C597.806 13.4709 598.096 13.4133 598.338 13.2981C598.585 13.1789 598.774 13.0001 598.905 12.7617C599.04 12.5233 599.107 12.2234 599.107 11.8618C599.107 11.5003 599.032 11.2043 598.881 10.9739C598.73 10.7395 598.515 10.5666 598.237 10.4554C597.963 10.3402 597.639 10.2826 597.266 10.2826H596.479Z" fill="white"/>
<path d="M553.507 31.1252V29.9973H560.228V31.1252H557.519V38.6814H556.213V31.1252H553.507ZM560.935 38.6814V32.1683H562.161V33.203H562.228C562.347 32.8524 562.556 32.5768 562.856 32.3761C563.158 32.1726 563.5 32.0708 563.882 32.0708C563.961 32.0708 564.055 32.0736 564.162 32.0793C564.272 32.0849 564.358 32.092 564.421 32.1005V33.3132C564.37 33.2991 564.279 33.2835 564.149 33.2666C564.019 33.2468 563.889 33.2369 563.759 33.2369C563.46 33.2369 563.192 33.3005 562.958 33.4277C562.726 33.5521 562.542 33.7259 562.407 33.9493C562.271 34.1697 562.203 34.4213 562.203 34.704V38.6814H560.935ZM567.355 38.8256C566.942 38.8256 566.569 38.7492 566.235 38.5966C565.902 38.4411 565.638 38.2164 565.443 37.9224C565.25 37.6284 565.154 37.268 565.154 36.8411C565.154 36.4736 565.225 36.1712 565.366 35.9337C565.508 35.6962 565.698 35.5083 565.939 35.3697C566.179 35.2312 566.447 35.1266 566.744 35.056C567.041 34.9853 567.344 34.9316 567.652 34.8948C568.042 34.8496 568.358 34.8129 568.602 34.7846C568.845 34.7535 569.021 34.704 569.132 34.6362C569.242 34.5683 569.297 34.4581 569.297 34.3054V34.2758C569.297 33.9054 569.192 33.6185 568.983 33.415C568.777 33.2114 568.469 33.1097 568.059 33.1097C567.632 33.1097 567.296 33.2044 567.05 33.3938C566.806 33.5804 566.638 33.7881 566.545 34.0171L565.353 33.7457C565.495 33.35 565.701 33.0305 565.973 32.7874C566.247 32.5415 566.562 32.3634 566.918 32.2531C567.274 32.1401 567.649 32.0835 568.042 32.0835C568.302 32.0835 568.578 32.1146 568.869 32.1768C569.163 32.2362 569.437 32.3464 569.691 32.5076C569.949 32.6687 570.159 32.8991 570.323 33.1987C570.487 33.4955 570.569 33.8814 570.569 34.3563V38.6814H569.331V37.7909H569.28C569.198 37.9549 569.075 38.116 568.911 38.2743C568.747 38.4326 568.537 38.5641 568.279 38.6687C568.022 38.7733 567.714 38.8256 567.355 38.8256ZM567.631 37.8079C567.981 37.8079 568.281 37.7386 568.529 37.6001C568.781 37.4616 568.972 37.2807 569.102 37.0574C569.235 36.8312 569.301 36.5895 569.301 36.3323V35.4927C569.256 35.5379 569.168 35.5803 569.038 35.6199C568.911 35.6567 568.766 35.6892 568.602 35.7174C568.438 35.7429 568.278 35.7669 568.122 35.7895C567.967 35.8093 567.837 35.8263 567.732 35.8404C567.486 35.8715 567.262 35.9238 567.058 35.9973C566.857 36.0708 566.696 36.1768 566.575 36.3153C566.456 36.451 566.397 36.6319 566.397 36.8581C566.397 37.1719 566.513 37.4093 566.744 37.5704C566.976 37.7287 567.272 37.8079 567.631 37.8079ZM573.526 34.8143V38.6814H572.258V32.1683H573.475V33.2284H573.555C573.705 32.8835 573.94 32.6065 574.259 32.3973C574.581 32.1881 574.987 32.0835 575.476 32.0835C575.92 32.0835 576.309 32.1768 576.642 32.3634C576.976 32.5471 577.234 32.8213 577.418 33.186C577.602 33.5507 577.694 34.0016 577.694 34.5387V38.6814H576.426V34.6913C576.426 34.2192 576.303 33.8503 576.057 33.5846C575.811 33.316 575.473 33.1818 575.044 33.1818C574.75 33.1818 574.488 33.2454 574.259 33.3726C574.033 33.4998 573.853 33.6864 573.721 33.9323C573.591 34.1754 573.526 34.4694 573.526 34.8143ZM584.275 33.7584L583.126 33.962C583.077 33.815 583.001 33.675 582.897 33.5422C582.795 33.4093 582.656 33.3005 582.481 33.2157C582.306 33.1309 582.087 33.0885 581.824 33.0885C581.465 33.0885 581.165 33.169 580.925 33.3302C580.685 33.4885 580.564 33.6934 580.564 33.945C580.564 34.1627 580.645 34.3379 580.806 34.4708C580.967 34.6037 581.227 34.7125 581.586 34.7973L582.621 35.0348C583.22 35.1733 583.667 35.3867 583.961 35.675C584.255 35.9634 584.402 36.3379 584.402 36.7987C584.402 37.1888 584.289 37.5365 584.063 37.8418C583.839 38.1443 583.527 38.3818 583.126 38.5542C582.727 38.7266 582.265 38.8128 581.739 38.8128C581.01 38.8128 580.415 38.6574 579.954 38.3464C579.493 38.0326 579.21 37.5874 579.106 37.0107L580.331 36.8242C580.408 37.1436 580.564 37.3853 580.802 37.5492C581.039 37.7104 581.349 37.7909 581.73 37.7909C582.146 37.7909 582.478 37.7047 582.727 37.5323C582.976 37.357 583.1 37.1436 583.1 36.892C583.1 36.6885 583.024 36.5174 582.871 36.3789C582.721 36.2404 582.491 36.1358 582.18 36.0651L581.077 35.8235C580.47 35.6849 580.02 35.4644 579.729 35.162C579.441 34.8595 579.297 34.4765 579.297 34.0129C579.297 33.6284 579.404 33.292 579.619 33.0037C579.834 32.7153 580.13 32.4906 580.509 32.3295C580.888 32.1655 581.322 32.0835 581.811 32.0835C582.515 32.0835 583.069 32.2362 583.473 32.5415C583.877 32.844 584.145 33.2496 584.275 33.7584ZM587.691 38.8256C587.279 38.8256 586.905 38.7492 586.572 38.5966C586.238 38.4411 585.974 38.2164 585.779 37.9224C585.587 37.6284 585.491 37.268 585.491 36.8411C585.491 36.4736 585.561 36.1712 585.703 35.9337C585.844 35.6962 586.035 35.5083 586.275 35.3697C586.515 35.2312 586.784 35.1266 587.081 35.056C587.377 34.9853 587.68 34.9316 587.988 34.8948C588.378 34.8496 588.695 34.8129 588.938 34.7846C589.181 34.7535 589.358 34.704 589.468 34.6362C589.578 34.5683 589.633 34.4581 589.633 34.3054V34.2758C589.633 33.9054 589.529 33.6185 589.32 33.415C589.113 33.2114 588.805 33.1097 588.395 33.1097C587.968 33.1097 587.632 33.2044 587.386 33.3938C587.143 33.5804 586.975 33.7881 586.881 34.0171L585.69 33.7457C585.831 33.35 586.038 33.0305 586.309 32.7874C586.583 32.5415 586.898 32.3634 587.254 32.2531C587.611 32.1401 587.985 32.0835 588.378 32.0835C588.638 32.0835 588.914 32.1146 589.205 32.1768C589.499 32.2362 589.773 32.3464 590.028 32.5076C590.285 32.6687 590.495 32.8991 590.659 33.1987C590.823 33.4955 590.905 33.8814 590.905 34.3563V38.6814H589.667V37.7909H589.616C589.534 37.9549 589.411 38.116 589.247 38.2743C589.083 38.4326 588.873 38.5641 588.616 38.6687C588.358 38.7733 588.05 38.8256 587.691 38.8256ZM587.967 37.8079C588.317 37.8079 588.617 37.7386 588.866 37.6001C589.117 37.4616 589.308 37.2807 589.438 37.0574C589.571 36.8312 589.638 36.5895 589.638 36.3323V35.4927C589.592 35.5379 589.505 35.5803 589.375 35.6199C589.247 35.6567 589.102 35.6892 588.938 35.7174C588.774 35.7429 588.614 35.7669 588.459 35.7895C588.303 35.8093 588.173 35.8263 588.069 35.8404C587.823 35.8715 587.598 35.9238 587.394 35.9973C587.194 36.0708 587.033 36.1768 586.911 36.3153C586.792 36.451 586.733 36.6319 586.733 36.8581C586.733 37.1719 586.849 37.4093 587.081 37.5704C587.312 37.7287 587.608 37.8079 587.967 37.8079ZM595.338 38.8128C594.707 38.8128 594.164 38.6701 593.709 38.3846C593.257 38.0962 592.909 37.6991 592.666 37.1931C592.423 36.6871 592.301 36.1076 592.301 35.4545C592.301 34.7931 592.426 34.2093 592.675 33.7033C592.923 33.1945 593.274 32.7973 593.726 32.5118C594.179 32.2263 594.711 32.0835 595.325 32.0835C595.819 32.0835 596.26 32.1754 596.648 32.3592C597.035 32.5401 597.347 32.7945 597.585 33.1224C597.825 33.4503 597.968 33.8334 598.013 34.2715H596.779C596.711 33.9662 596.556 33.7033 596.313 33.4828C596.072 33.2623 595.75 33.1521 595.346 33.1521C594.993 33.1521 594.683 33.2454 594.417 33.4319C594.154 33.6157 593.95 33.8786 593.803 34.2206C593.656 34.5599 593.582 34.9613 593.582 35.4249C593.582 35.8998 593.654 36.3097 593.798 36.6545C593.942 36.9994 594.146 37.2666 594.409 37.456C594.675 37.6454 594.987 37.7401 595.346 37.7401C595.586 37.7401 595.804 37.6962 595.999 37.6086C596.197 37.5181 596.362 37.3895 596.495 37.2227C596.631 37.056 596.725 36.8553 596.779 36.6206H598.013C597.968 37.0418 597.831 37.4178 597.602 37.7485C597.373 38.0793 597.066 38.3393 596.682 38.5287C596.3 38.7181 595.852 38.8128 595.338 38.8128ZM602.409 32.1683V33.186H598.852V32.1683H602.409ZM599.806 30.6079H601.074V36.769C601.074 37.015 601.11 37.2001 601.184 37.3245C601.257 37.4461 601.352 37.5295 601.468 37.5747C601.587 37.6171 601.715 37.6383 601.854 37.6383C601.956 37.6383 602.045 37.6312 602.121 37.6171C602.197 37.603 602.257 37.5916 602.299 37.5832L602.528 38.6305C602.454 38.6588 602.35 38.6871 602.214 38.7153C602.078 38.7464 601.909 38.7634 601.705 38.7662C601.372 38.7719 601.061 38.7125 600.772 38.5881C600.484 38.4637 600.251 38.2715 600.073 38.0114C599.895 37.7514 599.806 37.4249 599.806 37.0319V30.6079ZM603.812 38.6814V32.1683H605.08V38.6814H603.812ZM604.452 31.1634C604.231 31.1634 604.042 31.0899 603.884 30.9429C603.728 30.7931 603.651 30.615 603.651 30.4086C603.651 30.1994 603.728 30.0213 603.884 29.8744C604.042 29.7245 604.231 29.6496 604.452 29.6496C604.672 29.6496 604.86 29.7245 605.016 29.8744C605.174 30.0213 605.253 30.1994 605.253 30.4086C605.253 30.615 605.174 30.7931 605.016 30.9429C604.86 31.0899 604.672 31.1634 604.452 31.1634ZM609.529 38.8128C608.918 38.8128 608.385 38.6729 607.93 38.3931C607.475 38.1132 607.122 37.7217 606.87 37.2185C606.618 36.7153 606.493 36.1273 606.493 35.4545C606.493 34.7789 606.618 34.1881 606.87 33.6821C607.122 33.1761 607.475 32.7832 607.93 32.5033C608.385 32.2235 608.918 32.0835 609.529 32.0835C610.139 32.0835 610.672 32.2235 611.127 32.5033C611.582 32.7832 611.936 33.1761 612.187 33.6821C612.439 34.1881 612.565 34.7789 612.565 35.4545C612.565 36.1273 612.439 36.7153 612.187 37.2185C611.936 37.7217 611.582 38.1132 611.127 38.3931C610.672 38.6729 610.139 38.8128 609.529 38.8128ZM609.533 37.7485C609.929 37.7485 610.257 37.6439 610.517 37.4348C610.777 37.2256 610.969 36.9471 611.093 36.5994C611.221 36.2517 611.284 35.8687 611.284 35.4503C611.284 35.0348 611.221 34.6531 611.093 34.3054C610.969 33.9549 610.777 33.6736 610.517 33.4616C610.257 33.2496 609.929 33.1436 609.533 33.1436C609.134 33.1436 608.804 33.2496 608.541 33.4616C608.281 33.6736 608.087 33.9549 607.96 34.3054C607.835 34.6531 607.773 35.0348 607.773 35.4503C607.773 35.8687 607.835 36.2517 607.96 36.5994C608.087 36.9471 608.281 37.2256 608.541 37.4348C608.804 37.6439 609.134 37.7485 609.533 37.7485ZM615.248 34.8143V38.6814H613.98V32.1683H615.197V33.2284H615.277C615.427 32.8835 615.662 32.6065 615.981 32.3973C616.304 32.1881 616.709 32.0835 617.198 32.0835C617.642 32.0835 618.031 32.1768 618.364 32.3634C618.698 32.5471 618.957 32.8213 619.14 33.186C619.324 33.5507 619.416 34.0016 619.416 34.5387V38.6814H618.148V34.6913C618.148 34.2192 618.025 33.8503 617.779 33.5846C617.533 33.316 617.195 33.1818 616.766 33.1818C616.472 33.1818 616.21 33.2454 615.981 33.3726C615.755 33.4998 615.576 33.6864 615.443 33.9323C615.313 34.1754 615.248 34.4694 615.248 34.8143ZM624.378 38.6814V29.9973H627.473C628.149 29.9973 628.709 30.1203 629.153 30.3662C629.596 30.6122 629.929 30.9486 630.149 31.3754C630.37 31.7994 630.48 32.2772 630.48 32.8086C630.48 33.3429 630.368 33.8235 630.145 34.2503C629.924 34.6743 629.591 35.0107 629.144 35.2595C628.7 35.5054 628.142 35.6284 627.469 35.6284H625.341V34.5175H627.351C627.777 34.5175 628.124 34.444 628.389 34.297C628.655 34.1471 628.85 33.9436 628.975 33.6864C629.099 33.4291 629.161 33.1365 629.161 32.8086C629.161 32.4807 629.099 32.1895 628.975 31.9351C628.85 31.6807 628.654 31.4814 628.385 31.3372C628.119 31.1931 627.769 31.121 627.334 31.121H625.688V38.6814H624.378ZM631.914 38.6814V32.1683H633.182V38.6814H631.914ZM632.554 31.1634C632.334 31.1634 632.144 31.0899 631.986 30.9429C631.831 30.7931 631.753 30.615 631.753 30.4086C631.753 30.1994 631.831 30.0213 631.986 29.8744C632.144 29.7245 632.334 29.6496 632.554 29.6496C632.775 29.6496 632.963 29.7245 633.118 29.8744C633.277 30.0213 633.356 30.1994 633.356 30.4086C633.356 30.615 633.277 30.7931 633.118 30.9429C632.963 31.0899 632.775 31.1634 632.554 31.1634ZM636.155 34.8143V38.6814H634.888V32.1683H636.105V33.2284H636.185C636.335 32.8835 636.57 32.6065 636.889 32.3973C637.211 32.1881 637.617 32.0835 638.106 32.0835C638.55 32.0835 638.938 32.1768 639.272 32.3634C639.606 32.5471 639.864 32.8213 640.048 33.186C640.232 33.5507 640.324 34.0016 640.324 34.5387V38.6814H639.056V34.6913C639.056 34.2192 638.933 33.8503 638.687 33.5846C638.441 33.316 638.103 33.1818 637.673 33.1818C637.379 33.1818 637.118 33.2454 636.889 33.3726C636.663 33.4998 636.483 33.6864 636.35 33.9323C636.22 34.1754 636.155 34.4694 636.155 34.8143Z" fill="#B1B4C3"/>
</svg>
