<svg width="14" height="16" viewBox="0 0 14 16" fill="none" xmlns="http://www.w3.org/2000/svg">
<path d="M5.5676 12.0965L4.50147 11.7792L4.93598 9.97929C4.28558 9.7132 3.68111 9.32542 3.14881 8.8328L1.96012 10.152L1.17889 9.28539L2.36813 7.9668C1.69681 7.07494 1.24574 6.00501 1.05908 4.86173L2.14563 4.64186C2.56468 7.21534 4.59423 9.1678 7.0351 9.1678C9.47541 9.1678 11.5055 7.21534 11.9246 4.64186L13.0111 4.86111C12.8247 6.00455 12.3738 7.0747 11.7026 7.9668L12.8913 9.28539L12.1101 10.152L10.9214 8.8328C10.3891 9.32542 9.78461 9.7132 9.13421 9.97929L9.56872 11.7799L8.5026 12.0965L8.06754 10.2959C7.38422 10.4258 6.68597 10.4258 6.00266 10.2959L5.5676 12.0965Z" fill="black"/>
</svg>
